/* XPM */
static char *centaur_up[] = {
/* columns rows colors chars-per-pixel */
"64 64 21 1 ",
"  c black",
". c gray5",
"X c gray9",
"o c #2A2A2A",
"O c #402126",
"+ c #3B403B",
"@ c #62403C",
"# c #414141",
"$ c #5B5B5B",
"% c #616760",
"& c #964B1F",
"* c #B36739",
"= c #855F52",
"- c #9F7B60",
"; c #EA9777",
": c #D9C27D",
"> c #8E958D",
", c #B49580",
"< c #F9C19D",
"1 c #CCCFCB",
"2 c #FBDCC8",
/* pixels */
":::::::::::::::::::::::::::::+::::::::::::::::::::::::::::::::::",
"::::::::::::::::::::::::::::++:::::::.::::::::::::::::::::::::::",
":::::::::::::::::::::::+::++++++...:...:::::::::::::::::::::::::",
"::::::::::::::::::::::++++++%%%%%%+.+++.::::::::::::::::::::::::",
":::::::::::::::::::::+%>%+%%>>%>>%%.++%..:::::::::::::::::::::::",
"::::::::::::::::::::++%>%+%>>%>1>>%+.%%+.:::::::::::::::::::::::",
":::::::::::::::::::+++>>>+>1>%11>1>+.%%%....::::::::::::::::::::",
":::::::::::::::::::+%+>1>%>1>%11>1>%.>%%.++.::::::::::::::::::::",
":::::::::::::::::::+%%11>%>1>%>>%%>%+>>%++%.::::::::::::::::::::",
"::::::::::::::::::++>%11>%>1>%%%%%>%+>>%+%%+.:::::::::::::::::::",
"::::::::::::::::::++>%1>>%%>>%%%%%%%+>>%+%%+.:::::::::::::::::::",
":::::::::::::::::+%+>>1>%%%%>%%%%%%%+%>%+%%...::::::::::::::::::",
":::::::::::::::::+%+%>1>+%%%%%%%%%%%+%%%+%+.+.::::::::::::::::::",
":::::::::::::::::+%%+>>>+%%%%%%%%%%%+%%%+++.+.::::::::::::::::::",
":::::::::::::::::+%%+%>>+%%%%%%%%%%%+%%%++.++.::::::::::::::::::",
":::::::::::::::::.+%%+%>%+%%%%%%%+%%+%%+++.++.::::::::::::::::::",
":::::::::::::::::.+%%+%%%+%%%%%%%+%%+%%++++++.::::::::::::::::::",
":::::::::::::::::..+%%+%%+%%%%%%%+%++%%+++++..::::::::::::::::::",
":::::::::::::::::&;.%%+%%++%%%%%%+%++%++++++.&::::::::::::::::::",
":::::::::::::::::&2.+%+%%++%%%%%%+%++%+++++.<&::::::::::::::::::",
"::::::::::::::::: 2;.++%++++%%%%+++++++++++.< ::::::::::::::::::",
"::::::::::::::::: <;.+++++++%%%%+++++++++++.; ::::::::::::::::::",
":::::::::::::::::: * ++++++++%%%++++++++++ * :::::::::::::::::::",
":::::::::::::::::::  +++++++++%+++++++++++  ::::::::::::::::::::",
":::::::::::::::::::: .+++++++++++++++++++. :::::::::::::::::::::",
":::::::::::::::::::: .+++++++++++++++++++. :::::::::::::::::::::",
"::::::::::::::::::::: ++.++.+++++.++++.++ ::::::::::::::::::::::",
"::::::::::::::::::::: .+.++.+++++.++...+. ::::::::::::::::::::::",
":::::::::::::::::::::: + ++..+++..++.. + :::::::::::::::::::::::",
"::::::::::::::::::::::   +...+++...+  &  &::::::::::::::::::::::",
":::::::::::::::::::::& <;    .+.     ;;2 ;&:::::::::::::::::::::",
"::::::::::::::::::::&;<<;<<<<   ;;<<<<;22<;&::::::::::::::::::::",
"::::::::::::::::::::&;<<;<<22<<<<<22<<;<<;;*&:::::::::::::::::::",
":::::::::::::::::::&*;;;*<<22<<<<<22<<*;;;;;;&::::::::::::::::::",
":::::::::::::::::::&;;;;&;<<<<<;<<<<<;  *;<<;&::::::::::::::::::",
":::::::::::::::::::&*;;*&*;;<<<;<<<;;*&: ;<22;&:::::::::::::::::",
":::::::::::::::::::&****&*;<<<<;<<<<;*O: ;;22;&:::::::::::::::::",
":::::::::::::::::::: ** =*;<<<;;;<<<;*=  ;&<<;&:::::::::::::::::",
":::::::::::::::::::::  ====<<<<<<<<<===O  &;;&::::::::::::::::::",
"::::::::::::::::::::::O@@--,,,,-----==@@ :   :::::::::::::::::::",
"::::::::::::::::::::::O@=-,,,,,------==@ :::::::::::::::::::::::",
"::::::::::::::::::::::O@--,,,,,------==@ :::::::::::::::::::::::",
"::::::::::::::::::::::O=--,,,,,-------== :::::::::::::::::::::::",
":::::::::::::::::::::O=----,,,--------==@ ::::::::::::::::::::::",
":::::::::::::::::::::O=---------------=== ::::::::::::::::::::::",
":::::::::::::::::::::O=---------------=== ::::::::::::::::::::::",
":::::::::::::::::::::O=-------XXX=---==== ::::::::::::::::::::::",
":::::::::::::::::::::O==----=X##oO======@ ::::::::::::::::::::::",
":::::::::::::::::::::O======Xo###oO=====@ ::::::::::::::::::::::",
":::::::::::::::::::::O======X##$#oO@==@@@ ::::::::::::::::::::::",
":::::::::::::::::::::O@====Xo#$$$#XO@@@@@ ::::::::::::::::::::::",
":::::::::::::::::::::O@@=@@X$#$$$#oO@@@@O ::::::::::::::::::::::",
"::::::::::::::::::::::O@--=X#o#$$#o @@@O :::::::::::::::::::::::",
"::::::::::::::::::::::O=---X#o##$oo ==@O :::::::::::::::::::::::",
"::::::::::::::::::::::O==--Xooo##oX ==@ ::::::::::::::::::::::::",
"::::::::::::::::::::::O@===@ Xo##o O@@O ::::::::::::::::::::::::",
":::::::::::::::::::::::O@@@@ Xoo#o @@O :::::::::::::::::::::::::",
":::::::::::::::::::::::O@@--= oX#X OOO :::::::::::::::::::::::::",
"::::::::::::::::::::::::O@=@@ oXoX @@O :::::::::::::::::::::::::",
":::::::::::::::::::::::::O==@  oXX @@O :::::::::::::::::::::::::",
":::::::::::::::::::::::::O@=@  oXX OOO :::::::::::::::::::::::::",
":::::::::::::::::::::::::O=@@ : oX @@O :::::::::::::::::::::::::",
":::::::::::::::::::::::::O=-= :: X @@O::::::::::::::::::::::::::",
"::::::::::::::::::::::::::=,=:::: ::::::::::::::::::::::::::::::"
};
