/* XPM */
static char *centaur_down[] = {
/* columns rows colors chars-per-pixel */
"64 64 22 1 ",
"  c black",
". c gray5",
"X c #1D1814",
"o c #0F2631",
"O c #402126",
"+ c #3B403B",
"@ c #62403C",
"# c #615D59",
"$ c #616760",
"% c #964B1F",
"& c #B36739",
"* c #855F52",
"= c #9F7B60",
"- c #EA9777",
"; c #D9C27D",
": c #8E958D",
"> c #B49580",
", c #AFA992",
"< c #F9C19D",
"1 c #CCCFCB",
"2 c #FBDCC8",
"3 c white",
/* pixels */
";;;;;;;;;;;;;;;;;;;;;;;;;;;;;;;;;;;;;;;;;;;;;;;;;;;;;;;;;;;;;;;;",
";;;;;;;;;;;;;;;;;;;;;;;;;;;;;;;;;;;;;;;;;;;;;;;;;;;;;;;;;;;;;;;;",
";;;;;;;;;;;;;;;;;;;;;;;;;;;;;+;;;;;;;;;;;;;;;;;;;;;;;;;;;;;;;;;;",
";;;;;;;;;;;;;;;;;;;;;;;;;;;;+$+;;;;;;;.;;;;;;;;;;;;;;;;;;;;;;;;;",
";;;;;;;;;;;;;;;;;;;;;;;;;;;+$$+......;..;;;;;;;;;;;;;;;;;;;;;;;;",
";;;;;;;;;;;;;;;;;;;;;;;;+;+$:$+++$$++.++.;;;;;;;;;;;;;;;;;;;;;;;",
";;;;;;;;;;;;;;;;;;;;;;;++++::$+:$+$$+.+++.;;;;;;;;;;;;;;;;;;;;;;",
";;;;;;;;;;;;;;;;;;;;;;+$$:+:1$+1:$+$$+.++..;;;;;;;;;;;;;;;;;;;;;",
";;;;;;;;;;;;;;;;;;;;+++$::+11$:1:$+:$+.$+....;;;;;;;;;;;;;;;;;;;",
";;;;;;;;;;;;;;;;;;;;+$+:1:$1:$:1:$$:$$.$+.++.;;;;;;;;;;;;;;;;;;;",
";;;;;;;;;;;;;;;;;;;;+:$:1:$::$:1:$$:$$+:+.$$.;;;;;;;;;;;;;;;;;;;",
";;;;;;;;;;;;;;;;;;;+$::$::+$:$$::$+:$+$$.$$$+.;;;;;;;;;;;;;;;;;;",
";;;;;;;;;;;;;;;;;;;+$:1:$:$+$$+$:$+$++$+.$$$+.;;;;;;;;;;;;;;;;;;",
";;;;;;;;;;;;;;;;;;++$:1:.++++$+$$$+$+++.+$$++..;;;;;;;;;;;;;;;;;",
";;;;;;;;;;;;;;;;;;+$+$:$....++.+$+.++...+$++.+.;;;;;;;;;;;;;;;;;",
";;;;;;;;;;;;;;;;;;+$+$$+..22...+++...22..+++.+.;;;;;;;;;;;;;;;;;",
";;;;;;;;;;;;;;;;;;+$$+$.<222222.+.222222<.+.++.;;;;;;;;;;;;;;;;;",
";;;;;;;;;;;;;;;;;;++$$+.<2222222+2222222<.++++.;;;;;;;;;;;;;;;;;",
";;;;;;;;;;;;;;;;;;+.+$..<<2222222222222<<..++..;;;;;;;;;;;;;;;;;",
";;;;;;;;;;;;;;;;;;.&.+.-&%%%-2222222-%%%&-.+.%.;;;;;;;;;;;;;;;;;",
";;;;;;;;;;;;;;;;;;%-&..-<<<<--<222<--<<<<-..&&%;;;;;;;;;;;;;;;;;",
";;;;;;;;;;;;;;;;;;%2-%.-%%%%%-<<<<<-%%%%%-.%-2%;;;;;;;;;;;;;;;;;",
";;;;;;;;;;;;;;;;;; 2<%.%%   %&<<<<<&%   %%.%<2 ;;;;;;;;;;;;;;;;;",
";;;;;;;;;;;;;;;;;; -<%.,,X   &<<<<<& X  ,,.%<- ;;;;;;;;;;;;;;;;;",
";;;;;;;;;;;;;;;;;;; &%.,3o o,-<<<<<-,o o3,.%& ;;;;;;;;;;;;;;;;;;",
";;;;;;;;;;;;;;;;;;;;  &,3X X3-2<<<2-3X X3,&  ;;;;;;;;;;;;;;;;;;;",
";;;;;;;;;;;;;;;;;;;;; &-3###3<22222<3###3-& ;;;;;;;;;;;;;;;;;;;;",
";;;;;;;;;;;;;;;;;;;;;O --<<22222222222<<--  ;;;;;;;;;;;;;;;;;;;;",
";;;;;;;;;;;;;;;;;;;;;O &-<<<2222-2222<<<-&  ;;;;;;;;;;;;;;;;;;;;",
";;;;;;;;;;;;;;;;;;;;;O* &-<<<<<<<<<<<<<-& O ;;;;;;;;;;;;;;;;;;;;",
";;;;;;;;;;;;;;;;;;;;;O*=  &-<<<<<<<<<-%  OO ;;;;;;;;;;;;;;;;;;;;",
";;;;;;;;;;;;;;;;;;;;;O%%%%  &&-----&&  %%%O ;;;;;;;;;;;;;;;;;;;;",
";;;;;;;;;;;;;;;;;;;;;%-<<-&&         &-<<-% ;;;;;;;;;;;;;;;;;;;;",
";;;;;;;;;;;;;;;;;;;;%-<22--<<-&&&&&-<<-22<-%;;;;;;;;;;;;;;;;;;;;",
";;;;;;;;;;;;;;;;;;;%&-<22--<22<---<22<-22<-%;;;;;;;;;;;;;;;;;;;;",
";;;;;;;;;;;;;;;;;;%&--<<-&-<22<<-<<22<&&<<-%;;;;;;;;;;;;;;;;;;;;",
";;;;;;;;;;;;;;;;;;%--&--& -<<<<<-<<<<-%----%;;;;;;;;;;;;;;;;;;;;",
";;;;;;;;;;;;;;;;;%&--&    &-<<<---<<<%<-<<<- ;;;;;;;;;;;;;;;;;;;",
";;;;;;;;;;;;;;;;;%&&& O**%&--<<<<<<<-%-%<22< ;;;;;;;;;;;;;;;;;;;",
";;;;;;;;;;;;;;;;; &&  O**%&-<<<<<<<<<- %-<2- ;;;;;;;;;;;;;;;;;;;",
";;;;;;;;;;;;;;;;;;   3O*==*--<<<<<<<--O@--- ;;;;;;;;;;;;;;;;;;;;",
";;;;;;;;;;;;;;;;;;;;;O@=>==**=-<<<-**@O@    ;;;;;;;;;;;;;;;;;;;;",
";;;;;;;;;;;;;;;;;;;;;O*>>======***==@@O@@@@ ;;;;;;;;;;;;;;;;;;;;",
";;;;;;;;;;;;;;;;;;;;;O=>>=======*==*@@O@@@@ ;;;;;;;;;;;;;;;;;;;;",
";;;;;;;;;;;;;;;;;;;;;O==>=*==******@@O@**@@ ;;;;;;;;;;;;;;;;;;;;",
";;;;;;;;;;;;;;;;;;;;;O*====*==****@@@@***@O ;;;;;;;;;;;;;;;;;;;;",
";;;;;;;;;;;;;;;;;;;;;;O*====*==*@@@@@@***@ ;;;;;;;;;;;;;;;;;;;;;",
";;;;;;;;;;;;;;;;;;;;;;O@*===*@***@@@O@**@@ ;;;;;;;;;;;;;;;;;;;;;",
";;;;;;;;;;;;;;;;;;;;;;;O*****@@@@@@@O@@@@ ;;;;;;;;;;;;;;;;;;;;;;",
";;;;;;;;;;;;;;;;;;;;;;;O@**==*O@@@@O@@@@@ ;;;;;;;;;;;;;;;;;;;;;;",
";;;;;;;;;;;;;;;;;;;;;;;;O*>>=*     O**@O ;;;;;;;;;;;;;;;;;;;;;;;",
";;;;;;;;;;;;;;;;;;;;;;;;O*===* ;;; @**@ ;;;;;;;;;;;;;;;;;;;;;;;;",
";;;;;;;;;;;;;;;;;;;;;;;;;O**@@ ;; OOOOO ;;;;;;;;;;;;;;;;;;;;;;;;",
";;;;;;;;;;;;;;;;;;;;;;;;;O@*@@ ;; O@@O ;;;;;;;;;;;;;;;;;;;;;;;;;",
";;;;;;;;;;;;;;;;;;;;;;;;;;O===* ;; OOO ;;;;;;;;;;;;;;;;;;;;;;;;;",
";;;;;;;;;;;;;;;;;;;;;;;;;;O@@@@ ;; O@O ;;;;;;;;;;;;;;;;;;;;;;;;;",
";;;;;;;;;;;;;;;;;;;;;;;;;;;O@*@ ;;OOOO ;;;;;;;;;;;;;;;;;;;;;;;;;",
";;;;;;;;;;;;;;;;;;;;;;;;;;;O*@@ ;;O@@O ;;;;;;;;;;;;;;;;;;;;;;;;;",
";;;;;;;;;;;;;;;;;;;;;;;;;;;O*=* ;;O@@O ;;;;;;;;;;;;;;;;;;;;;;;;;",
";;;;;;;;;;;;;;;;;;;;;;;;;;;O*>* ;;;@@O;;;;;;;;;;;;;;;;;;;;;;;;;;",
";;;;;;;;;;;;;;;;;;;;;;;;;;;;*>*;;;;;;;;;;;;;;;;;;;;;;;;;;;;;;;;;",
";;;;;;;;;;;;;;;;;;;;;;;;;;;;;;;;;;;;;;;;;;;;;;;;;;;;;;;;;;;;;;;;",
";;;;;;;;;;;;;;;;;;;;;;;;;;;;;;;;;;;;;;;;;;;;;;;;;;;;;;;;;;;;;;;;",
";;;;;;;;;;;;;;;;;;;;;;;;;;;;;;;;;;;;;;;;;;;;;;;;;;;;;;;;;;;;;;;;"
};
