/* XPM */
static char *centaur_right[] = {
/* columns rows colors chars-per-pixel */
"64 64 25 1 ",
"  c black",
". c gray5",
"X c gray9",
"o c #1D1814",
"O c #0F2631",
"+ c #2A2A2A",
"@ c #402126",
"# c #3B403B",
"$ c #62403C",
"% c #414141",
"& c #615D59",
"* c #616760",
"= c #964B1F",
"- c #B36739",
"; c #855F52",
": c #9F7B60",
"> c #EA9777",
", c #D9C27D",
"< c #8E958D",
"1 c #B49580",
"2 c #AFA992",
"3 c #F9C19D",
"4 c #CCCFCB",
"5 c #FBDCC8",
"6 c white",
/* pixels */
",,,,,,,,,,,,,,,,,,,,,,,,,,,,,,,,,,,,,,,,,,,,,,,,,,,,,,,,,,,,,,,,",
",,,,,,,,,,,,,,,,,,,,,,,,,,,,,,,,,,,,,#,,,,,,,,,,,,,,,,,,,,,,,,,,",
",,,,,,,,,,,,,,,,,,,,,,,,,,,,,,,,,,,,,#####,,,,,,,,,,,,,,,,,,,,,,",
",,,,,,,,,,,,,,,,,,,,,,,,,,,,,,,,......****#####,,,,,,,,,,,,,,,,,",
",,,,,,,,,,,,,,,,,,,,,,,,,,,,,,,,,..#####*******##,,,,,,,,,,,,,,,",
",,,,,,,,,,,,,,,,,,,,,,,,,,,,,,,,.##****###<<<<<<*##,,,,,,,,,,,,,",
",,,,,,,,,,,,,,,,,,,,,,,,,,,,,,..######****#**<444<*#,,,,,,,,,,,,",
",,,,,,,,,,,,,,,,,,,,,,,,,,,,,.###****<<<<<<<***<44<*#,,,,,,,,,,,",
",,,,,,,,,,,,,,,,,,,,,,,,,,,,.#**********<<444<**<<4<*#,,,,,,,,,,",
",,,,,,,,,,,,,,,,,,,,,,,,,,,,.########******<444<*<<4<#,,,,,,,,,,",
",,,,,,,,,,,,,,,,,,,,,,,,,,,.####*******<<*##**<<<*<<4*#,,,,,,,,,",
",,,,,,,,,,,,,,,,,,,,,,,,,,,.##******<<444<*####*<<*<<*#,,,,,,,,,",
",,,,,,,,,,,,,,,,,,,,,,,,,,.##********<<444<*######**<*#,,,,,,,,,",
",,,,,,,,,,,,,,,,,,,,,,,,,,.#*********###*<<<#....###**#,,,,,,,,,",
",,,,,,,,,,,,,,,,,,,,,,,,,,.#**##****<<<*##**.5555..##*.,,,,,,,,,",
",,,,,,,,,,,,,,,,,,,,,,,,,,.#*##****<<<4<*#...555555.##.,,,,,,,,,",
",,,,,,,,,,,,,,,,,,,,,,,,,,.##.#*******<<*.5555555555#.,,,,,,,,,,",
",,,,,,,,,,,,,,,,,,,,,,,,,, #.#****####**#.33555555553-,,,,,,,,,,",
",,,,,,,,,,,,,,,,,,,,,,,,,, #.#***######*#.33>-===>333-,,,,,,,,,,",
",,,,,,,,,,,,,,,,,,,,,,,,,, ..#**###===##.333>333>>33>-,,,,,,,,,,",
",,,,,,,,,,,,,,,,,,,,,,,,,,, .##*##=->-=#.333>=====33-,,,,,,,,,,,",
",,,,,,,,,,,,,,,,,,,,,,,,,,, .##*##=35>=#.333===  =33-,,,,,,,,,,,",
",,,,,,,,,,,,,,,,,,,,,,,,,,, .##### 35>3..333-22 o>33-,,,,,,,,,,,",
",,,,,,,,,,,,,,,,,,,,,,,,,,, .#.### -3>33.333-26O >33-,,,,,,,,,,,",
",,,,,,,,,,,,,,,,,,,,,,,,,,, ...###. ->333333-26o >55-,,,,,,,,,,,",
",,,,,,,,,,,,,,,,,,,,,,,,,,,, ..###..  333333336&&3553-,,,,,,,,,,",
",,,,,,,,,,,,,,,,,,,,,,,,,,,, ..####..>>33333333555553-,,,,,,,,,,",
",,,,,,,,,,,,,,,,,,,,,,,,,,,,, ##.##..>>3333333335553>-,,,,,,,,,,",
",,,,,,,,,,,,,,,,,,,,,,,,,,,,, #..#..>>>>33333333333> ,,,,,,,,,,,",
",,,,,,,,,,,,,,,,,,,,,,,,,,,,, . #..->>>>>>3333333>- ,,,,,,,,,,,,",
",,,,,,,,,,,,,,,,,,,,,,,,,,,,,  ,  ,   -->>>>>>>--  ,,,,,,,,,,,,,",
",,,,,,,,,,,,,,,,,,,,,,,,,,,,,, , ,,,,=           ,,,,,,,,,,,,,,,",
",,,,,,,,,,,,,,,,,,,,,,,,,,,,,,,,,,,,=>3553>33>>=,,,,,,,,,,,,,,,,",
",,,,,,,,,,,,,,,,,,,,,,,,,,,,,,,,,,,,=>3553>33553=,,,,,,,,,,,,,,,",
",,,,,,,,,,,,,,,,,,,,,,,,,,,,,,,,,,,,=>33>-=>3553=,,,,,,,,,,,,,,,",
",,,,,,,,,,,,,,,,,,,@@@@@@@,,,,,,,,@X=->>>>=>>333=,,,,,,,,,,,,,,,",
",,,,,,,,,,,,,,,X@@@$$;;;$$@@@@@@@@$X> >>>-===>>>=,,,,,,,,,,,,,,,",
",,,,,,,,,,,,,XX $;;;:::::::::::;;$$X>>->>>33>=>=,,,,,,,,,,,,,,,,",
",,,,,,,,,,,,X+ $;;:::::::::::::::;$X>>>->3553>==,,,,,,,,,,,,,,,,",
",,,,,,,,,,,X++ ;;:::::::::::::::::;$;:>>->553-=,,,,,,,,,,,,,,,,,",
",,,,,,,,,,,X% $;;::::11:::::::::::::;;::: >>>>=,,,,,,,,,,,,,,,,,",
",,,,,,,,,,@+% ;;::::11:::;:::::1::::::::::   >=,,,,,,,,,,,,,,,,,",
",,,,,,,,,,@% $;;::::11::;;:::1111:::::::;;;;@@ ,,,,,,,,,,,,,,,,,",
",,,,,,,,,,@% $;;:;:::1:;;;;:::11:::;::::::;$@$ ,,,,,,,,,,,,,,,,,",
",,,,,,,,, +% $;;;;:::1:;;;;;::::::;;;::::::;$$ ,,,,,,,,,,,,,,,,,",
",,,,,,,,, +% $$;;;:::1::$;;;;::::;;;;;::::::;; ,,,,,,,,,,,,,,,,,",
",,,,,,,,, ++ $$;;;;::11:$$;;;;;;;;;;;;:::;;:;; ,,,,,,,,,,,,,,,,,",
",,,,,,,,, ++ @$$;;;::11:@$$$;;;;;;;$;;::1:;;;$ ,,,,,,,,,,,,,,,,,",
",,,,,,,,, ++X $$;$;::::;@$$$$$;;;;$@;;::1:;$$ ,,,,,,,,,,,,,,,,,,",
",,,,,,,,, +XX @$$$;;:::$   @$$$$$$$@$;;:::;@@ ,,,,,,,,,,,,,,,,,,",
",,,,,,,,, +XX  $$$;;::; ,,,   @$$$$ $;;::;$@ ,,,,,,,,,,,,,,,,,,,",
",,,,,,,,, +X 6 $$;;;;;$ ,,,,,,      $$;;;$$ ,,,,,,,,,,,,,,,,,,,,",
",,,,,,,,, +X 6 $;;;;;$ ,,,,,,,,,, @@ $$;;$@,,,,,,,,,,,,,,,,,,,,,",
",,,,,,,,, + , $;;;;$@  ,,,,,,,,,, $$ @;;;@@,,,,,,,,,,,,,,,,,,,,,",
",,,,,,,,,  ,, ;;::@@@@ ,,,,,,,,,, $$@ ;;::@,,,,,,,,,,,,,,,,,,,,,",
",,,,,,,,, ,,, $;::  @$$ ,,,,,,,, @@@@ $;::@,,,,,,,,,,,,,,,,,,,,,",
",,,,,,,,,,,,, $$$$  @$$ ,,,,,,,, @@@   $$$@,,,,,,,,,,,,,,,,,,,,,",
",,,,,,,,,,,,, $;:@6 @@@ ,,,,,,, @@@ ,, $;:@,,,,,,,,,,,,,,,,,,,,,",
",,,,,,,,,,,,, $;:@66 @@@ ,,,,,, @@@ ,,, ;:;@,,,,,,,,,,,,,,,,,,,,",
",,,,,,,,,,,,, $$$$@6 @$$$ ,,,,, @$$$ ,, $$$$@,,,,,,,,,,,,,,,,,,,",
",,,,,,,,,,,,, $;;1:@  $$$ ,,,,,  $$$ ,, $;;1:@,,,,,,,,,,,,,,,,,,",
",,,,,,,,,,,,,,  ;1:@, $$$ ,,,,,, $$$ ,,,  ;1:@,,,,,,,,,,,,,,,,,,",
",,,,,,,,,,,,,,, ;1:@,,,,,,,,,,,,,,,,,,,,, ;1:@,,,,,,,,,,,,,,,,,,",
",,,,,,,,,,,,,,,,,,,,,,,,,,,,,,,,,,,,,,,,,,,,,,,,,,,,,,,,,,,,,,,,"
};
