/* XPM */
static char *centaur_left[] = {
/* columns rows colors chars-per-pixel */
"64 64 25 1 ",
"  c black",
". c gray5",
"X c gray9",
"o c #1D1814",
"O c #0F2631",
"+ c #2A2A2A",
"@ c #402126",
"# c #3B403B",
"$ c #62403C",
"% c #414141",
"& c #615D59",
"* c #616760",
"= c #964B1F",
"- c #B36739",
"; c #855F52",
": c #9F7B60",
"> c #EA9777",
", c #D9C27D",
"< c #8E958D",
"1 c #B49580",
"2 c #AFA992",
"3 c #F9C19D",
"4 c #CCCFCB",
"5 c #FBDCC8",
"6 c white",
/* pixels */
",,,,,,,,,,,,,,,,,,,,,,,,,,,,,,,,,,,,,,,,,,,,,,,,,,,,,,,,,,,,,,,,",
",,,,,,,,,,,,,,,,,,,,,,,,,,#,,,,,,,,,,,,,,,,,,,,,,,,,,,,,,,,,,,,,",
",,,,,,,,,,,,,,,,,,,,,,#####,,,,,,,,,,,,,,,,,,,,,,,,,,,,,,,,,,,,,",
",,,,,,,,,,,,,,,,,#####****......,,,,,,,,,,,,,,,,,,,,,,,,,,,,,,,,",
",,,,,,,,,,,,,,,##*******#####..,,,,,,,,,,,,,,,,,,,,,,,,,,,,,,,,,",
",,,,,,,,,,,,,##*<<<<<<###****##.,,,,,,,,,,,,,,,,,,,,,,,,,,,,,,,,",
",,,,,,,,,,,,#*<444<**#****######..,,,,,,,,,,,,,,,,,,,,,,,,,,,,,,",
",,,,,,,,,,,#*<44<***<<<<<<<****###.,,,,,,,,,,,,,,,,,,,,,,,,,,,,,",
",,,,,,,,,,#*<4<<**<444<<**********#.,,,,,,,,,,,,,,,,,,,,,,,,,,,,",
",,,,,,,,,,#<4<<*<444<******########.,,,,,,,,,,,,,,,,,,,,,,,,,,,,",
",,,,,,,,,#*4<<*<<<**##*<<*******####.,,,,,,,,,,,,,,,,,,,,,,,,,,,",
",,,,,,,,,#*<<*<<*####*<444<<******##.,,,,,,,,,,,,,,,,,,,,,,,,,,,",
",,,,,,,,,#*<**######*<444<<********##.,,,,,,,,,,,,,,,,,,,,,,,,,,",
",,,,,,,,,#**###....#<<<*###*********#.,,,,,,,,,,,,,,,,,,,,,,,,,,",
",,,,,,,,,.*##..5555.**##*<<<****##**#.,,,,,,,,,,,,,,,,,,,,,,,,,,",
",,,,,,,,,.##.555555...#*<4<<<****##*#.,,,,,,,,,,,,,,,,,,,,,,,,,,",
",,,,,,,,,,.#5555555555.*<<*******#.##.,,,,,,,,,,,,,,,,,,,,,,,,,,",
",,,,,,,,,,-35555555533.#**####****#.# ,,,,,,,,,,,,,,,,,,,,,,,,,,",
",,,,,,,,,,-333>===->33.#*######***#.# ,,,,,,,,,,,,,,,,,,,,,,,,,,",
",,,,,,,,,,->33>>333>333.##===###**#.. ,,,,,,,,,,,,,,,,,,,,,,,,,,",
",,,,,,,,,,,-33=====>333.#=->-=##*##. ,,,,,,,,,,,,,,,,,,,,,,,,,,,",
",,,,,,,,,,,-33=  ===333.#=>53=##*##. ,,,,,,,,,,,,,,,,,,,,,,,,,,,",
",,,,,,,,,,,-33>o 22-333..3>53 #####. ,,,,,,,,,,,,,,,,,,,,,,,,,,,",
",,,,,,,,,,,-33> O62-333.33>3- ###.#. ,,,,,,,,,,,,,,,,,,,,,,,,,,,",
",,,,,,,,,,,-55> o62-333333>- .###... ,,,,,,,,,,,,,,,,,,,,,,,,,,,",
",,,,,,,,,,-3553&&633333333  ..###.. ,,,,,,,,,,,,,,,,,,,,,,,,,,,,",
",,,,,,,,,,-35555533333333>>..####.. ,,,,,,,,,,,,,,,,,,,,,,,,,,,,",
",,,,,,,,,,->3555333333333>>..##.## ,,,,,,,,,,,,,,,,,,,,,,,,,,,,,",
",,,,,,,,,,, >33333333333>>>>..#..# ,,,,,,,,,,,,,,,,,,,,,,,,,,,,,",
",,,,,,,,,,,, ->3333333>>>>>>-..# . ,,,,,,,,,,,,,,,,,,,,,,,,,,,,,",
",,,,,,,,,,,,,  -->>>>>>>--   ,  ,  ,,,,,,,,,,,,,,,,,,,,,,,,,,,,,",
",,,,,,,,,,,,,,,           =,,,, , ,,,,,,,,,,,,,,,,,,,,,,,,,,,,,,",
",,,,,,,,,,,,,,,,=>>33>3553>=,,,,,,,,,,,,,,,,,,,,,,,,,,,,,,,,,,,,",
",,,,,,,,,,,,,,,=35533>3553>=,,,,,,,,,,,,,,,,,,,,,,,,,,,,,,,,,,,,",
",,,,,,,,,,,,,,,=3553>=->33>=,,,,,,,,,,,,,,,,,,,,,,,,,,,,,,,,,,,,",
",,,,,,,,,,,,,,,=333>>=>>>>-=X@,,,,,,,,@@@@@@@,,,,,,,,,,,,,,,,,,,",
",,,,,,,,,,,,,,,=>>>===->>> >X$@@@@@@@@$$;;;$$@@@X,,,,,,,,,,,,,,,",
",,,,,,,,,,,,,,,,=>=>33>>>->>X$$;;:::::::::::;;;$ XX,,,,,,,,,,,,,",
",,,,,,,,,,,,,,,,==>3553>->>>X$;:::::::::::::::;;$ +X,,,,,,,,,,,,",
",,,,,,,,,,,,,,,,,=-355>->>:;$;:::::::::::::::::;; ++X,,,,,,,,,,,",
",,,,,,,,,,,,,,,,,=>>>> :::;;:::::::::::::11::::;;$ %X,,,,,,,,,,,",
",,,,,,,,,,,,,,,,,=>   ::::::::::1:::::;:::11::::;; %+@,,,,,,,,,,",
",,,,,,,,,,,,,,,,, @@;;;;:::::::1111:::;;::11::::;;$ %@,,,,,,,,,,",
",,,,,,,,,,,,,,,,, $@$;::::::;:::11:::;;;;:1:::;:;;$ %@,,,,,,,,,,",
",,,,,,,,,,,,,,,,, $$;::::::;;;::::::;;;;;:1:::;;;;$ %+ ,,,,,,,,,",
",,,,,,,,,,,,,,,,, ;;::::::;;;;;::::;;;;$::1:::;;;$$ %+ ,,,,,,,,,",
",,,,,,,,,,,,,,,,, ;;:;;:::;;;;;;;;;;;;$$:11::;;;;$$ ++ ,,,,,,,,,",
",,,,,,,,,,,,,,,,, $;;;:1::;;$;;;;;;;$$$@:11::;;;$$@ ++ ,,,,,,,,,",
",,,,,,,,,,,,,,,,,, $$;:1::;;@$;;;;$$$$$@;::::;$;$$ X++ ,,,,,,,,,",
",,,,,,,,,,,,,,,,,, @@;:::;;$@$$$$$$$@   $:::;;$$$@ XX+ ,,,,,,,,,",
",,,,,,,,,,,,,,,,,,, @$;::;;$ $$$$@   ,,, ;::;;$$$  XX+ ,,,,,,,,,",
",,,,,,,,,,,,,,,,,,,, $$;;;$$      ,,,,,, $;;;;;$$ 6 X+ ,,,,,,,,,",
",,,,,,,,,,,,,,,,,,,,,@$;;$$ @@ ,,,,,,,,,, $;;;;;$ 6 X+ ,,,,,,,,,",
",,,,,,,,,,,,,,,,,,,,,@@;;;@ $$ ,,,,,,,,,,  @$;;;;$ , + ,,,,,,,,,",
",,,,,,,,,,,,,,,,,,,,,@::;; @$$ ,,,,,,,,,, @@@@::;; ,,  ,,,,,,,,,",
",,,,,,,,,,,,,,,,,,,,,@::;$ @@@@ ,,,,,,,, $$@  ::;$ ,,, ,,,,,,,,,",
",,,,,,,,,,,,,,,,,,,,,@$$$   @@@ ,,,,,,,, $$@  $$$$ ,,,,,,,,,,,,,",
",,,,,,,,,,,,,,,,,,,,,@:;$ ,, @@@ ,,,,,,, @@@ 6@:;$ ,,,,,,,,,,,,,",
",,,,,,,,,,,,,,,,,,,,@;:; ,,, @@@ ,,,,,, @@@ 66@:;$ ,,,,,,,,,,,,,",
",,,,,,,,,,,,,,,,,,,@$$$$ ,, $$$@ ,,,,, $$$@ 6@$$$$ ,,,,,,,,,,,,,",
",,,,,,,,,,,,,,,,,,@:1;;$ ,, $$$  ,,,,, $$$  @:1;;$ ,,,,,,,,,,,,,",
",,,,,,,,,,,,,,,,,,@:1;  ,,, $$$ ,,,,,, $$$ ,@:1;  ,,,,,,,,,,,,,,",
",,,,,,,,,,,,,,,,,,@:1; ,,,,,,,,,,,,,,,,,,,,,@:1; ,,,,,,,,,,,,,,,",
",,,,,,,,,,,,,,,,,,,,,,,,,,,,,,,,,,,,,,,,,,,,,,,,,,,,,,,,,,,,,,,,"
};
