/* XPM */
static char *fire[] = {
/* columns rows colors chars-per-pixel */
"64 64 152 2 ",
"   c #E32D09",
".  c #E5330A",
"X  c #E73909",
"o  c #E93D09",
"O  c #E43512",
"+  c #E43A14",
"@  c #E93A13",
"#  c #E43D1A",
"$  c #EF4D07",
"%  c #EB4409",
"&  c #EE4B09",
"*  c #F55C07",
"=  c #F15408",
"-  c #F45B08",
";  c #ED4216",
":  c #E3421E",
">  c #EC4019",
",  c #EF5916",
"<  c #F25117",
"1  c #FA6C07",
"2  c #F66308",
"3  c #F86609",
"4  c #F6690A",
"5  c #FA6D08",
"6  c #FE7507",
"7  c #FF7B07",
"8  c #FC7409",
"9  c #FF7B08",
"0  c #EF611F",
"q  c #FE7612",
"w  c #FD7A14",
"e  c #FF731B",
"r  c #FF7A1C",
"t  c #E24521",
"y  c #E34A25",
"u  c #EF4E25",
"i  c #E24D29",
"p  c #F34D22",
"a  c #E2532D",
"s  c #F35222",
"d  c #F8572C",
"f  c #FA5B2D",
"g  c #E25730",
"h  c #E15C34",
"j  c #FB5D30",
"k  c #EF6121",
"l  c #FC6326",
"z  c #FF6D24",
"x  c #FD642D",
"c  c #FF7022",
"v  c #E16037",
"b  c #E16339",
"n  c #FE6333",
"m  c #FF6B33",
"M  c #FF7936",
"N  c #DF7648",
"B  c #DF7C4C",
"V  c #E16D41",
"C  c #E07345",
"Z  c #EE7947",
"A  c #E07A4B",
"S  c #FF830A",
"D  c #FF8B0A",
"F  c #FF940B",
"G  c #FF9E0C",
"H  c #FF8314",
"J  c #FF8A1A",
"K  c #FF9212",
"L  c #FF9D1D",
"P  c #FFA40C",
"I  c #FFAA0D",
"U  c #FFB50F",
"Y  c #FFBC0F",
"T  c #FFAD16",
"R  c #FFA21D",
"E  c #FFB116",
"W  c #F48321",
"Q  c #FF9226",
"!  c #FF9F33",
"~  c #FFA423",
"^  c #FFAF2B",
"/  c #FFB42B",
"(  c #FFA937",
")  c #FFAB3C",
"_  c #FDB437",
"`  c #FDBB34",
"'  c #FDBC3C",
"]  c #FFC30F",
"[  c #FFC80E",
"{  c #FFC610",
"}  c #FFCB11",
"|  c #FFC41C",
" . c #FFD212",
".. c #FFDB12",
"X. c #FFD81A",
"o. c #FFE513",
"O. c #FFED14",
"+. c #FFE51E",
"@. c #FFEC18",
"#. c #FFF014",
"$. c #FFF11B",
"%. c #FFC521",
"&. c #FFC921",
"*. c #FFDC2B",
"=. c #FFC436",
"-. c #FFC934",
";. c #FFD633",
":. c #FFD33A",
">. c #FFD839",
",. c #FFE522",
"<. c #FFE820",
"1. c #FFED2E",
"2. c #FFF225",
"3. c #FFE931",
"4. c #FFEF3A",
"5. c #FFF733",
"6. c #FFF13C",
"7. c #DF8552",
"8. c #DF8B56",
"9. c #DE8F59",
"0. c #DE955D",
"q. c #DE985F",
"w. c #EB8450",
"e. c #E18F59",
"r. c #F39058",
"t. c #FFAD42",
"y. c #FFB143",
"u. c #FFBD4E",
"i. c #FFBA53",
"p. c #DD9B62",
"a. c #DDA266",
"s. c #DCA569",
"d. c #DCAC6D",
"f. c #DBAF70",
"g. c #DBB373",
"h. c #DAB977",
"j. c #DABC79",
"k. c #E1A264",
"l. c #E8AB64",
"z. c #E8B864",
"x. c #FFC545",
"c. c #FFD440",
"v. c #FFDC46",
"b. c #FFD34A",
"n. c #FFED42",
"m. c #FFEC4E",
"M. c #FFFB4F",
"N. c #FFF556",
"B. c #FFFD52",
"V. c #FFFF59",
"C. c #D9C27D",
"Z. c #E8CB65",
/* pixels */
"C.C.C.C.C.C.C.C.C.C.C.C.C.C.C.C.C.C.C.C.C.C.C.C.C.C.C.C.C.C.C.C.C.C.C.C.C.C.C.C.C.C.C.C.C.C.C.C.C.C.C.C.C.C.C.C.C.C.C.C.C.C.C.C.",
"C.C.C.C.C.C.C.C.C.C.C.C.C.C.C.C.C.C.C.C.C.C.C.C.C.C.C.C.C.C.C.C.C.C.C.C.C.C.C.C.C.C.C.C.C.C.C.C.C.C.C.C.C.C.C.C.C.C.C.C.C.C.C.C.",
"C.C.C.C.C.C.C.C.C.C.C.C.C.C.C.C.C.C.C.C.C.C.C.C.C.C.C.C.C.C.C.C.C.C.C.C.C.C.C.C.C.C.C.C.C.C.C.C.C.C.C.C.C.C.C.C.C.C.C.C.C.C.C.C.",
"C.C.C.C.C.C.C.C.C.C.C.C.C.C.C.C.C.C.C.C.C.C.C.C.C.C.C.C.C.C.C.C.C.C.C.C.C.C.C.C.C.C.C.C.C.C.C.C.C.C.C.C.C.C.C.C.C.C.C.C.C.C.C.C.",
"C.C.C.C.C.C.C.C.C.C.C.C.C.C.C.C.C.C.C.C.C.C.C.C.C.C.C.C.C.C.C.C.C.C.C.C.C.C.C.C.C.C.C.C.C.C.C.C.C.C.C.C.C.C.C.C.C.C.C.C.C.C.C.C.",
"C.C.C.C.C.C.C.C.C.C.C.C.C.C.C.C.C.C.C.C.C.C.C.C.C.C.C.C.C.C.C.C.C.C.C.C.C.C.C.C.C.C.C.C.C.C.C.C.C.C.C.C.C.C.C.C.C.C.C.C.C.C.C.C.",
"C.C.C.C.C.C.C.C.C.C.C.C.C.C.C.C.C.C.C.C.C.C.C.C.C.C.C.C.C.C.C.C.C.C.C.C.C.C.C.C.C.C.C.C.C.C.C.C.C.C.C.C.C.C.C.C.C.C.C.C.C.C.C.C.",
"C.C.C.C.C.C.C.C.C.C.C.C.C.C.C.C.C.C.C.C.C.C.C.C.C.C.C.C.C.C.C.C.C.C.C.C.C.C.C.C.C.C.C.C.C.C.C.C.C.C.C.C.C.C.C.C.C.C.C.C.C.C.C.C.",
"C.C.C.C.C.C.C.C.C.C.C.C.C.C.C.C.C.C.C.C.C.g.g.C.C.C.C.C.C.C.C.C.C.C.C.C.C.C.C.C.C.C.C.C.C.C.C.C.C.C.C.C.C.C.C.C.C.C.C.C.C.C.C.C.",
"C.C.C.C.C.C.C.C.C.C.C.C.C.C.C.C.C.C.C.C.C.8.0.C.C.C.C.C.C.C.C.C.C.C.C.C.C.C.C.C.C.C.C.C.C.C.C.C.C.C.C.C.C.C.C.C.C.C.C.C.C.C.C.C.",
"C.C.C.C.C.C.C.C.C.C.C.C.C.C.C.C.C.C.C.C.C.j.j.C.C.C.C.C.C.C.C.C.C.C.C.C.C.C.C.C.C.C.C.C.C.C.C.C.C.C.C.C.C.C.C.C.C.C.C.C.C.C.C.C.",
"C.C.C.C.C.C.C.C.C.C.C.C.C.C.C.C.C.C.C.C.C.C.C.C.C.C.C.C.C.C.C.C.C.C.C.C.C.C.C.C.C.C.C.C.C.C.C.C.C.C.C.C.C.C.C.C.C.C.C.C.C.C.C.C.",
"C.C.C.C.C.C.C.C.C.C.C.C.C.C.C.C.C.C.C.C.C.C.s.9.C.C.C.C.C.C.C.C.C.C.C.C.C.C.C.C.C.C.C.C.C.C.C.C.C.C.C.C.C.C.C.C.C.C.C.C.C.C.C.C.",
"C.C.C.C.C.C.C.C.C.C.C.C.C.C.C.C.C.C.C.C.C.C.p.t 9.h.C.C.C.C.C.C.C.C.C.C.C.C.C.C.C.C.C.C.C.C.C.C.C.C.C.C.C.C.C.C.C.C.C.C.C.C.C.C.",
"C.C.C.C.C.C.C.C.C.C.C.C.C.C.C.C.C.C.C.C.C.C.d.N # 0.h.C.C.C.C.C.C.C.C.C.C.C.C.C.C.C.C.C.C.C.C.C.C.C.C.C.C.C.C.C.C.C.C.C.C.C.C.C.",
"C.C.C.C.C.C.C.C.C.C.C.C.C.C.C.C.C.C.C.C.C.C.C.d.: @ e.d.g.C.C.C.C.C.C.C.C.C.C.C.C.C.C.C.C.C.C.C.C.C.C.C.C.C.C.C.C.C.C.C.C.C.C.C.",
"C.C.C.C.C.C.C.C.C.C.C.C.C.C.C.C.C.C.C.C.C.C.C.f.t f u # b g.h.C.C.C.C.C.C.C.C.C.C.C.C.C.C.C.C.C.C.C.C.C.C.C.C.C.C.C.C.C.C.C.C.C.",
"C.C.C.C.C.C.C.C.C.C.C.C.C.C.C.C.C.C.C.C.C.C.C.f.t f m s + a i s.C.C.C.C.C.C.C.C.C.C.C.C.C.C.C.C.C.C.C.C.C.C.C.C.C.C.C.C.C.C.C.C.",
"C.C.C.C.C.C.C.C.C.C.C.C.C.C.C.C.C.C.C.C.C.C.C.f.: 4 ' _ 5 3 X p.C.C.C.C.C.C.C.C.C.C.C.C.C.C.C.C.C.C.C.C.C.C.C.C.C.C.C.C.C.C.C.C.",
"C.C.C.C.C.C.C.C.C.C.C.C.C.C.C.C.C.C.C.C.C.C.C.f.: % ' N.=.9 X b C e.C.C.C.C.C.C.C.C.C.C.C.C.C.C.C.C.C.C.C.C.C.C.C.C.C.C.C.C.C.C.",
"C.C.C.C.C.C.C.C.C.C.C.C.C.C.C.C.C.C.C.C.C.C.C.f.#   W ;.1.Y 4 o   t 8.j.C.C.C.C.C.C.C.C.C.C.C.C.C.C.C.C.C.C.C.C.C.C.C.C.C.C.C.C.",
"C.C.C.C.C.C.C.C.C.C.C.C.C.C.C.C.C.C.C.C.C.C.C.h.7.t - F } 1.K * o   O 9.h.C.C.C.C.C.C.j.p.h.C.C.C.C.C.C.C.C.C.C.C.C.C.C.C.C.C.C.",
"C.C.C.C.C.C.C.C.C.C.C.C.C.C.C.C.C.C.C.C.C.C.C.C.j.v = 5 K n.T S 2 o     p.C.C.C.C.C.C.j.B h.C.C.C.C.C.C.C.C.C.C.C.C.C.C.C.C.C.C.",
"C.C.C.C.C.C.C.C.C.C.C.C.C.C.C.C.C.C.C.C.C.C.C.C.f.h   & F @.O.E S 4 O a a.C.C.C.C.C.C.g.g.C.C.C.C.C.C.C.C.C.C.C.C.C.C.C.C.C.C.C.",
"C.C.C.C.C.C.C.C.C.C.C.C.C.C.C.C.C.C.C.C.C.C.C.d.g O   & F o.#.-.! 3 t s.C.C.C.C.C.C.s.i g g.C.C.C.C.C.C.C.C.C.C.C.C.C.C.C.C.C.C.",
"C.C.C.C.C.C.C.C.C.C.C.C.C.C.C.C.C.C.C.C.C.C.a.g .     k ' @.#.E 4 . t f.C.C.C.C.C.C.a.  # d.C.C.C.C.C.C.C.C.C.C.C.C.C.C.C.C.C.C.",
"C.C.C.C.C.C.C.C.C.C.C.C.C.C.C.C.C.C.C.C.C.0.h . . = 2 q R o.#.I -   t f.C.C.C.C.C.C.k.  # f.C.C.C.C.C.C.C.C.C.C.C.C.C.C.C.C.C.C.",
"C.C.C.C.C.C.C.C.C.C.C.C.C.C.C.C.C.C.C.C.C.B   . - 8 P Y [ O.O.I -   t f.C.C.C.C.C.s.C   O A f.C.C.C.C.C.C.C.C.C.C.C.C.C.C.C.C.C.",
"C.C.C.C.C.C.C.C.C.C.C.C.C.C.C.C.C.C.C.C.C.a.V o 8 9 { #.#.#.#.I -   t f.C.C.C.C.C.8.O @     q.C.C.C.C.C.C.C.C.C.C.C.C.C.C.C.C.C.",
"C.C.C.C.C.C.C.C.C.C.C.C.C.C.C.C.C.C.C.C.d.d.7.o 9 9 { #.o. .} F &   # f.C.C.C.d.d.C ; l >   p.C.C.C.C.g.f.C.C.C.C.C.C.C.C.C.C.C.",
"C.C.C.C.C.C.C.C.C.C.C.C.C.C.C.C.C.C.C.j.b O O o 4 7 [ o.} S S &   + v h.j.g.s.i + O = q n @ 0.C.C.C.C.0.8.C.C.C.C.C.C.C.C.C.C.C.",
"C.C.C.C.C.C.C.C.C.C.C.C.C.C.C.C.C.C.C.h.h     . % 4 [ [ S 9 7 &   v g.j.w.y y .   - 9 8 x @ p.C.C.j.j.j.C.C.C.C.C.C.C.C.C.C.C.C.",
"C.C.C.C.C.C.C.C.C.C.C.C.p.7.C.C.C.C.C.h.h   & 4 8 7 [ ] 7 9 7 &   # v v t % 5 8 5 9 9 8 @ . p.C.g.V h p.C.C.C.C.C.C.C.C.C.C.C.C.",
"C.C.C.C.C.C.C.C.C.C.C.C.h.d.j.7.d.C.C.j.v   $ H ( | o.] 9 9 9 &           % D } >.~ 9 5 + p.0.C V O   0.C.C.C.C.C.C.C.C.C.C.C.C.",
"C.C.C.C.C.C.C.C.C.C.C.C.C.h.7.: N a.C.j.v   $ J u.+.#...U 7 9 3 %         % K 6.V./ 1 & + N b       8.g.C.C.C.C.C.C.C.C.C.C.C.C.",
"C.C.C.C.C.C.C.C.C.C.C.C.j.d.# > . 8.j.0.y   , ! u.+.#.#.o.I S 9 -         % K 4.:.L -           : 7.h.C.C.C.C.C.C.C.C.C.C.C.C.C.",
"C.C.C.C.C.C.C.C.C.C.C.C.C.d.: j > A 0.O     0 ) ) +.#.#.#.O.D 6 2 % % . X 2 P [ D 5 =         i 7.j.C.C.C.C.C.C.C.C.C.C.C.C.C.C.",
"C.C.C.C.C.C.C.C.C.C.C.C.C.d.@ j u O +       $ 8 S [ ..o.#.o.P F K D 8 X = I ..S 5 &     O     A C.C.C.C.C.C.C.C.C.C.C.C.C.C.C.C.",
"C.C.C.C.C.C.C.C.C.C.C.C.C.d.# f j j d         % 8 7 S I o.O.O.6.6.X.S % - I ..S %     O f @   A C.C.C.C.C.C.C.C.C.C.C.C.C.C.C.C.",
"C.C.C.C.C.C.C.C.C.C.C.C.C.d.t # @ p f .         X X 2 S P o.O.$.5.m.y.w 8 P ..S %     O j @   A C.C.C.C.C.C.C.C.C.C.C.C.C.C.C.C.",
"C.C.C.C.C.C.C.C.C.C.C.C.C.j.d.s.Z j x 3 3 3 &     - 8 9 S G ..#.$.3.u.t.J I ..S 3 2 3 4 n @   A C.C.C.C.C.C.C.C.C.C.C.C.C.C.C.C.",
"C.C.C.C.C.C.C.C.C.C.C.C.C.C.C.C.r.f < 9 9 9 5 - - 9 7 9 7 S ..#.#.+.u.i.Q P ..S 7 7 w z n @   N C.C.C.C.C.C.C.C.C.C.C.C.C.C.C.C.",
"C.C.C.C.C.C.C.C.C.C.C.a.d.j.p.j.w.@ o 9 7 ~ L 9 7 7 7 7 9 S ..#.#.<.u.i./ } ..r c 8 w z z o   N C.C.C.C.C.C.C.C.C.C.C.C.C.C.C.C.",
"C.C.C.C.C.C.C.C.C.C.C.0.p.d.i p.8.v X 3 9 c.v.R G G S 7 9 S  .#.O.+.i.i.*.#.X.m n e 8 3 2 X h p.C.f.j.C.C.C.C.C.C.C.C.C.C.C.C.C.",
"C.C.C.C.C.C.C.C.C.C.C.C.C.g.b # 0.8.  . 2 ` N.M.2.o.E D 7 S ..#.#.+.x.x.*.o.%.m m e - .     8.g.a.a f.j.C.C.C.C.C.C.C.C.C.C.C.C.",
"C.C.C.C.C.C.C.C.C.C.C.C.C.C.h.b t # . . . 4 / N.B.2.O.] S S  .O.O.#.@.@.#.%.M m q 9 -       # i h g f.C.C.C.C.C.C.C.C.C.C.C.C.C.",
"C.C.C.C.C.C.C.C.C.C.C.C.C.C.C.h.B   o 3 5 9 S ~ N.B.2.O.[ S D } #.O.#.#.#.3.b.w 9 -     + # O N g.h.C.C.C.C.C.C.C.C.C.C.C.C.C.C.",
"C.C.C.C.C.C.C.C.C.C.C.C.C.C.C.C.g.7.. % 8 9 9 S ~ ,.$.O.O. .} o.#.#.O.#.5.B.m.D 9 &   g s.d.s.g.C.C.C.C.C.C.C.C.C.C.C.C.C.C.C.C.",
"C.C.C.C.C.C.C.C.C.C.C.C.C.C.C.C.C.g.8.O % & & - 9 P P { #.#.#.#.O.#.O.#.&.^ ~ 9 9 &   h j.C.C.C.C.C.C.C.C.C.C.C.C.C.C.C.C.C.C.C.",
"C.C.C.C.C.C.C.C.C.C.C.C.C.C.C.C.C.C.j.9.9.g   . - 5 9 I #.#.#.O.#.O.#.#.I 7 7 7 2 o   h j.C.C.C.C.C.C.C.C.C.C.C.C.C.C.C.C.C.C.C.",
"C.C.C.C.C.C.C.C.C.C.C.C.C.C.C.C.C.C.C.C.C.p.h   . 5 9 F  .#.#.O.O.#.O.#.I 7 6 2 . b N 8.C.C.C.C.C.C.C.C.C.C.C.C.C.C.C.C.C.C.C.C.",
"C.C.C.C.C.C.C.C.C.C.C.C.C.C.C.C.C.C.C.C.C.C.a.g . 2 1 8 D  .O.#.#.O.O.#.I 8 2 .   p.C.C.C.C.C.C.C.C.C.C.C.C.C.C.C.C.C.C.C.C.C.C.",
"C.C.C.C.C.C.C.C.C.C.C.C.C.C.C.C.C.C.C.C.C.C.C.d.g O . & 9 D } O.O.#.O.o.P * + i i p.C.C.C.C.C.C.C.C.C.C.C.C.C.C.C.C.C.C.C.C.C.C.",
"C.C.C.C.C.C.C.C.C.C.C.C.C.C.C.C.C.C.C.C.C.C.C.C.g.b   & 9 7 D { O.#.o.P S * h f.g.C.C.C.C.C.C.C.C.C.C.C.C.C.C.C.C.C.C.C.C.C.C.C.",
"C.C.C.C.C.C.C.C.C.C.C.C.C.C.C.C.C.C.C.C.C.C.C.C.C.d.N . & 6 7 D Y o.G 9 - . b j.C.C.C.C.C.C.C.C.C.C.C.C.C.C.C.C.C.C.C.C.C.C.C.C.",
"C.C.C.C.C.C.C.C.C.C.C.C.C.C.C.C.C.C.C.C.C.C.C.C.C.C.d.p.a.l.l.l.z.Z.l.l.k.a.s.C.C.C.C.C.C.C.C.C.C.C.C.C.C.C.C.C.C.C.C.C.C.C.C.C.",
"C.C.C.C.C.C.C.C.C.C.C.C.C.C.C.C.C.C.C.C.C.C.C.C.C.C.C.C.C.C.C.C.C.C.C.C.C.C.C.C.C.C.C.C.C.C.C.C.C.C.C.C.C.C.C.C.C.C.C.C.C.C.C.C.",
"C.C.C.C.C.C.C.C.C.C.C.C.C.C.C.C.C.C.C.C.C.C.C.C.C.C.C.C.C.C.C.C.C.C.C.C.C.C.C.C.C.C.C.C.C.C.C.C.C.C.C.C.C.C.C.C.C.C.C.C.C.C.C.C.",
"C.C.C.C.C.C.C.C.C.C.C.C.C.C.C.C.C.C.C.C.C.C.C.C.C.C.C.C.C.C.C.C.C.C.C.C.C.C.C.C.C.C.C.C.C.C.C.C.C.C.C.C.C.C.C.C.C.C.C.C.C.C.C.C.",
"C.C.C.C.C.C.C.C.C.C.C.C.C.C.C.C.C.C.C.C.C.C.C.C.C.C.C.C.C.C.C.C.C.C.C.C.C.C.C.C.C.C.C.C.C.C.C.C.C.C.C.C.C.C.C.C.C.C.C.C.C.C.C.C.",
"C.C.C.C.C.C.C.C.C.C.C.C.C.C.C.C.C.C.C.C.C.C.C.C.C.C.C.C.C.C.C.C.C.C.C.C.C.C.C.C.C.C.C.C.C.C.C.C.C.C.C.C.C.C.C.C.C.C.C.C.C.C.C.C.",
"C.C.C.C.C.C.C.C.C.C.C.C.C.C.C.C.C.C.C.C.C.C.C.C.C.C.C.C.C.C.C.C.C.C.C.C.C.C.C.C.C.C.C.C.C.C.C.C.C.C.C.C.C.C.C.C.C.C.C.C.C.C.C.C.",
"C.C.C.C.C.C.C.C.C.C.C.C.C.C.C.C.C.C.C.C.C.C.C.C.C.C.C.C.C.C.C.C.C.C.C.C.C.C.C.C.C.C.C.C.C.C.C.C.C.C.C.C.C.C.C.C.C.C.C.C.C.C.C.C.",
"C.C.C.C.C.C.C.C.C.C.C.C.C.C.C.C.C.C.C.C.C.C.C.C.C.C.C.C.C.C.C.C.C.C.C.C.C.C.C.C.C.C.C.C.C.C.C.C.C.C.C.C.C.C.C.C.C.C.C.C.C.C.C.C."
};
