/* XPM */
static char *fire2[] = {
/* columns rows colors chars-per-pixel */
"64 64 120 2 ",
"   c #E93D09",
".  c #EA3C10",
"X  c #EF4D07",
"o  c #EB4409",
"O  c #EE4B09",
"+  c #F55C07",
"@  c #F15408",
"#  c #F35908",
"$  c #ED4216",
"%  c #EC4019",
"&  c #EF5916",
"*  c #F25117",
"=  c #FA6C07",
"-  c #F66308",
";  c #F86609",
":  c #F6690A",
">  c #FA6D08",
",  c #FE7507",
"<  c #FF7B07",
"1  c #FC7409",
"2  c #FF7B08",
"3  c #EF611F",
"4  c #F66811",
"5  c #FE7612",
"6  c #FD7A14",
"7  c #FF731B",
"8  c #FF7A1C",
"9  c #EF4E25",
"0  c #F34D22",
"q  c #F75529",
"w  c #F8572C",
"e  c #FA5B2D",
"r  c #FB5D30",
"t  c #EF6121",
"y  c #FC6326",
"u  c #FF6D24",
"i  c #FD642D",
"p  c #FF7022",
"a  c #FE6333",
"s  c #FF6B33",
"d  c #FF7936",
"f  c #EE7947",
"g  c #FF830A",
"h  c #FF8B0A",
"j  c #FF940B",
"k  c #FF9E0C",
"l  c #FF8314",
"z  c #FF8A1A",
"x  c #FF9212",
"c  c #FF9D1D",
"v  c #FFA40C",
"b  c #FFAA0D",
"n  c #FFB50F",
"m  c #FFBC0F",
"M  c #FFAD16",
"N  c #FFA21D",
"B  c #FFB116",
"V  c #F48321",
"C  c #FF9226",
"Z  c #FF9F33",
"A  c #FFA423",
"S  c #FFB42B",
"D  c #FFA937",
"F  c #FFAB3C",
"G  c #FDB437",
"H  c #FDBB34",
"J  c #FDBC3C",
"K  c #FFC30F",
"L  c #FFC80E",
"P  c #FFC610",
"I  c #FFCB11",
"U  c #FFC41C",
"Y  c #FFD212",
"T  c #FFDB12",
"R  c #FFD81A",
"E  c #FFE513",
"W  c #FFED14",
"Q  c #FFE51E",
"!  c #FFEC18",
"~  c #FFF014",
"^  c #FFF11B",
"/  c #FFC521",
"(  c #FFC921",
")  c #FFDC2B",
"_  c #FFC436",
"`  c #FFC934",
"'  c #FFD633",
"]  c #FFD33A",
"[  c #FFD839",
"{  c #FFE522",
"}  c #FFE820",
"|  c #FFED2E",
" . c #FFF225",
".. c #FFE931",
"X. c #FFEF3A",
"o. c #FFF733",
"O. c #FFF13C",
"+. c #DF8B56",
"@. c #DE925B",
"#. c #EB8450",
"$. c #F39058",
"%. c #FFAD42",
"&. c #FFB143",
"*. c #FFBD4E",
"=. c #FFBA53",
"-. c #DBB574",
";. c #DABC79",
":. c #E1A264",
">. c #E8AB64",
",. c #E8B864",
"<. c #FFC545",
"1. c #FFDC46",
"2. c #FFD34A",
"3. c #FFED42",
"4. c #FFEC4E",
"5. c #FFF556",
"6. c #FFFD52",
"7. c #FFFF59",
"8. c #D9C27D",
"9. c #E8CB65",
/* pixels */
"8.8.8.8.8.8.8.8.8.8.8.8.8.8.8.8.8.8.8.8.8.8.8.8.8.8.8.8.8.8.8.8.8.8.8.8.8.8.8.8.8.8.8.8.8.8.8.8.8.8.8.8.8.8.8.8.8.8.8.8.8.8.8.8.",
"8.8.8.8.8.8.8.8.8.8.8.8.8.8.8.8.8.8.8.8.8.8.8.8.8.8.8.8.8.8.8.8.8.8.8.8.8.8.8.8.8.8.8.8.8.8.8.8.8.8.8.8.8.8.8.8.8.8.8.8.8.8.8.8.",
"8.8.8.8.8.8.8.8.8.8.8.8.8.8.8.8.8.8.8.8.8.8.8.8.8.8.8.8.8.8.8.8.8.8.8.8.8.8.8.8.8.8.8.8.8.8.8.8.8.8.8.8.8.8.8.8.8.8.8.8.8.8.8.8.",
"8.8.8.8.8.8.8.8.8.8.8.8.8.8.8.8.8.8.8.8.8.8.8.8.8.8.8.8.8.8.8.8.8.8.8.8.8.8.8.8.8.8.8.8.8.8.8.8.8.8.8.8.8.8.8.8.8.8.8.8.8.8.8.8.",
"8.8.8.8.8.8.8.8.8.8.8.8.8.8.8.8.8.8.8.8.8.8.8.8.8.8.8.8.8.8.8.8.8.8.8.8.8.8.8.8.8.8.8.8.8.8.8.8.8.8.8.8.8.8.8.8.8.8.8.8.8.8.8.8.",
"8.8.8.8.8.8.8.8.8.8.8.8.8.8.8.8.8.8.8.8.8.8.8.8.8.8.8.8.8.8.8.8.8.8.8.8.8.8.8.8.8.8.8.8.8.8.8.8.8.8.8.8.8.8.8.8.8.8.8.8.8.8.8.8.",
"8.8.8.8.8.8.8.8.8.8.8.8.8.8.8.8.8.8.8.8.8.8.8.8.8.8.8.8.8.8.8.8.8.8.8.8.8.8.8.8.8.8.8.8.8.8.8.8.8.8.8.8.8.8.8.8.8.8.8.8.8.8.8.8.",
"8.8.8.8.8.8.8.8.8.8.8.8.8.8.8.8.8.8.8.8.8.8.8.8.8.8.8.8.8.8.8.8.8.8.8.8.8.8.8.8.8.8.8.8.8.8.8.8.8.8.8.8.8.8.8.8.8.8.8.8.8.8.8.8.",
"8.8.8.8.8.8.8.8.8.8.8.8.8.8.8.8.8.8.8.8.8.-.-.8.8.8.8.8.8.8.8.8.8.8.8.8.8.8.8.8.8.8.8.8.8.8.8.8.8.8.8.8.8.8.8.8.8.8.8.8.8.8.8.8.",
"8.8.8.8.8.8.8.8.8.8.8.8.8.8.8.8.8.8.8.8.8.+.@.8.8.8.8.8.8.8.8.8.8.8.8.8.8.8.8.8.8.8.8.8.8.8.8.8.8.8.8.8.8.8.8.8.8.8.8.8.8.8.8.8.",
"8.8.8.8.8.8.8.8.8.8.8.8.8.8.8.8.8.8.8.8.8.;.;.8.8.8.8.8.8.8.8.8.8.8.8.8.8.8.8.8.8.8.8.8.8.8.8.8.8.8.8.8.8.8.8.8.8.8.8.8.8.8.8.8.",
"8.8.8.8.8.8.8.8.8.8.8.8.8.8.8.8.8.8.8.8.8.8.8.# 8.8.8.8.8.8.8.8.8.8.8.8.8.8.8.8.8.8.8.8.8.8.8.8.8.8.8.8.8.8.8.8.8.8.8.8.8.8.8.8.",
"8.8.8.8.8.8.8.8.8.8.8.8.8.8.8.8.8.8.8.8.8.8.# # # 8.8.8.8.8.8.8.8.8.8.8.8.8.8.8.8.8.8.8.8.8.8.8.8.8.8.8.8.8.8.8.8.8.8.8.8.8.8.8.",
"8.8.8.8.8.8.8.8.8.8.8.8.8.8.8.8.8.8.8.8.8.8.# # # # 8.8.8.8.8.8.8.8.8.8.8.8.8.8.8.8.8.8.8.8.8.8.8.8.8.8.8.8.8.8.8.8.8.8.8.8.8.8.",
"8.8.8.8.8.8.8.8.8.8.8.8.8.8.8.8.8.8.8.8.8.8.# # # # # 8.8.8.8.8.8.8.8.8.8.8.8.8.8.8.8.8.8.8.8.8.8.8.8.8.8.8.8.8.8.8.8.8.8.8.8.8.",
"8.8.8.8.8.8.8.8.8.8.8.8.8.8.8.8.8.8.8.8.8.8.8.# # # # # # # 8.8.8.8.8.8.8.8.8.8.8.8.8.8.8.8.8.8.8.8.8.8.8.8.8.8.8.8.8.8.8.8.8.8.",
"8.8.8.8.8.8.8.8.8.8.8.8.8.8.8.8.8.8.8.8.8.8.8.# # r 9 # # # # # 8.8.8.8.8.8.8.8.8.8.8.8.8.8.8.8.8.8.8.8.8.8.8.8.8.8.8.8.8.8.8.8.",
"8.8.8.8.8.8.8.8.8.8.8.8.8.8.8.8.8.8.8.8.8.8.8.# # e s 9 # # # # 8.8.8.8.8.8.8.8.8.8.8.8.8.8.8.8.8.8.8.8.8.8.8.8.8.8.8.8.8.8.8.8.",
"8.8.8.8.8.8.8.8.8.8.8.8.8.8.8.8.8.8.8.8.8.8.8.# # 4 J G > : # # 8.# 8.8.8.8.8.8.8.8.8.8.8.8.8.8.8.8.8.8.8.8.8.8.8.8.8.8.8.8.8.8.",
"8.8.8.8.8.8.8.8.8.8.8.8.8.8.8.8.8.8.8.8.8.8.8.# # o J 5._ 2   # # # # 8.8.8.8.8.8.8.8.8.8.8.8.8.8.8.8.8.8.8.8.8.8.8.8.8.8.8.8.8.",
"8.8.8.8.8.8.8.8.8.8.8.8.8.8.8.8.8.8.8.8.8.8.8.# # # V ' | m :   # # # # 8.8.8.8.8.8.8.8.8.8.8.8.8.8.8.8.8.8.8.8.8.8.8.8.8.8.8.8.",
"8.8.8.8.8.8.8.8.8.8.8.8.8.8.8.8.8.8.8.8.8.8.8.# # # + j I | x + o @ # # # 8.8.8.8.8.8.# # # 8.8.8.8.8.8.8.8.8.8.8.8.8.8.8.8.8.8.",
"8.8.8.8.8.8.8.8.8.8.8.8.8.8.8.8.8.8.8.8.8.8.8.8.# # @ > x 3.M g -   # # # 8.8.8.8.8.8.# # # 8.8.8.8.8.8.8.8.8.8.8.8.8.8.8.8.8.8.",
"8.8.8.8.8.8.8.8.8.8.8.8.8.8.8.8.8.8.8.8.8.8.8.# # # # O j ! W M g : # # # 8.8.8.8.8.# # # # 8.8.8.8.8.8.8.8.8.8.8.8.8.8.8.8.8.8.",
"8.8.8.8.8.8.8.8.8.8.8.8.8.8.8.8.8.8.8.8.8.8.# # # # # O j E ~ ` Z ; # # # 8.8.8.8.8.# # # # 8.8.8.8.8.8.8.8.8.8.8.8.8.8.8.8.8.8.",
"8.8.8.8.8.8.8.8.8.8.8.8.8.8.8.8.8.8.8.8.8.8.# # # # # t J W W B 4 # # # 8.8.8.8.8.8.# # # # 8.8.8.8.8.8.8.8.8.8.8.8.8.8.8.8.8.8.",
"8.8.8.8.8.8.8.8.8.8.8.8.8.8.8.8.8.8.8.8.# # # # # # - 5 N W ~ b # # # # 8.8.8.8.8.8.# # # # 8.8.8.8.8.8.8.8.8.8.8.8.8.8.8.8.8.8.",
"8.8.8.8.8.8.8.8.8.8.8.8.8.8.8.8.8.8.8.8.# # # # # 1 v m K W ~ b # # # # 8.8.8.8.8.# # # # # # 8.8.8.8.8.8.8.8.8.8.8.8.8.8.8.8.8.",
"8.8.8.8.8.8.8.8.8.8.8.8.8.8.8.8.8.8.8.8.8.# #   , 2 P ~ ~ ~ ~ b # # # # 8.8.8.8.8.# # % # # # 8.8.8.8.8.8.8.8.8.8.8.8.8.8.8.8.8.",
"8.8.8.8.8.8.8.8.8.8.8.8.8.8.8.8.8.8.8.# # # #   2 2 P ~ W Y I j X # # # 8.8.# # # # $ y . # # 8.8.8.8.# # # 8.8.8.8.8.8.8.8.8.8.",
"8.8.8.8.8.8.8.8.8.8.8.8.8.8.8.8.8.8.8.# # # #   > 1 K W L g 2 O # # # # # # # # # # @ 5 a # # 8.8.8.8.# # # 8.8.8.8.8.8.8.8.8.8.",
"8.8.8.8.8.8.8.8.8.8.8.8.# # # 8.8.8.8.# # # # #   1 I K g 2 2 O # # # # # # # # # # 1 5 i # # 8.# # # # # 8.8.8.8.8.8.8.8.8.8.8.",
"8.8.8.8.8.8.8.8.8.8.8.8.# # # # # 8.8.# # # O > 1 2 L K < 2 2 O # # # # # o > > 1 , 2 1 . # # 8.# # # # 8.8.8.8.8.8.8.8.8.8.8.8.",
"8.8.8.8.8.8.8.8.8.8.8.8.# # # # # 8.8.# # # O l D U E K 2 2 2 O # # # # # O h I [ A 2 > # # # @ # # # # 8.8.8.8.8.8.8.8.8.8.8.8.",
"8.8.8.8.8.8.8.8.8.8.8.8.8.# # # # # 8.# # # O l *.Q ~ T b 2 2 = O # # # # O x O.7.S ; O # # # # # # # # 8.8.8.8.8.8.8.8.8.8.8.8.",
"8.8.8.8.8.8.8.8.8.8.8.8.8.# # % # # # # # # & Z *.Q ~ ~ E b g 2 # # # # # o x X.] c + # # # # # # # # 8.8.8.8.8.8.8.8.8.8.8.8.8.",
"8.8.8.8.8.8.8.8.8.8.8.8.8.# # r % # # # # # 3 F F ! ~ ~ ~ W h 2 - o o # # - v K h > X # # # # # # # 8.8.8.8.8.8.8.8.8.8.8.8.8.8.",
"8.8.8.8.8.8.8.8.8.8.8.8.8.# # r 9 @ # # # # O 1 g L T E ~ E v h x h 1   # v T g 1 O # # # # # # # 8.8.8.8.8.8.8.8.8.8.8.8.8.8.8.",
"8.8.8.8.8.8.8.8.8.8.8.8.8.# # w r i q # # # #   1 2 g b E W W O.X.R g o # b T g o # # # e # # # # 8.8.8.8.8.8.8.8.8.8.8.8.8.8.8.",
"8.8.8.8.8.8.8.8.8.8.8.8.8.# # # # 0 w # # # # # #   - g v E W ^ o.4.&.6 1 b T g   # # # r # # # # 8.8.8.8.8.8.8.8.8.8.8.8.8.8.8.",
"8.8.8.8.8.8.8.8.8.8.8.8.8.# # # f r i ; ; : O # # # 1 2 g k T ~ ^ ..=.%.z v T g : ; ; : a # # # # 8.8.8.8.8.8.8.8.8.8.8.8.8.8.8.",
"8.8.8.8.8.8.8.8.8.8.8.8.8.8.8.8.$.w * 2 2 2 = + + , 2 2 2 g T ~ W Q *.=.C v T g 2 2 6 u a @ # # # 8.8.8.8.8.8.8.8.8.8.8.8.8.8.8.",
"8.8.8.8.8.8.8.8.8.8.# # # # # # #.# # , 2 A c 2 2 < 2 2 2 g T ~ W } *.=.S I T 8 7 5 5 p u   # # # 8.8.8.8.8.8.8.8.8.8.8.8.8.8.8.",
"8.8.8.8.8.8.8.8.8.8.# # # # # # @ # # ; 2 ] 1.N k k h 2 2 g T W ~ } *.=.) ~ R s a 7 1 ; - # # # # # # 8.8.8.8.8.8.8.8.8.8.8.8.8.",
"8.8.8.8.8.8.8.8.8.8.8.# 8.# # # # # # # - H 5.6.} ^ n g < g T ~ ~ Q <.<.) E / s a 7 - # # # # # # # # 8.8.8.8.8.8.8.8.8.8.8.8.8.",
"8.8.8.8.8.8.8.8.8.8.8.8.8.# # # # # # + # : S 5.6. .W m g g Y W ~ W ! ! ~ ( d s 5 2 + # # # # # # # # 8.8.8.8.8.8.8.8.8.8.8.8.8.",
"8.8.8.8.8.8.8.8.8.8.8.8.8.8.# # # # # ; 1 1 2 A 5.6. .W L g h I ~ ~ W ~ ~ ..2.l 2 @ # # # # # # # # # 8.8.8.8.8.8.8.8.8.8.8.8.8.",
"8.8.8.8.8.8.8.8.8.8.8.8.8.8.8.8.# # # o 1 2 2 g A { ^ ~ W Y L E ~ W ~ W o.6.4.g 2 O # # # # # # 8.8.8.8.8.8.8.8.8.8.8.8.8.8.8.8.",
"8.8.8.8.8.8.8.8.8.8.8.8.8.8.8.8.8.# # # o O O # < v v K ~ ~ ~ ~ ~ W ~ W ( S A 2 2 O # # # 8.8.8.8.8.8.8.8.8.8.8.8.8.8.8.8.8.8.8.",
"8.8.8.8.8.8.8.8.8.8.8.8.8.8.8.8.8.8.# # # # # # # > < b ~ W W ~ W ~ W ~ v , 2 2 -   # # # 8.8.8.8.8.8.8.8.8.8.8.8.8.8.8.8.8.8.8.",
"8.8.8.8.8.8.8.8.8.8.8.8.8.8.8.8.8.8.8.8.8.# # # # > 2 k Y W W W ~ W ~ ~ b 2 2 - # # # # # 8.8.8.8.8.8.8.8.8.8.8.8.8.8.8.8.8.8.8.",
"8.8.8.8.8.8.8.8.8.8.8.8.8.8.8.8.8.8.8.8.8.8.# # # + = 1 j Y W W ~ ~ W W M , - # # # 8.# 8.8.8.8.8.8.8.8.8.8.8.8.8.8.8.8.8.8.8.8.",
"8.8.8.8.8.8.8.8.8.8.8.8.8.8.8.8.8.8.8.8.8.8.# # # # # O 2 h Y W W W ~ E v + # # # # 8.8.8.8.8.8.8.8.8.8.8.8.8.8.8.8.8.8.8.8.8.8.",
"8.8.8.8.8.8.8.8.8.8.8.8.8.8.8.8.8.8.8.8.8.8.8.# # # # O 2 2 h P W ~ E v g # # # # # 8.8.8.8.8.8.8.8.8.8.8.8.8.8.8.8.8.8.8.8.8.8.",
"8.8.8.8.8.8.8.8.8.8.8.8.8.8.8.8.8.8.8.8.8.8.8.8.# # # # O , 2 h m E k 2 # # # # 8.8.8.8.8.8.8.8.8.8.8.8.8.8.8.8.8.8.8.8.8.8.8.8.",
"8.8.8.8.8.8.8.8.8.8.8.8.8.8.8.8.8.8.8.8.8.8.8.8.8.8.# # # >.>.>.,.9.>.>.:.# # # 8.8.8.8.8.8.8.8.8.8.8.8.8.8.8.8.8.8.8.8.8.8.8.8.",
"8.8.8.8.8.8.8.8.8.8.8.8.8.8.8.8.8.8.8.8.8.8.8.8.8.8.8.8.8.8.8.8.8.8.8.8.8.8.8.8.8.8.8.8.8.8.8.8.8.8.8.8.8.8.8.8.8.8.8.8.8.8.8.8.",
"8.8.8.8.8.8.8.8.8.8.8.8.8.8.8.8.8.8.8.8.8.8.8.8.8.8.8.8.8.8.8.8.8.8.8.8.8.8.8.8.8.8.8.8.8.8.8.8.8.8.8.8.8.8.8.8.8.8.8.8.8.8.8.8.",
"8.8.8.8.8.8.8.8.8.8.8.8.8.8.8.8.8.8.8.8.8.8.8.8.8.8.8.8.8.8.8.8.8.8.8.8.8.8.8.8.8.8.8.8.8.8.8.8.8.8.8.8.8.8.8.8.8.8.8.8.8.8.8.8.",
"8.8.8.8.8.8.8.8.8.8.8.8.8.8.8.8.8.8.8.8.8.8.8.8.8.8.8.8.8.8.8.8.8.8.8.8.8.8.8.8.8.8.8.8.8.8.8.8.8.8.8.8.8.8.8.8.8.8.8.8.8.8.8.8.",
"8.8.8.8.8.8.8.8.8.8.8.8.8.8.8.8.8.8.8.8.8.8.8.8.8.8.8.8.8.8.8.8.8.8.8.8.8.8.8.8.8.8.8.8.8.8.8.8.8.8.8.8.8.8.8.8.8.8.8.8.8.8.8.8.",
"8.8.8.8.8.8.8.8.8.8.8.8.8.8.8.8.8.8.8.8.8.8.8.8.8.8.8.8.8.8.8.8.8.8.8.8.8.8.8.8.8.8.8.8.8.8.8.8.8.8.8.8.8.8.8.8.8.8.8.8.8.8.8.8.",
"8.8.8.8.8.8.8.8.8.8.8.8.8.8.8.8.8.8.8.8.8.8.8.8.8.8.8.8.8.8.8.8.8.8.8.8.8.8.8.8.8.8.8.8.8.8.8.8.8.8.8.8.8.8.8.8.8.8.8.8.8.8.8.8.",
"8.8.8.8.8.8.8.8.8.8.8.8.8.8.8.8.8.8.8.8.8.8.8.8.8.8.8.8.8.8.8.8.8.8.8.8.8.8.8.8.8.8.8.8.8.8.8.8.8.8.8.8.8.8.8.8.8.8.8.8.8.8.8.8."
};
