/* XPM */
static char *a9031a2bf36147bfbe6e1da99397a571IjMLYYXaacbtzPTj[] = {
/* columns rows colors chars-per-pixel */
"50 50 194 2 ",
"   c #030202",
".  c #0A0605",
"X  c #0D0A07",
"o  c #0C0A0A",
"O  c #130C0A",
"+  c #180F0C",
"@  c #0E1209",
"#  c #12140B",
"$  c #1A110D",
"%  c #151A0D",
"&  c #121111",
"*  c #1B1513",
"=  c #161911",
"-  c #1B1A16",
";  c #1E1B19",
":  c #221611",
">  c #231A13",
",  c #2A1A15",
"<  c #221D1B",
"1  c #301E18",
"2  c #1E2513",
"3  c #242A17",
"4  c #24211C",
"5  c #29221C",
"6  c #2B2C1B",
"7  c #35231A",
"8  c #3D281E",
"9  c #2A331A",
"0  c #2F3C1C",
"q  c #323F1F",
"w  c #252423",
"e  c #2A2623",
"r  c #2D2821",
"t  c #2E2E2E",
"y  c #302B23",
"u  c #352C27",
"i  c #2F322B",
"p  c #333323",
"a  c #313A22",
"s  c #33322D",
"d  c #3A352D",
"f  c #363B2D",
"g  c #323232",
"h  c #3B3732",
"j  c #353832",
"k  c #393C32",
"l  c #3B3B3A",
"z  c #412720",
"x  c #462B24",
"c  c #4A2D25",
"v  c #4D3427",
"b  c #53332A",
"n  c #5A372D",
"m  c #573C2D",
"M  c #5D392F",
"N  c #423D38",
"B  c #533A33",
"V  c #5B3C32",
"C  c #5B3F38",
"Z  c #364322",
"A  c #3B4525",
"S  c #3C4B25",
"D  c #3C452A",
"F  c #3E4335",
"G  c #3E4139",
"H  c #44532B",
"J  c #495A2C",
"K  c #474636",
"L  c #44423C",
"P  c #5A4330",
"I  c #495632",
"U  c #4B5737",
"Y  c #4B553B",
"T  c #535339",
"R  c #654839",
"E  c #694B3E",
"W  c #4D612E",
"Q  c #576A38",
"!  c #5C723B",
"~  c #65793E",
"^  c #444444",
"/  c #484645",
"(  c #464844",
")  c #4A4B46",
"_  c #4D4D4D",
"`  c #554C45",
"'  c #514E4A",
"]  c #4D5540",
"[  c #4E514A",
"{  c #52534C",
"}  c #555A4D",
"|  c #5B584A",
" . c #565452",
".. c #595753",
"X. c #575B51",
"o. c #5B5A54",
"O. c #5C5B5B",
"+. c #6A4D40",
"@. c #6A5B47",
"#. c #5E654C",
"$. c #5D6755",
"%. c #667745",
"&. c #646A55",
"*. c #766F52",
"=. c #626262",
"-. c #696764",
";. c #6E6E6E",
":. c #7A7263",
">. c #727272",
",. c #7A7978",
"<. c #857051",
"1. c #8E7A60",
"2. c #807B7A",
"3. c #67813E",
"4. c #68833F",
"5. c #6C8541",
"6. c #738D47",
"7. c #759347",
"8. c #779449",
"9. c #7D9C4D",
"0. c #738568",
"q. c #859E4F",
"w. c #A38E55",
"e. c #81A24E",
"r. c #86A654",
"t. c #8BAD55",
"y. c #8DAD59",
"u. c #8EB257",
"i. c #92B657",
"p. c #92B45A",
"a. c #93B959",
"s. c #998569",
"d. c #919B65",
"f. c #8E8872",
"g. c #948976",
"h. c #9D917D",
"j. c #A68E6D",
"k. c #A7906F",
"l. c #AD9574",
"z. c #B59B78",
"x. c #9BB869",
"c. c #95AA71",
"v. c #A9AD7B",
"b. c #9DC35F",
"n. c #9EC363",
"m. c #A0C664",
"M. c #A3CC63",
"N. c #A6D065",
"B. c #A9D266",
"V. c #ABD569",
"C. c #AED968",
"Z. c #B2DC6D",
"A. c #A7C577",
"S. c #848484",
"D. c #9B9999",
"F. c #A09481",
"G. c #A99B86",
"H. c #AC9F89",
"J. c #9EB082",
"K. c #A7A181",
"L. c #ACA485",
"P. c #AEA18B",
"I. c #B7A788",
"U. c #B2A48E",
"Y. c #B8B18D",
"T. c #B6AA95",
"R. c #BEAF96",
"E. c #BDB195",
"W. c #A7A8A6",
"Q. c #B6BBAB",
"!. c #B9BAB7",
"~. c #C4AF9A",
"^. c #C1B496",
"/. c #C4B49B",
"(. c #C6B8A5",
"). c #B9D886",
"_. c #C2E78A",
"`. c #CFC7A2",
"'. c #D7C5A7",
"]. c #D4C4AE",
"[. c #D9CAB4",
"{. c #DECFB9",
"}. c #E2D1B7",
"|. c #E8D7BC",
" X c #C4C4C4",
".X c #CBCBCB",
"XX c #CED6C4",
"oX c #D1D5CB",
"OX c #D4D4D4",
"+X c #D9D9D9",
"@X c #EDDCC2",
"#X c #F0DEC5",
"$X c #F4E3C9",
"%X c #E3E3E3",
/* pixels */
"_ _ _ _ _ _ _ _ _ _ _ _ _ _ _ _ _ _ _ _ _ ^ ^ ^ l & l { c.o._ ( j i e j G _ _ _ _ _ _ _ _ _  ._ _ _ ",
"_ _ _ _ _ _ _ _ _ _  ._ _ _  ._ _ _ _ ^ l & . o .   o o ; G ^ } ! Q a %.9.X._ _ _ _ _ _ _ _ _ _ _ _ ",
"_ _ _ _ _ _ _ _ _ _ _ _ _ _ _ _ _ _ l & o     .       .   o = %.3.9.7.n.&._ _ _ _ _ _ _ _ _ _ _ _ _ ",
"_ _  ._ _  ._ _ _ _ _ _ _ _ _ _ _ ^ &   . . o O & . . O X     # S 4.7.M.x.$._ _ _ _ _ _ _ _ _ _ _ _ ",
"_ _ _ _ _ _ _ _ _ _ _ _ _ _ _ _ _ l o o x b b b b b b b v 1 . # 9.V.Z.V.&._ _ _  ._ _ _ _ _ _  ._ _ ",
"_ _ _ _ _ _ _ _ _ _ _ _ _ _ _ _ ^ & o x n M M M M M M M n v O   3 d.Z.n.[ _ _ _ _ _ _ _ _ _ _ _ _ _ ",
"_ _ _ _ _ _ _ _ _ _ _ _ _ _ _ _ ^ o o B M M M M M M M M M M c . @ Q t.S r ) _ _ _ _ _ _ _ _ _ _ _  .",
"_ _  ._ _ _ _ _ _ _ _ _ _ _ _ _ w   o c M M M M M M M M M M b .   2 i.! t.$._ _ _ _ _ _  ._ _ _ _ _ ",
"_ _  ._ _ _ _ _ _ _ _ _ _ _ _ l o   . b M M M M M M M M M M b .   % i.M.n.#._ _ _ _  ._ _ _ _ _ _ _ ",
"_ _ _ _ _ _ _ ^ _ _ _ ^ ^ g t t .   . c n b b M M M b b b b c .   @ 4.5.7.[ _ _ _ _ _ _ _ _ _ _ _ _ ",
"_ _ _ l g g g g g g g g g t t w       : , : $ c M b : O $ : :     % t.W r.G ^ _ _ _ _ _ _ _ _  ._ _ ",
"_ _ _ ( ^ ^ g t t t t t g t t t     o B c z < : b b + . O B V O   % p.9 I 2 g _ _ _ _ _ _ _ _ _ _ _ ",
"_ _ _ _ _ _ g g t t t t t t t w .   & S.< * 2.C M M c O O >.D.;   = v.I t.U ( [ _ _ _ _ _ _ _ _ _ _ ",
"_ _ _ _ _ _ ^ g t t t t t t t t .   . ; O . 5 b M M b + o ; <     % p.a.n.n.).).O._ _ _ _ _ _  ._ _ ",
"_ _ _ _ _ _ _ g t t g t t g t w     . x b b b M M M n b b b x .   @ Z Z Z Y n.).$._ _ _ _ _ _ _ _ _ ",
"_ _  ._ _ _ _ g t t t t t t t w o   . x n M M b n n b M M n 1 .   2 9.4.9.F F .XOXO._ _ _ _ _  ._ _ ",
"_ _ _ _ _ _ _ g t t t t t t t t w     O b M b , M P : c M b O X 1 9 e.0 0 t ^ oX+Xj ( _ _ _ _ _ _ _ ",
"_ _  ._ _ _ ^ g t t t t t t t t w &   . x b c 8 w.w.7 7 c x + z 5 5.A ~ t.F ( &. XO._ _ _ _ _ _ _ _ ",
"_ _ _ _ _ _ _ g t t g t t t t t t l &   . + , 7 > : 8 x O . $ b m m P t.i.p l g W.O._ _ _ _ _  . ._ ",
"_ _ _ _ _ _ ^ g t t t t t t t g g ^ l &   . N : X X > k .   : n b 5 T 6 0 ^ _ ) O._ _ _ _ _ _ _ _ _ ",
"_ _ _ _ _ _ _ g t t t t t t t t g _ _ _ w r <.<.b v @.K 4 - r n P ~ *.a 9.} _ ( ^ g g _ _ _ _ _ _ _ ",
"_ _ _ _ _ _ _ g g t t t t t t t t _ O.T.[.(.I.Y.K v g.].].H.< b R q.D J ! _ ( g g t g ^ _ _ _ _ _ _ ",
"_ _  ._ _ _ _ g g t t t t t t g g ^ O.{.$X#X@X@XE.`.}.@X@X~.< b m 9 3 9.p.] g t g t t _ _ _ _ _ _ _ ",
"_ _ _ _ _ _ / g t t t t t t t t g ^ ' [.}.#X}.#X|.'.|./.].L O b v # S Q 5.9.] G t g g _ _ _ _ _ _ _ ",
"_ _ _ _ _ _ _ g t t t t t t t t g ' U.~.| {.#X}.$X$X}.@X[.r O b v @ # @ # D ).A. .^ g _ _ _ _ _ _ _ ",
"_ _ _ _ _ _ _ g t t t t t g t t e * R +.` }.$X#X#X#X$X#X(.' u b v 2 J 2 2 F n._.oX.X^ _ _ _ _  ._ _ ",
"_ _  ._ _ _ _ g t t t t t t t t e & b V o.(.].'.P.P.'.(.N / ^ < #.b.b.b.u.y.$.Q.0.!._ ^ _ _ _ _ _ _ ",
"_ _ _ _ _ _ _ g t t g t t t t t w O b M / e s s y y s d ^ _ _ { n.N.S Q Z D g G g g g _ _ _ _ _ _ _ ",
"_ _ _ _ _ _ _ g t t t t t t t t t o b M ^ ; g.G.G.G.G.h. ._ _ } u.a.u.9.8.2 D G t t g ( _ _ _  ._ _ ",
"_ _ _ _ _ _ ^ g t t t t t t t t t w +.+.' u H.~.H.H.R.U./ { X.L J S Z S Z 3 9.c.l t g _ _ _ _ _ _ _ ",
"_ _ _ _ _ _ _ g s t t t t t t t L Y.(.P.f.v.~.H.s s H.H.K y.c.f 6.7.S S F F x.A._ g g ( _ _ _ _  ._ ",
"_ _ _ _ _ _ ^ g t t t t t t t t K E E V p A.E.U.' { U.R.L.A.&.} n.N.n.n.b.U Q.XX!.^ g ( _ _ _ _ _ _ ",
" ._ _ _ _ _ _ g t t t t t t t l 6.v , & ; K.^.H... .F.R.~.Q.O.} 9.4.%.a.8.Y [ J.W.G g ( _ _ _ _ _ _ ",
"_ _ _ _ _ _ _ t t t t t g t t g j * & w ^ U.T.:.{ ^ t H.T.-._ _ U b.M.C.N.i.F G G g g ( _ _ _ _ _ _ ",
"_ _  ._ _ _ _ g t t t t t t t t t ^ ^ ^ h P.P.l / ^ r H.U.{ _ [ ! t.i.e.8.%.j t t t g ( _ _ _ _ _ _ ",
"_ _ _ _ _ _ ^ g t t t t t t t t t _ _ ..F.R.U. ._ _ { U.P.h ( X.n.C.M.q 9 j t t t t g _ _ _ _ _ _ _ ",
"_ _ _ _ _ _ g t t t t t t t t t g ) _ ..U.~.U.o._ _ ..U.R.F...} u.a.B.6.t.F t t t t g _ _ _ _  ._ _ ",
"_ _ _ _ _ _ t t t t t t t t t t g ^ )  .P.P.U.o._ _ O.U.^.U. .( H t.b.C.N.F t t t t g ^ _ _ _ _  ._ ",
"_ _ _ _ _ g g g g g g g g g g g g l ^ 4 <.h 2..._ _ O.h.l.s.u L u.M.n.C.m.K g g g g g g _ _ _ _ _ _ ",
"_ _ _ _ _ ^ _ _ ^ _ _ ^ _ ^ _ _ / ^ ) 4 5 * t _ _ _ / u r 6 w | n.B.%.b.n.} ) ) ^ _ _ _ _ _ _ _ _ _ ",
"_ _ _ _ _ _ _ _ _ _ _ _ _ _ _ _ / h k.l.j.@.* ^ _ _  .1.j.l.l.j.T x.J.%.#._ _ _ _ _ _ _ _ _ _ _ _ _ ",
"_ _ _ _ _ _ _ _ _ _ _ _ _ _ _ _  .s.z.I.z.+.; ^ _ _ ^ u *.z.z.G.s.&.O.[ ( _ _ _ _ _ _ _ _ _ _ _ _ _ ",
"_ _ _ _ _ _ _ _ _ _ _ _ _ _ _ _ _ O. .O...' ^ _ _ _ _ ^ ' ..O.O.o.{ _ _ _ _ _ _ _ _ _ _ _ _ _ _ _ _ ",
"_  ._ _ _ _ _ _ _ _ _ _ _ _ _  .O.=.=.O.' { O. ._  .=.=.=.' _ =.=.&._ _ _ _ _ _ _ _ _ _ _ _ _  ._ _ ",
"_ _ _ _ _ _ _ _ _ _ _ _ _ _ _ =. XOX.XW.O.=. X>._ O. X%XOX=.;. XOXOX>.{ _ _ _ _ _ _ _ _ _ _ _ _ _ _ ",
"_ _ _ _ _ _ _ _ _ _ _ _ _ _ _ >.+X,.,.;. .;.+X+X=._ ;..XOX,. X>.>.%X+XO._ _ _ _ _ _ _ _ _ _ _ _  ._ ",
"_ _ _ _ _ ^ _ ^ _ _ _ _ _ _ =. X%X>. XOX>. XD.+X>._ ;. X>.=.OX=.O.!.%X=._ ^ _ _ _ ^ _ _ _ _ _ _ _ _ ",
"_ _ _ _ _ _ _ _ _ _ _ _ _ _ _ >. X,.S..XS.%X+X%X+XS..XS.=.=..XW.2.%XOX=._ _ _ _ _ _ _ _ _ _ _ _ _ _ ",
"_ _ _ _ _ _ _ _ _ _ _ _ _ _ _  .;. X XS.+X+X>.>.+X+X%X+X X=.;..X+XOX>._ _ _ _ _ _ _ _ _ _ _ _ _ _ _ ",
"_ _ _ _ _ _ _ _ _ _  ._ _ _ _ _ _ =.=.=.OX>._ _ =.=.=.=.=._ _ =.=.O._ _ _ _ _ _ _  ._ _ _ _ _ _ _ _ "
};
