/* XPM */
static char *_edfa74cefb54bc3f2cd5d628c1d12e48wvhcBgxiLuNuvy8[] = {
/* columns rows colors chars-per-pixel */
"50 50 215 2 ",
"   c None",
".  c #010101",
"X  c #0E0A03",
"o  c #191502",
"O  c #051F0E",
"+  c #271305",
"@  c #351602",
"#  c #07370A",
"$  c #143509",
"%  c #272102",
"&  c #393606",
"*  c #322D13",
"=  c #15172F",
"-  c #1B253A",
";  c #1B3425",
":  c #2D312E",
">  c #480403",
",  c #580303",
"<  c #4D1908",
"1  c #6B0505",
"2  c #740601",
"3  c #51330A",
"4  c #652901",
"5  c #742E00",
"6  c #75300F",
"7  c #473A27",
"8  c #742424",
"9  c #014908",
"0  c #01560B",
"q  c #0A5415",
"w  c #305113",
"e  c #006B0B",
"r  c #01630C",
"t  c #00720C",
"y  c #007C0E",
"u  c #0D6D17",
"i  c #134132",
"p  c #33512B",
"a  c #316F33",
"s  c #584C04",
"d  c #515009",
"f  c #6A5A01",
"g  c #655602",
"h  c #6A500B",
"j  c #786604",
"k  c #45452D",
"l  c #544F31",
"z  c #685637",
"x  c #6A522B",
"c  c #4E6B33",
"v  c #5D7818",
"b  c #242B48",
"n  c #2A3856",
"m  c #30344E",
"M  c #1E3C60",
"N  c #2C3A64",
"B  c #2B2B72",
"V  c #374976",
"C  c #3D6452",
"Z  c #575756",
"A  c #4C4955",
"S  c #665A46",
"D  c #7D5656",
"F  c #556948",
"G  c #676646",
"H  c #746348",
"J  c #767054",
"K  c #434F72",
"L  c #797975",
"P  c #74706A",
"I  c #535F78",
"U  c #870404",
"Y  c #970000",
"T  c #8E1310",
"R  c #AB0202",
"E  c #A60101",
"W  c #B40101",
"Q  c #B80503",
"!  c #A91618",
"~  c #862726",
"^  c #AD3636",
"/  c #C70202",
"(  c #D80001",
")  c #E70000",
"_  c #F40000",
"`  c #FE0000",
"'  c #877201",
"]  c #937C01",
"[  c #826E02",
"{  c #C74F01",
"}  c #CC7001",
"|  c #867B59",
" . c #816F56",
".. c #945C58",
"X. c #00810E",
"o. c #518C29",
"O. c #51A638",
"+. c #3F9355",
"@. c #39A342",
"#. c #4BB544",
"$. c #50E55C",
"%. c #9B8301",
"&. c #96831C",
"*. c #A58B01",
"=. c #A98F01",
"-. c #AE9403",
";. c #B19601",
":. c #B79B01",
">. c #AC9516",
",. c #BEA101",
"<. c #C3A501",
"1. c #CCAD01",
"2. c #C6A801",
"3. c #D3B301",
"4. c #DBBA01",
"5. c #DCB700",
"6. c #CFB001",
"7. c #E2BF00",
"8. c #E4C100",
"9. c #EAC600",
"0. c #EDC900",
"q. c #F3CE00",
"w. c #F6D100",
"e. c #FBD400",
"r. c #FFD900",
"t. c #9B9269",
"y. c #87867A",
"u. c #8E8362",
"i. c #A79C75",
"p. c #AC986E",
"a. c #AEA175",
"s. c #B7A879",
"d. c #8B815B",
"f. c #292584",
"g. c #373387",
"h. c #34319D",
"j. c #3C35BC",
"k. c #362FAA",
"l. c #4139A8",
"z. c #433DB9",
"x. c #3C4C88",
"c. c #3D45A0",
"v. c #42588D",
"b. c #47469D",
"n. c #44589A",
"m. c #5D5B94",
"M. c #4D6497",
"N. c #767498",
"B. c #6F6F88",
"V. c #4842A3",
"C. c #4943B8",
"Z. c #4E56AA",
"A. c #625EB0",
"S. c #4D68A6",
"D. c #526EB4",
"F. c #5168BD",
"G. c #5674B9",
"H. c #556FAC",
"J. c #7475A6",
"K. c #3F37C6",
"L. c #443CD9",
"P. c #453EC7",
"I. c #473FE6",
"U. c #4B44C7",
"Y. c #4941D7",
"T. c #5B7AC6",
"R. c #4A41EA",
"E. c #4E45FE",
"W. c #4B43F5",
"Q. c #5047FF",
"!. c #5148FF",
"~. c #6580BF",
"^. c #788192",
"/. c #5F81CF",
"(. c #5F80D0",
"). c #6183D3",
"_. c #6688DC",
"`. c #6A8EE5",
"'. c #678BE0",
"]. c #6C92EC",
"[. c #759EFF",
"{. c #7198F6",
"}. c #6F96F1",
"|. c #76A0FF",
" X c #858585",
".X c #979698",
"XX c #928F91",
"oX c #AFA78D",
"OX c #908FAE",
"+X c #ACABAB",
"@X c #A6A5A3",
"#X c #A9AAB7",
"$X c #B7B7B7",
"%X c #B3B1AB",
"&X c #91A494",
"*X c #C6B884",
"=X c #CCBF91",
"-X c #C0BEB7",
";X c #D3C48D",
":X c #DCCC93",
">X c #E8D79B",
",X c #C2C2BF",
"<X c #FBE8A7",
"1X c #FEECAA",
"2X c #F6E4A4",
"3X c #FFF2AE",
"4X c #BDBDC4",
"5X c #C3C3C3",
"6X c #C9CACB",
"7X c #D4D4D4",
"8X c #DBDBDA",
"9X c #CFCFD1",
"0X c #FFFFFF",
"qX c #F5F5F4",
"wX c #EDEDEB",
/* pixels */
"                                                                                                    ",
"                              , ,                                                                   ",
"                          , R R Q ( R                                                               ",
"                        U ) _ ^ ~ _ ` ( U                                                           ",
"                      1 _ ` ^ ..T / ` ` ( >                                                         ",
"                    > E ` ) ^ 8 < 8 / ) _ T                                                         ",
"                    2 R ` / Y R / ( Q R R U                                                         ",
"                    U E E W _ ` ` ` ` ` / ,                                                         ",
"                    U 1 Q _ _ ( ( ( / Q Y >                                                         ",
"                    > < 2 U T T 2 2 8 < 7 3 4 +                                                     ",
"                  X 4 6 | l J z l 6 J : y.x 5 <                                                     ",
"                  @ 5 x 2X X: p.a.s.;X: y.H 4 <                                                     ",
"                  4 5 z ;X X- ;X<X2X>XA XXz 4 +                                                     ",
"                @ 4 5 h s.oXP >X<Xs.>Xs.:Xz                                                         ",
"                    + <  .:X;X2X:X;X>X<Xs.                                                          ",
"                        + | >X<X2X1X1XoXy.                                                          ",
"                        : @X.Xa.:X:Xt.@X7X Xf.B A                                                   ",
"                    B l.N.8X%Xp.a.t.L 9X8X9Xm.m.,XP                                                 ",
"                   Xz.z.$X8X$X.X%X-X&X7X9X$XP @X8X X                                                ",
"                P #Xl.g.B.J.OX7X0X0X$X.XA.l.I 7X8X+X                                                ",
"                @X,Xb.I.I.I.L.J.9XwXN.C.!.L.OX8X8X5X                                                ",
"               X7X4Xb.Q.!.!.!.g.J.$XB R.Q.C.$X8X8X8X X                                              ",
"            Z 5X8X,Xb.I.!.!.I.Z.4X6Xz.!.Q.b.-X8X8X8X+X                                              ",
"            %X8X8X5Xl.Q.!.!.I.J.0X8XC.!.Q.z.+X8X7X6X+X:                                             ",
"          Z 5X8X8X,XV.!.!.!.I.OX0XwXZ.!.!.L. X@XoXoXH                                               ",
"            | 5X8X$Xz.!.!.!.I.#X0X0XJ.K.Q.I.N G *X2Xs.      . .                                     ",
"          | :X.X+X#XP.Q.Q.Q.L.6X0X6Xl i N B.oX:X>X1X*X      o 3                                     ",
"          ;X1X2X| A R.Q.Q.Q.C.8XqXF 9 t q *X1X>X2X1X;X      %.%.                          . .       ",
"        | <X1X*X  f.W.Q.I.I.A.qX5Xu y 0 t F ^.J.B.a.*X    g 9.-.                      . . . .       ",
"        u.1X1Xa.  l.!.!.Q.I.OX0X&Xy X.9 q S.{.|.[.M.:     ' e.=.                    . . . . .       ",
"        t.1X1Xi.  P.C.L.Q.I.A | p y y $ V |.[.[.|.).=     ' q.6.;.=.] f         . . . . . . .       ",
"        p.1X1Xt.  V.z L.I.l.< 4 9 t r ; _.|.[.[.|.).=     g 9.r.r.r.e.9.<.j   o . . . . . . .       ",
"        a.3X<Xd.= G m.I.I.g.m I i 9 $ n `.|.[.[.|.T.B     %.>.-.r.r.r.w.w.w.9.6.' % . . . . .       ",
"        a.3X2XS s I Q.!.I.V.G.[.M.m : V ].[.[.[.|.D.k.    :.k 3 q.r.e.&.x 5.7.e.w.j . .             ",
"        G t.J $ b I.!.!.h.V T.[.G.x.B n.[.[.[.[.|.n.P.    5.:.<.q.6.w.j & 5.%.' s X . .             ",
"      # e e t # k.I.!.I.V.T.H.v.S.c.K.F.|.[.[.[.[.c.f.  2 } r.w.3.=.8.9.7.7.g . . . . .             ",
"        0 0 9 O j.!.!.j.T.|.[.G.x.V L.F.|.[.|.[.{.N     Y { r.e.' % *.r.w.{ , . . . . .             ",
"      9 e e y 9 P.!.W.c.}.|.[.|.G.B k.Z.|.[.[.[.}.n     3 7.r.r.1.f 0.r.q.{ > . . X                 ",
"      r X.X.X.t M I.K.F.|.[.[.|.{.V   S.|.[.|.|.].n       :.r.r.r.w.r.r.e.;.3 f s                   ",
"    9 y X.y w & 0 - x.].|.[.[.[._.    (.|.[.`.]._.-       8.r.e.4.4.e.e.9.j ,.q.%.                  ",
"    9 u y & Q ! p - `.|.|.[.[.|.H.k n ].`./.).|._.-     [ e.r.3.8.w.0.<.r.,.-.]                     ",
"    l c p T ..P XXM.[.[.[.[.[.[.v.k - ~.).).{.|.G.      =.e.r.4.6.r.<.6.r.1.j *.                    ",
"    J s.p.~  XL 5X~.|.[.[.[.[.{.C k b S.D.D.D.H.n.      2.3.3.4.] q.-.0.w.5.[ '                     ",
"      p.i.J +X9X#X'.|.|.[.[.|.`.+.p b _./.G.H.G.D.      3.e.2.] ,.w.%.,.,.4.s                       ",
"      l k P $XXXv.[.[.[.[.[.|.T.p : i @.p & 3 d a       5.r.r.w.r.r.3.;.w.8.                        ",
"                v.|.[.[.[.[.[.n.* * w $.o.w o.d O.@.    3.r.r.r.r.r.r.r.r.3.                        ",
"                b /.|.[.|.|.`.V *   v O.v @.$.O.o.@.    ;.r.e.e.r.r.r.r.r.;.                        ",
"                  b G.[.|.].S.;     * c l F G c x p     -.1.] ] ] *.*.,.8.f                         ",
"                      x.v.V           l S J  .H S :   o f f             ;.j                         ",
"                                                                        & %                         "
};
