/* XPM */
static char *_69dc9aeb44e4bc89fbc27304a913436Ti5lyippfTBdyNqq[] = {
/* columns rows colors chars-per-pixel */
"50 50 45 1 ",
"  c None",
". c #164C02",
"X c #175102",
"o c #185502",
"O c #1B5D03",
"+ c #1D6303",
"@ c #1E6A03",
"# c #206D04",
"$ c #237404",
"% c #247C04",
"& c #297B07",
"* c #2B7D08",
"= c #268604",
"- c #298705",
"; c #278804",
": c #2A8906",
"> c #2E8409",
", c #2F8C08",
"< c #31850A",
"1 c #328D09",
"2 c #398D0E",
"3 c #36910B",
"4 c #3B940E",
"5 c #3E9610",
"6 c #409511",
"7 c #449A12",
"8 c #4A9E15",
"9 c #4DA017",
"0 c #4EA018",
"q c #53A51A",
"w c #5CAA1E",
"e c #5FAD20",
"r c #61AE21",
"t c #65B123",
"y c #6BB526",
"u c #6FB827",
"i c #6FB728",
"p c #73BA29",
"a c #79BE2D",
"s c #7DC12F",
"d c #7FC330",
"f c #83C532",
"g c #8DCB36",
"h c #8FCD38",
"j c #90CD38",
/* pixels */
"                       ;-;                        ",
"                     ;1;-;1;                      ",
"                   ;5tspyyar7;                    ",
"                 ;7yfhjjjjjhft7,                  ",
"               :7qew99qwpghgjhf7;;                ",
"             ,7q5314,===:7fhhhf4;;=+              ",
"           ;9yq:;tpr731;-=0ghhf8%@Oo              ",
"         19pgs:=1aaertaq-=8gfe<#O++O              ",
"       =1pggja1=;1969tfw=4uw<@O++O+O              ",
"     $=;;yjghgy4;==;775688<+O++O++OO              ",
"     O+%;yghgggfuw9qwew8>+O++O++O++O              ",
"     O+O+*0pgjjjjjhgs9>+O++O++O++O+O              ",
"     +OO+OO&8ppyusa8&+O++O++O++O++OO              ",
"     O++O++OO$-;;:%+++OO++O++++++O+O              ",
"     O+OO+O+++O#$+O++O++O+++++O+++OO              ",
"     +O++O++OO++O++O++O+++++O++OO++O              ",
"     O+OOO#OO#OOOO++O++++++++O+++O+O              ",
"     ++OO#oO+OO#+++++O++O++O++O+++OO              ",
"     OO##oO+OO+O+++O++O++++++O++O++O              ",
"     O++o##OO+OO+O+++++O++OO++O++O++              ",
"     +OO#+O#+OO+++O+++++O+++O++O++OO              ",
"     OO+OoOOO+#OO++O++O++O+++O++O++o              ",
"     O+Oo##o++O++O++O++O+++O+++++O+O              ",
"     #OO#Oo#OO++++O++++++O++O++O++OO  =           ",
"     OO++O++O++OO+++++OO++O+++++o+#+====;         ",
"     O++O++O+OO++O++O+++O++O++O++#$6rq89w01       ",
"     +OO++O++O++++O++++++O++O+@@%7ygjjhgjgpq3     ",
"     O++O+++O++OO++O++O+++O++@&5tpyppafjhgjgp8;   ",
"     O+OO++O++O+++O++O++O+@@&7973::;,:4wggggg7=;= ",
"=@X..OO++OO+OO++++O+++O+@@&0r5:7wr8;=-;;0gghhq=%@O",
"==%+X.oOOO+OO++OOO+++++@>0sf5=:pfwqwr7;-4ggsq<+O+O",
"=-3e2#XXOOO++++++++++@=qsghd,=;8wwqwfp;;wsq>+O++OO",
",rahfw1#o.oOOO++O++@%=,tjghgw,====8eq74q8*+O++O++O",
"1dhhjgfr2$O.XOOOOO+O@=;rjhgggpq633570q7*+O++O++O+O",
"1ahhhgjjft5$O.XO++oO+O@2tfhggjggfffu8&OO++O+OO++OO",
"1da8iggr78rr6$O..OOOO++O#2rffffggu7%+O++O++O++O+OO",
"1dd,1fy;==;8au7%O..O#Oo##o#241376$Oo++O++O++O++OO+",
"1ahyqfq=;qw,7fgp8&O..X#Oo#Oo+%%#OO#oO++O+OO++O++OO",
"-qfhhhw=;py9=qgggu3$o.XO++O##oO##o##+O++O++O++O++O",
"-=ehhhp;=9t7=,agggq=%.X+OO+Oo+#oo#o+++O++O++O++O++",
" -3sghg8=9ti;=wjjjf7%XX+O+OO++++O+++O++O++O++O++O.",
"  ;3wsgs33yr,=qgtaja>XXO++O++OOO+OO++O++O++O++O.  ",
"    =3qsp4,;==wf11df,XX+OO++O++++++O++O++O++o.    ",
"       3qyq419fgr4af>.X+o#OO++++OO+OO++O++o.      ",
"         19yfggggfha<XXO#OO++OOO++O++O++o         ",
"           18pgjhghd>XoOOO#OO++O+++O++o           ",
"             ,7yghfp>X..o#Oo++O++O++o             ",
"               ,7y71%X.  .o#+OO++OX               ",
"                 ;;-%X.    .O++OX                 ",
"                   ;=X       ..                   "
};
