/* XPM */
static char *ramen2[] = {
/* columns rows colors chars-per-pixel */
"64 64 197 2 ",
"   c #0F0F0F",
".  c #1E190C",
"X  c #131313",
"o  c #1C1A14",
"O  c #1D1D1D",
"+  c #221C0B",
"@  c #282418",
"#  c #2B261B",
"$  c #352C12",
"%  c #262626",
"&  c #2B2A22",
"*  c #2B2B2B",
"=  c #373426",
"-  c #34332D",
";  c #38362B",
":  c #3D3B2D",
">  c #3A3730",
",  c #3F3D35",
"<  c #493703",
"1  c #563E03",
"2  c #4B3F19",
"3  c #683F04",
"4  c #423B26",
"5  c #423C29",
"6  c #423F37",
"7  c #084B16",
"8  c #0A4C17",
"9  c #197D18",
"0  c #2E6C12",
"q  c #396C16",
"w  c #27791A",
"e  c #1A4D20",
"r  c #304D2D",
"t  c #3C7A23",
"y  c #554606",
"u  c #5C4202",
"i  c #4A560A",
"p  c #674607",
"a  c #74430C",
"s  c #7A420D",
"d  c #62500F",
"f  c #694F11",
"g  c #6A5616",
"h  c #725C1B",
"j  c #47691A",
"k  c #494128",
"l  c #51482E",
"z  c #484638",
"x  c #524C3C",
"c  c #45583B",
"v  c #5C533A",
"b  c #6E5928",
"n  c #64593A",
"m  c #4B7723",
"M  c #5A7829",
"N  c #776829",
"B  c #6D613E",
"V  c #777034",
"C  c #544F40",
"Z  c #4B5742",
"A  c #5A5641",
"S  c #5D5943",
"D  c #506246",
"F  c #66644A",
"G  c #786C48",
"H  c #6F6B51",
"J  c #736E52",
"K  c #7C7253",
"L  c #7C775A",
"P  c #8D4115",
"I  c #904116",
"U  c #A1411E",
"Y  c #927714",
"T  c #9A5D2F",
"R  c #AC4425",
"E  c #B7452A",
"W  c #A2562D",
"Q  c #8A6A31",
"!  c #83723B",
"~  c #C4432E",
"^  c #CB4331",
"/  c #DC4439",
"(  c #E4453D",
")  c #86784B",
"_  c #827854",
"`  c #8B7D55",
"'  c #EB4541",
"]  c #F54545",
"[  c #1B8C24",
"{  c #099324",
"}  c #18952C",
"|  c #259B33",
" . c #319839",
".. c #31A23C",
"X. c #56923A",
"o. c #3DA641",
"O. c #449C43",
"+. c #74925C",
"@. c #41A544",
"#. c #55A34E",
"$. c #5DB053",
"%. c #6EAC5B",
"&. c #7EA261",
"*. c #7CB864",
"=. c #A78D37",
"-. c #AE923D",
";. c #BBA339",
":. c #988549",
">. c #958554",
",. c #9E8D5A",
"<. c #A9914C",
"1. c #B39746",
"2. c #A4935E",
"3. c #A89659",
"4. c #B99E50",
"5. c #BBA154",
"6. c #8D8866",
"7. c #839864",
"8. c #98996B",
"9. c #9C9571",
"0. c #A69461",
"q. c #A99762",
"w. c #AD9A63",
"e. c #A29A6C",
"r. c #B39F62",
"t. c #A39B72",
"y. c #88B06A",
"u. c #AAA06F",
"i. c #B8A466",
"p. c #BDAA6E",
"a. c #A9A277",
"s. c #B0AF7C",
"d. c #BFB277",
"f. c #C0A75C",
"g. c #C1AA58",
"h. c #C5AC62",
"j. c #C3AE6D",
"k. c #CCB36C",
"l. c #C3AE70",
"z. c #C6B172",
"x. c #CAB474",
"c. c #CEB977",
"v. c #D0B770",
"b. c #D2BA74",
"n. c #D2BC79",
"m. c #93C071",
"M. c #A6C47B",
"N. c #FFDC4F",
"B. c #FFDC50",
"V. c #FEDF5D",
"C. c #F8E05B",
"Z. c #D9C27D",
"A. c #E8E868",
"S. c #FFE166",
"D. c #FFE577",
"F. c #B5AD81",
"G. c #AFBD81",
"H. c #BBB384",
"J. c #C2B987",
"K. c #C9BE84",
"L. c #C3BB89",
"P. c #B8C486",
"I. c #AED488",
"U. c #B7D58B",
"Y. c #AEE38C",
"T. c #BDFB97",
"R. c #BEFC99",
"E. c #CCC48D",
"W. c #C8D28F",
"Q. c #CCC591",
"!. c #CBC893",
"~. c #D5CC95",
"^. c #D8CF98",
"/. c #C6D892",
"(. c #DCD39B",
"). c #E1D79D",
"_. c #CDF787",
"`. c #C7E796",
"'. c #D7E69D",
"]. c #C7F897",
"[. c #C4FC9C",
"{. c #FFE883",
"}. c #E2F38E",
"|. c #FDED99",
" X c #D6CEA5",
".X c #D7D2A1",
"XX c #E4DBA5",
"oX c #CDF9A3",
"OX c #D0FDA6",
"+X c #D5FDA9",
"@X c #DCFBAD",
"#X c #EDEDAD",
"$X c #EBE2B1",
"%X c #F4EAB7",
"&X c #F8F5BA",
"*X c #FBF2BD",
"=X c #FFF5C0",
/* pixels */
"Z.Z.Z.Z.Z.Z.Z.Z.Z.Z.Z.Z.Z.Z.Z.Z.Z.Z.Z.Z.Z.Z.Z.Z.Z.Z.Z.Z.Z.Z.Z.Z.Z.Z.Z.Z.Z.Z.Z.Z.Z.Z.Z.Z.Z.Z.Z.Z.Z.Z.Z.Z.Z.Z.Z.Z.Z.Z.Z.Z.Z.Z.Z.Z.",
"Z.Z.Z.Z.Z.Z.Z.Z.Z.Z.Z.Z.Z.Z.Z.Z.Z.Z.Z.Z.Z.Z.Z.Z.Z.Z.Z.Z.Z.Z.Z.Z.Z.Z.Z.Z.Z.Z.Z.Z.Z.Z.Z.Z.Z.Z.Z.Z.Z.Z.Z.Z.Z.Z.Z.Z.Z.Z.Z.Z.Z.Z.Z.Z.",
"Z.Z.Z.Z.Z.Z.Z.Z.Z.Z.Z.Z.Z.Z.Z.Z.Z.Z.Z.Z.Z.Z.Z.Z.Z.Z.Z.Z.Z.Z.Z.Z.Z.Z.Z.Z.Z.Z.Z.Z.Z.Z.Z.Z.Z.Z.Z.Z.Z.Z.Z.Z.Z.Z.Z.Z.Z.Z.Z.Z.Z.Z.Z.Z.",
"Z.Z.Z.Z.Z.Z.Z.Z.Z.Z.Z.Z.Z.Z.Z.Z.Z.Z.Z.Z.Z.Z.Z.Z.Z.Z.Z.Z.Z.Z.Z.Z.Z.Z.Z.Z.Z.Z.Z.Z.Z.Z.Z.Z.Z.Z.Z.Z.Z.Z.Z.Z.Z.Z.Z.Z.Z.Z.Z.Z.Z.Z.Z.Z.",
"Z.Z.Z.Z.Z.Z.Z.Z.Z.Z.Z.Z.Z.Z.Z.Z.Z.Z.Z.Z.Z.Z.Z.Z.Z.Z.Z.Z.Z.Z.Z.Z.Z.Z.Z.Z.Z.Z.Z.Z.Z.Z.Z.Z.Z.Z.Z.Z.Z.Z.Z.Z.Z.Z.Z.Z.Z.Z.Z.Z.Z.Z.Z.Z.",
"Z.Z.Z.Z.Z.Z.Z.Z.Z.Z.Z.Z.Z.Z.Z.Z.Z.Z.Z.Z.Z.Z.Z.Z.Z.Z.Z.Z.Z.Z.Z.Z.Z.Z.Z.Z.Z.Z.Z.Z.Z.Z.Z.Z.Z.Z.Z.Z.Z.Z.Z.Z.Z.Z.Z.Z.Z.Z.Z.Z.Z.Z.Z.Z.",
"Z.Z.Z.Z.Z.Z.Z.Z.Z.Z.Z.Z.Z.Z.Z.Z.Z.Z.Z.Z.Z.Z.Z.Z.Z.Z.Z.Z.Z.Z.Z.Z.Z.Z.Z.Z.Z.Z.Z.Z.Z.Z.Z.Z.Z.Z.Z.Z.Z.Z.Z.Z.Z.Z.Z.Z.Z.Z.Z.Z.Z.Z.Z.Z.",
"Z.Z.Z.Z.Z.Z.Z.Z.Z.Z.Z.Z.Z.Z.Z.Z.Z.Z.Z.Z.Z.Z.Z.Z.Z.Z.Z.Z.Z.Z.Z.Z.Z.Z.Z.Z.Z.Z.Z.Z.Z.Z.Z.Z.Z.Z.Z.Z.Z.Z.Z.Z.Z.Z.Z.Z.Z.Z.Z.Z.Z.Z.Z.Z.",
"Z.Z.Z.Z.Z.Z.Z.Z.Z.Z.Z.Z.Z.Z.Z.Z.Z.Z.Z.Z.Z.Z.Z.Z.Z.Z.Z.Z.Z.Z.Z.Z.Z.Z.Z.Z.Z.Z.Z.Z.Z.Z.Z.Z.Z.Z.Z.Z.Z.Z.Z.Z.Z.Z.Z.Z.Z.Z.Z.Z.Z.Z.Z.Z.",
"Z.Z.Z.Z.Z.Z.Z.Z.Z.Z.Z.Z.Z.Z.Z.Z.Z.Z.Z.Z.Z.Z.Z.Z.Z.Z.Z.Z.Z.Z.Z.Z.Z.Z.Z.Z.Z.Z.Z.Z.Z.Z.Z.Z.Z.Z.Z.Z.Z.Z.Z.Z.Z.Z.Z.Z.Z.Z.Z.Z.Z.Z.Z.Z.",
"Z.Z.Z.Z.Z.Z.Z.Z.Z.Z.Z.Z.Z.Z.Z.Z.Z.Z.Z.Z.Z.Z.Z.Z.Z.Z.Z.Z.Z.Z.Z.Z.Z.Z.Z.Z.Z.Z.Z.Z.Z.Z.Z.Z.Z.Z.Z.Z.Z.Z.Z.Z.Z.Z.Z.Z.Z.Z.Z.Z.Z.Z.Z.Z.",
"Z.Z.Z.Z.Z.Z.Z.Z.Z.Z.Z.Z.Z.Z.Z.Z.Z.Z.Z.Z.Z.Z.Z.Z.Z.Z.Z.Z.Z.Z.Z.Z.Z.Z.Z.Z.Z.Z.Z.Z.Z.Z.Z.Z.Z.Z.Z.Z.Z.Z.Z.Z.Z.Z.Z.Z.Z.Z.Z.Z.Z.Z.Z.Z.",
"Z.Z.Z.Z.Z.Z.Z.Z.Z.Z.Z.Z.Z.Z.Z.Z.Z.Z.Z.Z.Z.Z.Z.Z.Z.Z.Z.Z.Z.Z.Z.Z.Z.Z.Z.Z.Z.Z.Z.Z.Z.Z.Z.Z.Z.Z.Z.Z.Z.Z.Z.Z.Z.Z.Z.Z.Z.Z.Z.Z.Z.Z.Z.Z.",
"Z.Z.Z.Z.Z.Z.Z.Z.Z.Z.Z.Z.Z.Z.Z.Z.Z.Z.Z.Z.Z.Z.Z.Z.Z.Z.Z.Z.Z.Z.Z.Z.Z.Z.Z.Z.Z.Z.Z.Z.Z.Z.Z.Z.Z.Z.Z.Z.Z.Z.Z.Z.Z.Z.Z.Z.Z.Z.Z.Z.Z.Z.Z.Z.",
"Z.Z.Z.Z.Z.Z.Z.Z.Z.Z.Z.Z.Z.Z.Z.Z.Z.Z.Z.Z.Z.Z.Z.Z.Z.Z.Z.Z.Z.Z.Z.Z.Z.Z.Z.Z.Z.Z.Z.Z.Z.Z.Z.Z.Z.Z.Z.Z.Z.Z.Z.Z.Z.Z.Z.Z.n.Z.Z.Z.Z.Z.Z.Z.",
"Z.Z.Z.Z.Z.Z.Z.Z.Z.Z.Z.Z.Z.Z.Z.Z.Z.Z.Z.Z.Z.Z.Z.Z.Z.Z.Z.Z.Z.Z.Z.Z.Z.Z.Z.Z.Z.Z.Z.Z.Z.Z.Z.Z.Z.Z.Z.Z.Z.Z.Z.Z.Z.Z.Z.v.1.b.Z.Z.Z.Z.Z.Z.",
"Z.Z.Z.Z.Z.Z.Z.Z.Z.Z.Z.Z.Z.Z.Z.Z.Z.Z.Z.Z.Z.Z.Z.Z.Z.Z.Z.Z.Z.Z.Z.Z.Z.Z.Z.Z.Z.Z.Z.Z.Z.Z.Z.Z.Z.Z.Z.Z.Z.Z.Z.Z.Z.Z.k.4.k.Z.Z.Z.Z.Z.Z.Z.",
"Z.Z.Z.Z.Z.Z.Z.Z.Z.Z.Z.Z.Z.Z.Z.Z.Z.Z.Z.Z.Z.Z.Z.Z.Z.Z.Z.Z.Z.Z.Z.Z.Z.Z.Z.Z.Z.Z.Z.Z.Z.Z.Z.Z.Z.Z.Z.Z.Z.Z.Z.Z.n.k.5.h.Z.Z.Z.Z.Z.Z.Z.Z.",
"Z.Z.Z.Z.Z.Z.Z.Z.Z.Z.Z.Z.Z.Z.Z.Z.Z.Z.Z.Z.Z.Z.Z.Z.Z.Z.Z.Z.Z.Z.Z.Z.Z.Z.Z.Z.Z.Z.Z.Z.Z.Z.Z.Z.Z.Z.Z.Z.Z.Z.Z.Z.v.5.h.Z.Z.Z.Z.v.v.Z.Z.Z.",
"Z.Z.Z.Z.Z.Z.Z.Z.Z.Z.Z.Z.Z.Z.Z.Z.Z.Z.Z.Z.Z.Z.Z.Z.Z.Z.Z.Z.Z.Z.Z.Z.Z.Z.Z.Z.Z.Z.Z.Z.Z.Z.Z.Z.Z.Z.Z.Z.Z.Z.Z.v.1.k.n.Z.Z.Z.b.f.4.Z.Z.Z.",
"Z.Z.Z.Z.Z.Z.Z.Z.Z.Z.Z.Z.Z.Z.Z.Z.Z.Z.Z.Z.Z.Z.Z.Z.Z.Z.Z.Z.Z.Z.Z.Z.Z.Z.Z.Z.Z.Z.Z.Z.Z.Z.Z.Z.Z.Z.Z.Z.Z.Z.v.-.v.Z.Z.Z.Z.Z.5.g.n.Z.Z.Z.",
"Z.Z.Z.Z.Z.Z.Z.Z.Z.Z.Z.Z.Z.Z.Z.Z.Z.Z.Z.Z.Z.Z.Z.Z.Z.Z.Z.Z.Z.Z.Z.Z.Z.Z.Z.Z.Z.Z.Z.Z.Z.Z.Z.Z.Z.Z.Z.Z.Z.k.1.k.Z.Z.Z.v.1.-.f.n.Z.Z.Z.Z.",
"Z.Z.Z.Z.Z.Z.Z.Z.Z.Z.Z.Z.Z.Z.Z.Z.Z.Z.Z.Z.Z.Z.Z.Z.n.Z.Z.E.Z.Z.Z.Z.Z.n.Z.Z.r.>.h.E.E.n.Z.Z.Z.Z.Z.E.Z.k.=.b.Z.Z.v.5.f.h.b.Z.Z.Z.Z.Z.",
"Z.Z.Z.Z.Z.Z.Z.Z.Z.Z.Z.Z.Z.Z.Z.Z.l.w.w.w.w.w.w.w.w.w.r.w.w.4.i.3.r.w.w.w.b 1 Q r.4.r.r.r.3.h.Z.n.v.g.g.Z.Z.v.5.f.Z.Z.Z.Z.Z.Z.Z.Z.",
"Z.Z.Z.Z.Z.Z.Z.Z.Z.z.p.z.l.l.l.l.` : : : - & = , : : 5 & $ 1 s p < . . . < a p 1 : + < p a b i.z.<.:.x.Z.v.5.g.Z.Z.Z.Z.Z.Z.Z.Z.Z.",
"Z.Z.Z.Z.Z.Z.n.n.x.B = : : : 5 : 6.).(.^.F.t.H.(.~.~.^.,.1 s / P 3 1 y y u E E h d.g u R ^ 1 = Y g # n x.<.f.n.E.Z.Z.Z.Z.Z.Z.Z.Z.",
"Z.Z.Z.Z.Z.2.v v n a.K.J.P.I. X X$X=X*X*X%X%X%X$XH.F.s.) s / ( ( / T w y 1 E E p h p E ( ^ u 1 i.E.K.l.=.2 2 ,.n.Z.Z.Z.Z.Z.Z.Z.Z.",
"Z.Z.Z.Z.,._ 9.8.y.(.XX~.!.@XOXOX+X}.D.D.D.D.|.*XXXXX(.:.p I I P b V Q q y E ' ~ E q g ~ ' E p N =.;.;.k.t.t.` ,.Z.Z.Z.Z.Z.Z.Z.Z.",
"Z.Z.n.w.L G..XW.U.'.'.`.U.@X@XoX_.A.N.N.N.N.S.|.=X%XM.X.j V :.m 0 j V q y P T ! ! V d U ] ( R 3 p Y 5.E.K.~.9.F 0.n.Z.Z.Z.Z.Z.Z.",
"Z.Z.x.C 9././.G.P.].[.R.[.+X=XOX}.S.N.N.B.N.C.{.*XXX*.@.#.y.M...m M [ N i i 0 9 w E T W / ^ ^ s g <.).H.F.J.t.F 4 v.Z.Z.Z.Z.Z.Z.",
"Z.Z.x.x * 6./.Y.Y.(.[.T.oX&X=XoX@X|.V.C.V.C.{.*X*XXXW.W.m.} } | *.y.| M.o.} t f d f j.3.p f g f 3.).).W.L.Q.` X 5 x.Z.Z.Z.Z.Z.Z.",
"Z.Z.x.x * - r , c I.R.I.G.[.R.T.R.].T.].#X&X*X*XXXH.#.| } } 7.P.*.} [ | &.8.s.K.e.e.E.J.8.e.K.u.e.J.J.; & & O   4 x.Z.Z.Z.Z.Z.Z.",
"Z.Z.x.v * % % % * Z Z Z Z Z S S 6.U.oX'.Q. X$XXXJ.Q.P.$.{ {  .O.| ..M.&.O. .%.H.^.^.E.L ; : k > ; ; r X         4 x.Z.Z.Z.Z.Z.Z.",
"Z.K.n.3.C * % % % % * % % % % % z D +.J F H _ H A H K c 8 8 8 e 8 q H C e 7 r S H H S =                       2 0.n.Z.Z.Z.Z.Z.Z.",
"Z.Z.Z.Z.G * % * % % % % * % % % O O O O O O O O               X                                               B n.Z.Z.Z.Z.Z.Z.Z.",
"Z.Z.n.E.` z % % % % % * % % % % % O O O O O O O X                                                           4 ) Z.Z.Z.Z.Z.Z.Z.Z.",
"Z.Z.Z.Z.b.>.- % * % % * * % % * O O O O O O O O O X                               X                         ` Z.Z.Z.Z.Z.Z.Z.Z.Z.",
"Z.Z.Z.Z.E.>.- % % % % % % % % % % % O O O O O O O                                         X                 ` Z.Z.Z.Z.Z.Z.Z.Z.Z.",
"Z.Z.Z.Z.Z.j.` * % % % % % % % % % % O O O O O O O X                                                       ) l.Z.Z.Z.Z.Z.Z.Z.Z.Z.",
"Z.Z.Z.Z.Z.E.x._ - % * % * % % % % * O O O O O O O X X                                                 o ) j.n.K.Z.Z.Z.Z.Z.Z.Z.Z.",
"Z.Z.Z.Z.Z.Z.Z.v._ - % % % % % * % % % O O O O O % O X                                 X             # G v.Z.Z.Z.Z.Z.Z.Z.Z.Z.Z.Z.",
"Z.Z.Z.Z.Z.Z.Z.Z.x.) - % % % % % % * * % O O O O O O X                                             @ B b.K.Z.Z.Z.Z.Z.Z.Z.Z.Z.Z.Z.",
"Z.Z.Z.Z.Z.Z.Z.Z.Z.x._ * % % % % % * % % O O O O O O O X       X                                   ) v.Z.Z.Z.Z.Z.Z.Z.Z.Z.Z.Z.Z.Z.",
"Z.Z.Z.Z.Z.Z.Z.Z.E.n.z.` - % % % % % % % * % O O O O O o                                         ) j.Z.Z.Z.Z.Z.Z.Z.Z.Z.Z.Z.Z.Z.Z.",
"Z.Z.Z.Z.Z.Z.Z.Z.Z.Z.Z.l.) * - * % % % % % % O O O O O o X                                   X ) j.Z.Z.Z.Z.Z.Z.Z.Z.Z.Z.Z.Z.Z.Z.Z.",
"Z.Z.Z.Z.Z.Z.Z.Z.Z.Z.Z.Z.z._ _ l * * % % * % % * % O O O o X                             = G G k.b.K.Z.Z.Z.Z.Z.Z.Z.Z.Z.Z.Z.Z.Z.Z.",
"Z.Z.Z.Z.Z.Z.Z.Z.Z.Z.Z.Z.Z.Z.E.` S C * * * % % * % O O O O O                         k l ) Z.Z.Z.Z.Z.Z.Z.Z.Z.Z.Z.Z.Z.Z.Z.Z.Z.Z.Z.",
"Z.Z.Z.Z.Z.Z.Z.Z.Z.Z.Z.Z.Z.Z.n.K.c.w., , , - % % % % % O O O X X             O # # & w.b.n.Z.Z.Z.Z.Z.Z.Z.Z.Z.Z.Z.Z.Z.Z.Z.Z.Z.Z.Z.",
"Z.Z.Z.Z.Z.Z.Z.Z.Z.Z.Z.Z.Z.Z.Z.Z.Z.b.j.j.j.) - % % % % O O O o X             ) p.p.j.b.Z.Z.Z.Z.Z.Z.Z.Z.Z.Z.Z.Z.Z.Z.Z.Z.Z.Z.Z.Z.Z.",
"Z.Z.Z.Z.Z.Z.Z.Z.Z.Z.Z.Z.Z.Z.Z.Z.Z.Z.K.Z.K.p.0.0.0.0.0.0.3.w.0.0.2.2.3.w.2.2.r.Z.Z.Z.Z.Z.Z.Z.Z.Z.Z.Z.Z.Z.Z.Z.Z.Z.Z.Z.Z.Z.Z.Z.Z.Z.",
"Z.Z.Z.Z.Z.Z.Z.Z.Z.Z.Z.Z.Z.Z.Z.Z.Z.Z.Z.Z.Z.Z.Z.Z.Z.Z.K.Z.Z.Z.Z.Z.Z.Z.Z.Z.n.K.Z.Z.Z.Z.Z.Z.Z.Z.Z.Z.Z.Z.Z.Z.Z.Z.Z.Z.Z.Z.Z.Z.Z.Z.Z.Z.",
"Z.Z.Z.Z.Z.Z.Z.Z.Z.Z.Z.Z.Z.Z.Z.Z.Z.Z.Z.Z.Z.Z.Z.Z.Z.Z.Z.Z.Z.Z.Z.Z.Z.Z.Z.Z.Z.Z.Z.Z.Z.Z.Z.Z.Z.Z.Z.Z.Z.Z.Z.Z.Z.Z.Z.Z.Z.Z.Z.Z.Z.Z.Z.Z.",
"Z.Z.Z.Z.Z.Z.Z.Z.Z.Z.Z.Z.Z.Z.Z.Z.Z.Z.Z.Z.Z.Z.Z.Z.Z.Z.Z.Z.Z.Z.Z.Z.Z.Z.Z.Z.Z.Z.Z.Z.Z.Z.Z.Z.Z.Z.Z.Z.Z.Z.Z.Z.Z.Z.Z.Z.Z.Z.Z.Z.Z.Z.Z.Z.",
"Z.Z.Z.Z.Z.Z.Z.Z.Z.Z.Z.Z.Z.Z.Z.Z.Z.Z.Z.Z.Z.Z.Z.Z.Z.Z.Z.Z.Z.Z.Z.Z.Z.Z.Z.Z.Z.Z.Z.Z.Z.Z.Z.Z.Z.Z.Z.Z.Z.Z.Z.Z.Z.Z.Z.Z.Z.Z.Z.Z.Z.Z.Z.Z.",
"Z.Z.Z.Z.Z.Z.Z.Z.Z.Z.Z.Z.Z.Z.Z.Z.Z.Z.Z.Z.Z.Z.Z.Z.Z.Z.Z.Z.Z.Z.Z.Z.Z.Z.Z.Z.Z.Z.Z.Z.Z.Z.Z.Z.Z.Z.Z.Z.Z.Z.Z.Z.Z.Z.Z.Z.Z.Z.Z.Z.Z.Z.Z.Z.",
"Z.Z.Z.Z.Z.Z.Z.Z.Z.Z.Z.Z.Z.Z.Z.Z.Z.Z.Z.Z.Z.Z.Z.Z.Z.Z.Z.Z.Z.Z.Z.Z.Z.Z.Z.Z.Z.Z.Z.Z.Z.Z.Z.Z.Z.Z.Z.Z.Z.Z.Z.Z.Z.Z.Z.Z.Z.Z.Z.Z.Z.Z.Z.Z.",
"Z.Z.Z.Z.Z.Z.Z.Z.Z.Z.Z.Z.Z.Z.Z.Z.Z.Z.Z.Z.Z.Z.Z.Z.Z.Z.Z.Z.Z.Z.Z.Z.Z.Z.Z.Z.Z.Z.Z.Z.Z.Z.Z.Z.Z.Z.Z.Z.Z.Z.Z.Z.Z.Z.Z.Z.Z.Z.Z.Z.Z.Z.Z.Z.",
"Z.Z.Z.Z.Z.Z.Z.Z.Z.Z.Z.Z.Z.Z.Z.Z.Z.Z.Z.Z.Z.Z.Z.Z.Z.Z.Z.Z.Z.Z.Z.Z.Z.Z.Z.Z.Z.Z.Z.Z.Z.Z.Z.Z.Z.Z.Z.Z.Z.Z.Z.Z.Z.Z.Z.Z.Z.Z.Z.Z.Z.Z.Z.Z.",
"Z.Z.Z.Z.Z.Z.Z.Z.Z.Z.Z.Z.Z.Z.Z.Z.Z.Z.Z.Z.Z.Z.Z.Z.Z.Z.Z.Z.Z.Z.Z.Z.Z.Z.Z.Z.Z.Z.Z.Z.Z.Z.Z.Z.Z.Z.Z.Z.Z.Z.Z.Z.Z.Z.Z.Z.Z.Z.Z.Z.Z.Z.Z.Z.",
"Z.Z.Z.Z.Z.Z.Z.Z.Z.Z.Z.Z.Z.Z.Z.Z.Z.Z.Z.Z.Z.Z.Z.Z.Z.Z.Z.Z.Z.Z.Z.Z.Z.Z.Z.Z.Z.Z.Z.Z.Z.Z.Z.Z.Z.Z.Z.Z.Z.Z.Z.Z.Z.Z.Z.Z.Z.Z.Z.Z.Z.Z.Z.Z.",
"Z.Z.Z.Z.Z.Z.Z.Z.Z.Z.Z.Z.Z.Z.Z.Z.Z.Z.Z.Z.Z.Z.Z.Z.Z.Z.Z.Z.Z.Z.Z.Z.Z.Z.Z.Z.Z.Z.Z.Z.Z.Z.Z.Z.Z.Z.Z.Z.Z.Z.Z.Z.Z.Z.Z.Z.Z.Z.Z.Z.Z.Z.Z.Z.",
"Z.Z.Z.Z.Z.Z.Z.Z.Z.Z.Z.Z.Z.Z.Z.Z.Z.Z.Z.Z.Z.Z.Z.Z.Z.Z.Z.Z.Z.Z.Z.Z.Z.Z.Z.Z.Z.Z.Z.Z.Z.Z.Z.Z.Z.Z.Z.Z.Z.Z.Z.Z.Z.Z.Z.Z.Z.Z.Z.Z.Z.Z.Z.Z.",
"Z.Z.Z.Z.Z.Z.Z.Z.Z.Z.Z.Z.Z.Z.Z.Z.Z.Z.Z.Z.Z.Z.Z.Z.Z.Z.Z.Z.Z.Z.Z.Z.Z.Z.Z.Z.Z.Z.Z.Z.Z.Z.Z.Z.Z.Z.Z.Z.Z.Z.Z.Z.Z.Z.Z.Z.Z.Z.Z.Z.Z.Z.Z.Z.",
"Z.Z.Z.Z.Z.Z.Z.Z.Z.Z.Z.Z.Z.Z.Z.Z.Z.Z.Z.Z.Z.Z.Z.Z.Z.Z.Z.Z.Z.Z.Z.Z.Z.Z.Z.Z.Z.Z.Z.Z.Z.Z.Z.Z.Z.Z.Z.Z.Z.Z.Z.Z.Z.Z.Z.Z.Z.Z.Z.Z.Z.Z.Z.Z."
};
