/* XPM */
static char *result[] = {
/* columns rows colors chars-per-pixel */
"50 50 27 1 ",
"  c #BFA887",
". c #C3AB87",
"X c #C5AE8D",
"o c #C6B08F",
"O c #C7B293",
"+ c #CAB595",
"@ c #CBB799",
"# c #CEBA9C",
"$ c #D1BC9D",
"% c #CEBCA1",
"& c #D2BEA2",
"* c #D6C09E",
"= c #D5C2A5",
"- c #D9C5A6",
"; c #D6C4AA",
": c #D9C6AB",
"> c #DCC9AE",
", c #DDCCB2",
"< c #DFCFB8",
"1 c #E0CDAE",
"2 c #E0CFB4",
"3 c #E3D1B5",
"4 c #E4D3BA",
"5 c #E8D8BF",
"6 c #E7D7C0",
"7 c #E9D9C1",
"8 c None",
/* pixels */
"88888888888888888888888888888888888888888888888888",
"88888888888888888888888888888888888888888888888888",
"88888888888888888888888888888888888888888888888888",
"88888888888888888888888888888888888888888888888888",
">----$######X.X$$&:1:&$=&;::1:12233>=*+#:>;;==;,34",
"::-=$$#$%&&@O#-;-----$$&;;;:12221>-*+ *=>-*=*===;>",
"==&##%&&&&%&:22:::--&$-&&=;::122:**+@=>>=*=====;::",
"#@#%&####%&;>>-1::&&&&&;=&-::111=*=:>>=*=:>>;:::>:",
"=#=@XOO++#$--==&==%###=#&:22>11*=-31>=*=:1443432>>",
"+++. @+#&&:=$$$$##@OO#=-,442>--->43,===::35432>>,3",
".ooo%%;&;:::&$#$OOOO%=*>42,>-:>,<44;;=;=:341>:>,33",
"+##$&,;;,>:=&$&$##@=>:>1>-:::,244,,;;;*;:1>=-:>44<",
"#@@#;&;,:;;===&=###=:>11>:>>>3,22>:=====>>--244445",
"OO@&&;<,>;&;;::-=*#=-1--->>>>>1>,;*#%===>>,3445444",
"@@#;,<;;;;&;:1:;--=:1***=--->>>>;=#=;;:>>1232>:-::",
":;,<<,;,;;:>22:2>->1*@***$*111>-=%=,,,>233>=#@**=;",
",4422-&&;>,,222:->2-@#*=$$>1>21>;=:13,,<,>==**-1,,",
",,,11$#$>>2122,,>>=##&-**-31-1,-:,43,2,,,,;=11334<",
"&,1>&%#$:1:2,>2,>=%#=,-=*13>>>,><3,;;>,3,,,>133324",
":,-1&$#1-&-;>>1:=%%;<<,,3311>>><3,*=;,,,,343133322",
":::&#@$&&&--::;&%%=<,,,<4,,>>,43:;;>>>>33444331122",
"::1&+&&1--&--;&&%%,,<<4422,,3,:=:2<<1134344411>,::",
"11&$&--1-$$$&&;&:;<<454,>222,%%,<<313344422>,:-;;;",
"-1&-;11-$#$$&&--,<4554;,<4<2:%>4,>3133132>:;>>;=&&",
"1$#&11:&#&;::,,24776<,;;<<<<;><2,234331>;;;;,:;=;&",
"$#$-1-&&&;:,,211,44<<;;><<4,;;><2344311::,<42<,,;;",
"$$--::;&;:->>1>->,,,;;;,<46,;>>>>3<<1111,,24<<<<22",
"$111:;;;;:>,>-&-,1,;,,>,444;>::>,255331:;><<,,<242",
"&;,,>:::,>>>-*&-22>>,,,,,,>>;;,,,,<<,:==;,,,22<22>",
"&::,&&&:;,,;&$=:>1>>,,,,,,>>>>,,<<,>;%#=;<42222<>;",
":-;&&&:,,,;::=-:>>223,,,22,>,2<2,;;=%==1444442,>&&",
"$&&&,:::>;,,>==-:>,24443333,2,,,;;%=;>4554332>;&&;",
"$&::>>;;;,22-==;-,><44433,>:,,;&;;;<47754443>:;;<<",
"&&::>;;;,24-;=;:>:,,2222,:;;;;,,<<4666543231-:;;&,",
";>;&;:,244,;;;-:;>,--:-;;:,<<<444664444421,,:;,;&<",
",,>2<2244,&;;:;;;,::->:;->,,22<24664542,>>,,,::%%<",
">>,<4442<&&;,>:,<<<,2,>>,,>->->34444222,<;<,;;%%,&",
",,2242<;&&:,,;,<44,,2::::-;;:-:,64222>22<<<,;%%;&&",
">,,22,;&,,,>&;>;,,,,>-::,>:;;,-,42221,22<,<&&&;;;<",
";;>2,;;,,<2>,2:;;>,>::;,42;;;:,,2,2>--:24;%;<;;<64",
":>,,;&;;,<42,,;:,,,,;;;;<<;;;;,,>2,;;:24,;>4,;,<42",
"<<2,;&&;,442,;:2>,;;>;;,<<<;;<;;:22>>,22;;,,,::>>1",
"22,:;&&&;444222,>;>;;;,<4<,,<<<;,,<<2<,2,;,::::;>&",
",-;;:;#$;2244222,>:;;;<<4<<<<4;;<,,<<,2,,,,;1>:&&&",
"==;>2=##>32424224,==;,<2<<<44<;,,&,,,<<,,,,,>>&&&;",
":;><2&#&144442222;;;:<,<<<4<2<<,;,<<,,;,2>241&&&&,",
"88888888888888888888888888888888888888888888888888",
"88888888888888888888888888888888888888888888888888",
"88888888888888888888888888888888888888888888888888",
"88888888888888888888888888888888888888888888888888"
};
