/* XPM */
static char *star[] = {
/* columns rows colors chars-per-pixel */
"64 64 216 2 ",
"   c #010101",
".  c #060607",
"X  c #1A1804",
"o  c #1E1A10",
"O  c #2A2A01",
"+  c #29230C",
"@  c #1D1D26",
"#  c #521F10",
"$  c #542111",
"%  c #572816",
"&  c #5B2A14",
"*  c #5A2F1A",
"=  c #5D341E",
"-  c #612D13",
";  c #69331B",
":  c #723B17",
">  c #6F3E25",
",  c #7C4416",
"<  c #69472A",
"1  c #7E4126",
"2  c #775534",
"3  c #775937",
"4  c #7F623D",
"5  c #333344",
"6  c #3F3F54",
"7  c #404055",
"8  c #51516D",
"9  c #535370",
"0  c #615D6C",
"q  c #834A17",
"w  c #814D1F",
"e  c #88511A",
"r  c #93581A",
"t  c #9F631A",
"y  c #A3661B",
"u  c #A96B1C",
"i  c #B8791D",
"p  c #905A2A",
"a  c #975233",
"s  c #995533",
"d  c #9D5A33",
"f  c #9B5D38",
"g  c #A05D35",
"h  c #8F6333",
"j  c #9F653E",
"k  c #9B7B37",
"l  c #A76C2A",
"z  c #B26E2D",
"x  c #AD742A",
"c  c #B7732B",
"v  c #B77728",
"b  c #A76838",
"n  c #B7783C",
"m  c #C27D29",
"M  c #896D44",
"N  c #987748",
"B  c #A36E44",
"V  c #A87649",
"C  c #B37B45",
"Z  c #8D8D00",
"A  c #909003",
"S  c #AAAA02",
"D  c #B2872A",
"F  c #B5933D",
"G  c #BC9D38",
"H  c #B6B636",
"J  c #C4831F",
"K  c #C8871F",
"L  c #DC961F",
"P  c #C6A11C",
"I  c #D1B316",
"U  c #E3AA1A",
"Y  c #E7B61B",
"T  c #C48224",
"R  c #C68228",
"E  c #CB8828",
"W  c #D18E24",
"Q  c #D79625",
"!  c #DB9622",
"~  c #DD9922",
"^  c #C69335",
"/  c #DA9C34",
"(  c #E09D24",
")  c #D4A931",
"_  c #E3A22B",
"`  c #E2A828",
"'  c #E6A730",
"]  c #E7A831",
"[  c #E9AB34",
"{  c #E3A93A",
"}  c #EDB23C",
"|  c #E5BA3A",
" . c #F0B53E",
".. c #D9D409",
"X. c #EAC115",
"o. c #E1CD10",
"O. c #E9D910",
"+. c #E7E700",
"@. c #F5EE05",
"#. c #F7E90A",
"$. c #FAF502",
"%. c #FFFF00",
"&. c #FFF70E",
"*. c #FFFB09",
"=. c #F4E213",
"-. c #FFED1D",
";. c #FFF412",
":. c #FFFF10",
">. c #FFF019",
",. c #FFFF1D",
"<. c #D6C028",
"1. c #ECCC25",
"2. c #F5C93A",
"3. c #FFDF35",
"4. c #F8D339",
"5. c #FFDC3B",
"6. c #FEE625",
"7. c #FFEA24",
"8. c #FFE32E",
"9. c #FFFE2A",
"0. c #FFE231",
"q. c #FFFF37",
"w. c #9A8252",
"e. c #BF8341",
"r. c #AE8151",
"t. c #AB8F51",
"y. c #A38B58",
"u. c #B28B58",
"i. c #B4935A",
"p. c #B9935D",
"a. c #AF9861",
"s. c #B59D64",
"d. c #BF9D64",
"f. c #BCA469",
"g. c #BCA56A",
"h. c #BABA6C",
"j. c #C28641",
"k. c #CA9347",
"l. c #D49D48",
"z. c #C39555",
"x. c #D9AB46",
"c. c #DAA54B",
"v. c #D7A956",
"b. c #DAB351",
"n. c #E3AB45",
"m. c #E2A949",
"M. c #E9B74B",
"N. c #F3BA44",
"B. c #F6BF48",
"V. c #E9BA56",
"C. c #F3BF51",
"Z. c #C0A167",
"A. c #C5A769",
"S. c #C8AB6E",
"D. c #D5B065",
"F. c #D9B061",
"G. c #D6B66B",
"H. c #C9AE72",
"J. c #CBB474",
"K. c #CDB574",
"L. c #D5BA74",
"P. c #D2BB79",
"I. c #D8BE78",
"U. c #EABF78",
"Y. c #F9C34C",
"T. c #FBC54C",
"R. c #FFD742",
"E. c #FFD34B",
"W. c #E8C357",
"Q. c #F8C453",
"!. c #FFCC55",
"~. c #FFCD58",
"^. c #FFD153",
"/. c #FFFC48",
"(. c #FAE653",
"). c #FFFF54",
"_. c #FCF55E",
"`. c #D7C07C",
"'. c #D9C27D",
"]. c #FFD063",
"[. c #F3CE73",
"{. c #FFFE63",
"}. c #FEFC6C",
"|. c #FFFF71",
" X c #646486",
".X c #66668A",
"XX c #68688C",
"oX c #73728C",
"OX c #AAAA88",
"+X c #AAAAAB",
"@X c #E8CB8F",
"#X c #FFDB86",
"$X c #FFFF84",
"%X c #FFFF8C",
"&X c #F5E19A",
"*X c #FFFC96",
"=X c #DDD4BA",
"-X c #E3D6BC",
";X c #F3DCB3",
":X c #FCE8AE",
">X c #FFFFA2",
",X c #FFFFAA",
"<X c #FDE7B6",
"1X c #FFFFB4",
"2X c #FCF6B8",
"3X c #BABAC9",
"4X c #FAE8C4",
"5X c #FFFFC1",
"6X c #FFFFCC",
"7X c #FFFEDA",
"8X c #E5E5EB",
"9X c #FFF7E3",
"0X c #FFFFE6",
"qX c #FBF6E9",
"wX c #FFFEF2",
"eX c #FFFFFF",
/* pixels */
"'.'.'.'.'.'.'.'.'.'.'.'.'.'.'.'.'.'.'.'.'.'.'.'.'.'.'.'.'.r.s s s s p.'.'.'.'.'.'.'.'.'.'.'.'.'.'.'.'.'.'.'.'.'.'.'.'.'.'.'.'.'.",
"'.'.'.'.'.'.'.'.'.'.'.'.'.'.'.'.'.'.'.'.'.'.'.'.'.'.'.'.'.r.s s s s p.'.'.'.'.'.'.'.'.'.'.'.'.'.'.'.'.'.'.'.'.'.'.'.'.'.'.'.'.'.",
"'.'.'.'.'.'.'.'.'.'.'.'.'.'.'.'.'.'.'.'.'.'.'.'.'.'.'.'.'.p.c c v c z.'.'.'.'.'.'.'.'.'.'.'.'.'.'.'.'.'.'.'.'.'.'.'.'.'.'.'.'.'.",
"'.'.'.'.'.'.'.'.'.'.'.'.'.'.'.'.'.'.'.'.'.'.'.'.'.'.'.'.'.v.~ ~ L ( v.'.'.'.'.'.'.'.'.'.'.'.'.'.'.'.'.'.'.'.'.'.'.'.'.'.'.'.'.'.",
"'.'.'.'.'.'.'.'.'.'.'.'.'.'.'.'.'.'.'.'.'.'.'.'.'.'.'.`.`.c.Q ~ ~ ~ v.'.'.'.'.'.'.'.'.'.'.'.'.'.'.'.'.'.'.'.'.'.'.'.'.'.'.'.'.'.",
"'.'.'.'.'.'.'.'.'.'.'.'.'.'.'.'.'.'.'.'.'.'.'.'.'.'.G.c.c.@X4X&X=.#.) r.r.K.'.'.'.'.'.'.'.'.'.'.'.'.'.'.'.'.'.'.'.'.'.'.'.'.'.'.",
"'.'.'.'.'.'.'.'.'.'.'.'.'.'.'.'.'.'.'.'.'.'.'.'.'.'.D.! ~ ;XeX6X:.*.I a s S.'.'.'.'.'.'.'.'.'.'.'.'.'.'.'.'.'.'.'.'.'.'.'.'.'.'.",
"'.'.'.'.'.'.'.'.'.'.'.'.'.'.'.'.'.'.'.'.'.'.'.'.'.'.D.~ ~ <XeX6X*.%.I a f S.'.'.'.'.'.'.'.'.'.'.'.'.'.'.'.'.'.'.'.'.'.'.'.'.'.'.",
"'.'.'.'.'.'.'.'.'.'.'.'.'.'.'.'.'.'.'.'.'.'.'.'.'.'.D.! ~ ;XeX6X:.%.I s f S.'.'.'.'.'.'.'.'.'.'.'.'.'.'.'.'.'.'.'.'.'.'.'.'.'.'.",
"'.'.'.'.'.'.'.'.'.'.'.'.'.'.'.'.'.'.'.'.'.'.'.'.'.'.D.! ~ ;XeX6X*.*.I a s S.'.'.'.'.'.'.'.'.'.'.'.'.'.'.'.'.'.'.'.'.'.'.'.'.'.'.",
"'.'.'.'.'.'.'.'.'.'.'.'.'.'.'.'.'.'.'.'.'.'.'.`.D.D.b.X.Y :XeX7X}.{.W.F e.p.Z.A.I.'.'.'.'.'.'.'.'.'.'.'.'.'.'.'.'.'.'.'.'.'.'.'.",
"'.'.'.'.'.'.'.'.'.'.'.'.'.'.'.'.'.'.'.'.'.'.'.L./ ~ X.%.%.,XeXeXeXeX:X!.!.n a N P.'.'.'.'.'.'.'.'.'.'.'.'.'.'.'.'.'.'.'.'.'.'.'.",
"'.'.'.'.'.'.'.'.'.'.'.'.'.'.'.'.'.'.'.'.'.'.'.L./ ~ X.*.*.>XeXeXeXeX<X!.!.n a B P.'.'.'.'.'.'.'.'.'.'.'.'.'.'.'.'.'.'.'.'.'.'.'.",
"'.'.'.'.'.'.'.'.'.'.'.'.'.'.'.'.'.'.'.'.'.'.'.L./ ! W.>X,X0XeXeXeXeX*X-.-.v a B P.'.`.`.'.'.'.'.'.'.'.'.'.'.'.'.'.'.'.'.'.'.'.'.",
"'.'.'.'.'.'.'.'.'.'.'.'.'.'.'.'.'.'.'.'.'.'.'.L./ L U.eXeXeXeXeXeXeX%X%.$.D a B P.I.@X`.'.'.'.'.'.'.'.'.'.'.'.'.'.'.'.'.'.'.'.'.",
"'.'.'.'.'.'.'.'.'.'.'.'.'.'.'.'.'.'.'.'.'.L.L.G.` U [.eXeXeXeXeXeXeX%X%.$.^ z C S.K.J.`.'.'.'.'.'.'.'.'.'.'.'.'.'.'.'.'.'.'.'.'.",
"'.'.'.'.'.'.'.'.'.'.'.'.'.'.'.'.'.'.'.'.'.c.~ ` #.%.{.eXeXeXeXeXeXeX%X%.*.4.Q.M.b f i.'.'.'.P.P.'.'.'.'.'.'.'.'.'.'.'.'.'.'.'.'.",
"'.'.'.'.'.'.'.'.'.'.'.'.'.'.'.`.'.'.'.'.`.c.! ` $.%.{.eXeXeXeXeXeXeX%X%.%.R.~.M.f a u.'.'.'.'.@X'.'.'.'.'.'.'.'.'.'.'.'.'.'.'.'.",
"'.'.'.'.'.'.'.'.'.'.'.'.'.'.'.I.F.F.F.F.F.| X.1.}.|.,XeXeXeXeXeXeXeX%X%.%.7.8.4.k.j.p.z.d.d.d.A.'.'.'.'.'.'.'.'.'.'.'.'.'.'.'.'.",
"'.'.'.'.'.'.'.'.'.'.'.'.'.'.'.L./ ~ ~ ~ ~ #.%.9.0XeXeXeXeXeXeXeXeXeX%X%.%.%.%.&.^.^.c.s s a s V `.'.'.'.'.'.'.'.'.'.'.'.'.'.'.'.",
"'.'.'.'.'.'.'.'.'.`.`.`.`.'.'.G./ ~ ~ ! ~ =.%.9.0XeXeXeXeXeXeXeXeXeX%X*.*.%.%.&.E.^.c.s p s f V L.'.@XP.P.`.`.`.'.'.'.'.'.'.'.'.",
"'.'.'.'.'.'.'.I.v.c.c.c.c.c.c.n.=.O.(.4X<X2X1X5XwXeXeXeXeXeXeXeXeXeX7X1X1Xq.%.*.>.>.=.o.o.| m.l.r.r.r.r.r.r.r.u.P.'.'.'.'.'.'.'.",
"'.'.'.'.'.'.'.L./ ! ! ! ~ ~ ! U %.%.|.eXeXeXeXeXeXeXeXeXeXeXeXeXeXeXeXeXeX/.%.%.%.%.%.%.%.5.^.M.d s s s a s a B P.'.'.'.'.'.'.'.",
"L.L.L.L.L.L.L.G._ U ` n.{ n.n.| 9.9.$XeXeXeXeXeX9X9X9X9XqXwXeXeXeXeXwXqX7X/.&.&.%.%.%.%.%.8.E.M.x l l l l b b C H.L.K.K.L.K.K.K.",
"/ / / / / / / _ #.$._.qXqXqXqXqX9X0XwXeXeXeXeX9X[.].].].[.4XeXeXeXeX<X].].^.!.R.*.%.%.%.%.%.*.*.@.@.@.@.@.2.C.M.B j f j j B j j ",
"~ ~ ~ ~ ! ! ! U $.%.{.eXeXeXeXeXeXeXeXeXeXeXeXqX~.^.~.^.~.4XeXeXeXeX:X!.^.^.^.E.*.%.%.%.%.%.%.%.%.%.%.%.*.R.~.M.g a a a a a a a ",
"R m Q X.X.W.U.[.{.{.>XeXeXeXeXeXeXeXeXeXeXeXeXqXH.g.i.D D =XeXeXeXeX-XZ.g.t.k D @.%.%.%.%.%.%.%.%.%.%.%.%.7.3.4.^ j.e.^ ^ s > 1 ",
"a a P %.%.2XeXeXeXeXeXeXeXeXeXeXeXeXeXeXeXeXeX8XoX.X6     +XeXeXeXeX3X X X@   O +.%.%.%.%.%.%.%.%.%.%.%.%.%.%.&.!.~.~.!.Q.d # # ",
"s a P %.*.1XeXeXeXeXeXeXeXeXeXeXeXeXeXeXeXeXeX8XoXXX6     +XeXeXeXeX3X X0 @ . O +.%.%.%.%.%.%.%.%.%.%.%.%.%.%.&.E.!.!.~.!.p # # ",
"s a P %.*.q.).).).).*XeXeXeXeXeXeXeXeXeXeX:X#X@XXXXX6     +XeX0X_.).h..XXX@   + 2.0.6.%.%.%.%.%.%.%.>.5.3.5.5.4.[ [ [ [ ] w # $ ",
"s a P *.%.%.%.%.%.%.{.eXeXeXeXeXeXeXeXeXeX#XT.V.oXoX7   . +XeX6X*.%.H .X X@   + M.~.3.%.%.%.%.%.%.%.7.~.~.~.~.T.( ! ! L ~ , $ $ ",
"V V ^ +.O.&.;.&.%.%.).6X6X6X6X7XeXeXeXeXwX#X!.V.9 9 5     OX6X>X*.%.H 8 8 @   + M.~.3.%.%.%.%.%.;.;.8.~.~.Y.Y.N.( ! L D T h 4 h ",
"P.`.d.d b n.!.R.*.%.*.:.:.:.:.q.wXeXeXeXeX#X^.x.o .       S :.*.%.%.A . .     + M.~.0.%.%.%.%.&.E.E.~.~.!.[ ~ ~ ~ ~ u & - s.P.P.",
"'.'.d.s s m.^.E.*.%.%.%.%.%.%.q.wXeXeXeXeX#X!.x.X       . S %.%.%.%.Z         + V.~.5.%.%.%.%.;.!.!.~.!.~.] L ~ ( ( u # $ f.'.'.",
"'.'.H.p.i.k.l.l.6.6.7.6.6.;.%.,.$X%X%X%X%X(.8.<.X         S %.%.%.%.Z         + 1.0.-.%.%.>.6.0.E.~.Y.} } ` L W u y k w.y.J.'.'.",
"'.'.'.'.'.r.a b Q.~.!.~.~.-.%.%.%.%.%.%.%.%.%...X         S %.%.%.%.Z         O +.%.%.%.%.5.!.~.~.~.} L ~ ~ ~ J - # N @X`.'.'.'.",
"'.'.'.'.'.V f b C.Q.~.!.!.-.%.%.%.%.%.%.%.%.%...X   . . . S %.%.%.%.A       . O +.%.%.%.%.5.~.~.!.~.} ~ ~ ! Q J ; % w.'.'.'.'.'.",
"'.'.'.'.'.H.H.Z.C n ^ _ ] 2.5.0.*.%.%.%.%.%.%.@.G F F F t.O.%.%.%.%.o.F F F F ) @.%.>.5.5.E.~.T.[ _ _ ~ ~ r , h f.g.J.'.'.'.'.'.",
"'.'.'.'.'.'.'.K.g a z ( ! N.~.E.*.%.%.%.%.%.%.&.E.~.^.~.~.-.%.%.%.%.7.~.^.~.~.E.*.%.7.!.!.!.~.Y.~ ~ ~ ~ ~ , # 2 P.`.'.'.'.'.'.'.",
"'.'.'.'.'.'.'.K.B a z W ! n.Y.4.%.%.%.%.%.%.%.&.R.E.E.R.R.-.%.%.%.%.7.E.E.R.E.R.;.&.8.~.~.Q.T.N.( ~ Q W W , # 2 P.'.'.'.'.'.'.'.",
"'.'.'.'.'.'.'.K.j s s g g E ( Y $.%.%.%.%.%.%.%.*.*.*.*.*.%.%.%.%.%.*.*.*.*.*.;.E.T.^.~.!.[ ( ~ ! L m g s ; $ 3 P.`.'.'.'.'.'.'.",
"'.'.'.'.'.'.'.K.j s s s s T ~ U %.%.%.%.%.%.%.%.%.%.%.%.%.%.%.%.%.%.%.%.%.%.%.&.E.!.!.!.!.' ~ ~ ( ( m s s ; $ 3 P.'.'.'.'.'.'.'.",
"'.'.'.'.'.'.'.P.i.i.V s s R ( ` 6.7.;.%.%.%.%.%.%.%.%.%.%.%.%.*.-.7.7.7.-.7.7.6.E.!.!.~.!.[ ! Q m m l > 1 N w.t.P.'.'.'.'.'.'.'.",
"'.'.'.'.'.'.'.'.'.'.Z.s s T ( _ Q.~.8.%.%.%.%.%.%.%.%.%.%.%.%.;.^.!.!.!.!.~.~.!.~.!.!.!.~.[ L W g s 1 $ * g.'.'.'.'.'.'.'.'.'.'.",
"'.'.'.'.'.'.'.'.`.'.Z.s s R ( _ !.~.8.%.%.%.%.%.%.%.%.%.%.*.%.;.^.Q.^.~.~.!.!.!.~.!.!.!.!.' ~ W d g : # * g.'.'.'.'.'.'.'.'.'.'.",
"'.'.'.'.'.'.'.'.`.`.Z.s s R ( _ T.~.0.%.%.%.%.%.%.%.>.5.5.X.Y Y [ ]  .!.!.!.!.!.!.!.!.!.~.' L ! T R r # = g.'.'.'.'.'.'.'.'.'.'.",
"'.'.'.'.'.'.'.'.P.`.Z.s s T L _ !.~.8.%.%.%.%.%.%.%.7.!.~.[ ! ~ ~ L [ ~.!.!.!.!.!.!.!.!.~.' L ~ ( ( l $ * g.'.'.'.'.'.'.'.'.'.'.",
"'.'.'.'.'.'.'.'.@X'.Z.a d E _ ' !.~.8.%.%.&.;.;.#.#.=.Y.Y.' ~ ~ ~ ~ [ T.Y.Y.Y.T.!.!.!.!.!.} _ _ ( L y $ * g.'.'.'.'.'.'.'.'.'.'.",
"'.'.'.'.'.'.'.'.'.'.Z.s s c.!.!.!.!.8.%.%.5.!.T.` ( ~ ( ~ ~ ~ ~ ~ ~ ~ ~ ~ ~ ~ _ T.!.!.!.!.!.Q.N.( ( t # * g.'.'.'.'.'.'.'.'.'.'.",
"'.'.'.'.'.'.'.'.'.'.Z.s s c.!.!.!.~.8.%.%.5.~.Y.( L ~ ~ ~ ! ~ ~ ~ ~ ~ ~ ~ ~ ~ ` !.!.~.!.!.~.^.Y.( L t # * A.'.'.'.'.'.'.'.'.'.'.",
"'.'.'.'.'.'.'.'.'.'.A.c c n.!.!.!.!.5.7.8.2. .} ~ ~ ~ ~ ~ ~ ~ ~ ~ ~ ~ ~ ~ ~ ~ ( }  .B.!.!.!.!.Y.( ( i r p S.'.'.'.'.'.'.'.'.'.'.",
"'.'.'.'.'.'.'.'.'.'.F.~ ( N.!.!.!.~.~.~.!._ ! ! ~ ~ ~ ~ ~ ~ ~ ~ ~ ~ ~ ~ ~ ~ ~ L ~ ~ [ !.!.!.!.Y.( L ( L ~ G.'.'.'.'.'.'.'.'.'.'.",
"'.'.'.'.'.'.'.'.'.'.D.! ~ N.~.!.!.!.!.!.!._ ~ ~ ~ ~ L L ! Q L ! ! ! ! ! L L L ~ ~ L [ ~.~.!.~.Y.( ( ~ ~ ~ G.'.'.'.'.'.'.'.'.'.'.",
"'.'.'.'.'.'.'.'.'.'.D.! ~ N.~.!.!.!.N.' ' ( ~ ~ ~ ~ i , , , , , , , , , , J ~ ~ ~ L _ ' ] Y.!.!.N.N.[ ~ ~ G.'.'.'.'.'.'.'.'.'.'.",
"'.'.'.'.'.'.'.'.'.'.D.Q ~  .!.!.!.!. .~ ~ ~ ~ ~ ~ ( u # # # $ # $ # $ $ & i ( ~ ~ ( ~ L ~ N.~.^.~.~. .~ Q G.'.'.'.'.'.'.'.'.'.'.",
"'.'.'.'.'.'.'.'.K.K.v._ _ Y.!.!.T.T.} ~ ( K K K K K l 2 3 3 3 3 3 3 3 3 2 x K K K K K ~ ~ } T.T.~.~. ._ ' A.K.K.'.'.'.'.'.'.'.'.",
"'.'.'.'.'.'.I.K.V j j.!.Q.~.~.Y.( ( ~ ~ L q & - - & w.J.K.P.P.P.P.P.P.J.P.M - - - & r ~ ~ ( ~ ' !.!.!.Q.Y.h < h P.'.'.'.'.'.'.'.",
"'.'.'.'.'.'.'.K.j a e.~.~.~.!.Y.` ( ( ~ ~ , $ $ $ $ w.'.'.'.'.'.K.@X'.'.`.M $ $ $ % e ~ ( ~ ~ ` Q.~.!.^.Q.2 # 3 P.'.'.'.'.'.'.'.",
"'.'.'.'.'.'.'.L.j a D N. .N. .{ u u u u u N w.w.w.w.f.'.'.'.'.'.`.'.'.'.'.a.w.w.w.w.N u u u u i }  .N.N. ., # 3 K.'.'.'.'.'.'.'.",
"'.'.'.'.'.'.'.K.j a c ( ~ ! ~ J & $ $ $ * g.'.'.'.'.'.'.'.'.'.'.'.'.'.'.'.'.'.'.'.'.i.$ $ $ # : Q ~ ~ ( ~ , $ 3 P.'.'.'.'.'.'.'.",
"'.'.'.'.'.'.'.K.B a z ~ ~ ! ~ J & % % $ = g.'.'.'.'.'.'.'.'.'.'.'.'.'.'.'.'.'.'.'.'.a.% % % % : Q ~ L ~ ! , $ 3 P.'.'.'.'.'.'.'.",
"'.'.'.'.'.'.'.K.2 ; : q q q q h f.f.f.f.f.P.'.'.'.'.'.'.'.'.'.'.'.'.'.'.'.'.'.'.'.'.J.f.f.f.f.a.w q q q q & $ 3 P.'.'.'.'.'.'.'.",
"'.'.'.'.'.'.'.H.< # $ $ $ $ # 4 P.'.'.'.'.'.'.'.'.'.'.'.'.'.'.'.'.'.'.'.'.'.'.'.'.'.'.'.`.`.'.J.< $ $ $ $ $ $ 3 P.'.'.'.'.'.'.'.",
"'.'.'.'.'.'.'.K.< $ $ $ $ $ $ 4 `.'.'.'.'.'.'.'.'.'.'.'.'.'.'.'.'.'.'.'.'.'.'.'.'.'.'.'.'.'.'.H.= $ $ $ $ $ $ 3 P.'.'.'.'.'.'.'."
};
