/* XPM */
static char *tree[] = {
/* columns rows colors chars-per-pixel */
"64 64 236 2 ",
"   c #3A2316",
".  c #3B261A",
"X  c #3E291D",
"o  c #362115",
"O  c #412A1E",
"+  c #4B2D1C",
"@  c #462916",
"#  c #44311E",
"$  c #58321B",
"%  c #562D17",
"&  c #663619",
"*  c #763B19",
"=  c #432C20",
"-  c #4E3B25",
";  c #553C24",
":  c #683F22",
">  c #7D4015",
",  c #58442B",
"<  c #62482B",
"1  c #774927",
"2  c #6A5635",
"3  c #745735",
"4  c #78623E",
"5  c #7C6A43",
"6  c #863A14",
"7  c #874419",
"8  c #93441E",
"9  c #A2471A",
"0  c #964B22",
"q  c #975529",
"w  c #895934",
"e  c #985F36",
"r  c #844E2B",
"t  c #A5552A",
"y  c #A8592A",
"u  c #B75A28",
"i  c #A85B30",
"p  c #9C663A",
"a  c #8B663D",
"s  c #A7612F",
"d  c #AC693A",
"f  c #BB6D3A",
"g  c #B86938",
"h  c #B9733F",
"j  c #B36935",
"k  c #C55E26",
"l  c #CC652C",
"z  c #C66329",
"x  c #DC6D2B",
"c  c #D3672B",
"v  c #DF722F",
"b  c #CB6C34",
"n  c #C26D39",
"m  c #C46A35",
"M  c #D36D34",
"N  c #D96A30",
"B  c #C4733C",
"V  c #CC733B",
"C  c #CB793A",
"Z  c #DC7234",
"A  c #D4743A",
"S  c #DC763B",
"D  c #DC7A3D",
"F  c #D67837",
"G  c #E36E2B",
"H  c #E76C26",
"J  c #E9732D",
"K  c #E27434",
"L  c #EB7633",
"P  c #EB7A35",
"I  c #E37C3C",
"U  c #EB7D3B",
"Y  c #E27736",
"T  c #F07B2E",
"R  c #886E45",
"E  c #9C6E42",
"W  c #976D43",
"Q  c #8A744A",
"!  c #97794C",
"~  c #A47242",
"^  c #A97747",
"/  c #BD7642",
"(  c #BC7E49",
")  c #B77A46",
"_  c #B06B42",
"`  c #C67640",
"'  c #C57B44",
"]  c #CC7C44",
"[  c #C77B44",
"{  c #D47C42",
"}  c #DC7D43",
"|  c #D77A44",
" . c #E77E41",
".. c #DD813C",
"X. c #EC843C",
"o. c #E4833A",
"O. c #F28A3C",
"+. c #9E8353",
"@. c #9A8656",
"#. c #AC8148",
"$. c #BD834D",
"%. c #B8844C",
"&. c #A78957",
"*. c #B58B55",
"=. c #BB8B55",
"-. c #BE8751",
";. c #AB945B",
":. c #BA975E",
">. c #AD9761",
",. c #B59C64",
"<. c #BB9C63",
"1. c #BCA469",
"2. c #BAA166",
"3. c #C5834C",
"4. c #CA854C",
"5. c #CB8A4F",
"6. c #CD8143",
"7. c #DB8245",
"8. c #D2854B",
"9. c #DC854A",
"0. c #DC8B4D",
"q. c #D68847",
"w. c #D9964B",
"e. c #C28B54",
"r. c #CA8D54",
"t. c #D28D52",
"y. c #DC8E54",
"u. c #CC9156",
"i. c #C3935A",
"p. c #CC955A",
"a. c #CC995D",
"s. c #C4945B",
"d. c #D49255",
"f. c #DB9355",
"g. c #DB9954",
"h. c #D4955A",
"j. c #D59B5E",
"k. c #DD9A5C",
"l. c #D89857",
"z. c #E38343",
"x. c #EA8444",
"c. c #EA8C44",
"v. c #E28649",
"b. c #E48B4B",
"n. c #EA8C4B",
"m. c #E48A46",
"M. c #E3954E",
"N. c #ED934C",
"B. c #EC9A4B",
"V. c #E79345",
"C. c #F1954B",
"Z. c #F19446",
"A. c #E18D51",
"S. c #EA8B51",
"D. c #E39454",
"F. c #EB9453",
"G. c #E39C53",
"H. c #EC9B54",
"J. c #E49659",
"K. c #E49C5B",
"L. c #EC9C5B",
"P. c #EF955A",
"I. c #F29C54",
"U. c #F29E5A",
"Y. c #F19457",
"T. c #F08646",
"R. c #DEA25A",
"E. c #C9A15B",
"W. c #F2A44D",
"Q. c #ECA254",
"!. c #E3A25D",
"~. c #ECA35B",
"^. c #ECAB5D",
"/. c #E9AB58",
"(. c #F3A455",
"). c #F3A45B",
"_. c #F4AA5D",
"`. c #F7AB5A",
"'. c #ECAE59",
"]. c #CA9D61",
"[. c #D39D61",
"{. c #D99E61",
"}. c #E59F64",
"|. c #CDA164",
" X c #C4AA6D",
".X c #CCAC6D",
"XX c #C7A467",
"oX c #D4A364",
"OX c #DBA363",
"+X c #DCA966",
"@X c #D1A768",
"#X c #D3AC6C",
"$X c #DBAC6B",
"%X c #D4A867",
"&X c #D6B16F",
"*X c #DDB26F",
"=X c #C6AF71",
"-X c #CCB474",
";X c #CFB876",
":X c #C5B071",
">X c #D4B472",
",X c #DCB572",
"<X c #D4B976",
"1X c #DCBA75",
"2X c #D4BC79",
"3X c #DBBE7A",
"4X c #C9B067",
"5X c #E3A564",
"6X c #ECA462",
"7X c #E4AB65",
"8X c #EBAB63",
"9X c #E2AC6B",
"0X c #EBAD6A",
"qX c #F2A665",
"wX c #F4AC62",
"eX c #F4AD67",
"rX c #EBB365",
"tX c #EDBA64",
"yX c #E3B26D",
"uX c #EBB46B",
"iX c #EBBA6B",
"pX c #E5B667",
"aX c #F4B363",
"sX c #F3B868",
"dX c #E3B572",
"fX c #E4BA74",
"gX c #EABA73",
"hX c #E5B975",
"jX c #D7C07C",
"kX c #D9C27D",
"lX c #DFC97E",
"zX c #EECC6D",
"xX c #F5C467",
"cX c #E4C375",
"vX c #E3C87A",
"bX c #F1C772",
/* pixels */
"kXkXkXkXkXkXkXkXkXkXkXkXkXkXkXkXkXkXkXkXkXkXkXkXkXkXkXkXkXkXkXkXkXkXkXkXkXkXkXkXkXkXkXkXkXkXkXkXkXkXkXkXkXkXkXkXkXkXkXkXkXkXkXkX",
"kXkXkXkXkXkXkXkXkXkXkXkXkXkXkXkXkXkXkXkXkXkXkXkXkXkXkXkXkXkXkXkXkXkXkXkXkXkXkXkXkXkXkXkXkXkXkXkXkXkXkXkXkXkXkXkXkXkXkXkXkXkXkXkX",
"kXkXkXkXkXkXkXkXkXkXkXkXkXkXkXkXkXkXkXkXkXkXkXkXkXkXkXkXkXkXkXkXkXkXkXkXkXkXkXkXkXkXkXkXkXkXkXkXkXkXkXkXkXkXkXkXkXkXkXkXkXkXkXkX",
"kXkXkXkXkXkXkXkXkXkXkXkXkXkXkXkXkXkXkXkXkXkXkXkXkXkXkXkX>X.XkXkXkXkXkXkXkXkXkXkXkXkXkXkXkXkXkXkXkXkXkXkXkXkXkXkXkXkXkXkXkXkXkXkX",
"kXkXkXkXkXkXkXkXkXkXkXkXkXkXkXkXkXkXkXkXkXkXkXkXkX9XJ.9Xj.C e.>XkXkXkXkXkXkXkXkXkXkXkXkXkXkXkXkXkXkXkXkXkXkXkXkXkXkXkXkXkXkXkXkX",
"kXkXkXkXkXkXkXkXkXkXkXkXkXkXkXkXkXkXkXkXkXkXkXkX1XJ.x.Y.6XG.7.k.,XkXkX3XkXkXkXkXkXkXkXkXkXkXkXkXkXkXkXkXkXkXkXkXkXkXkXkXkXkXkXkX",
"kXkXkXkXkXkXkXkXkXkXkXkXkXkXkXkXkXkXkXkXkXkXkXkXkX5Xx.n.).H.c.n.K.*XkX9X}.gXgXkXkXkXkXkXkXkXkXkXkXkXkXkXkXkXkXkXkXkXkXkXkXkXkXkX",
"kXkXkXkXkXkXkXkXkXkXkXkXkXkXkXkXkXkXkXkXkXkXkX#X<X%XK.n.).aXC.P x.S.F.}.K.uXsXkXkXkXkXkXkXkXkXkXkXkXkXkXkXkXkXkXkXkXkXkXkXkXkXkX",
"kXkXkXkXkXkXkXkXkXkXkXkXkXkXkXkXkXkXkXkXkXjXdXoX4.8.~.B.`.aX`.P P c.^.8X0XgXuXdXkXkXkXkXkXkXkXkXkXkXkXkXkXkXkXkXkXkXkXkXkXkXkXkX",
"kXkXkXkXkXkXkXkXkXkXkXkXkXkXkXkXkXkXkXkXkXdX5X~.m.D ).I.Q.(.Z.J S P 6X~.n.v.R.r.|.kXkXkXkXkXkXkXkXkXkXkXkXkXkXkXkXkXkXkXkXkXkXkX",
"kXkXkXkXkXkXkXkXkXkXkXkXkXkXkXkXkXkXkXkXkX9X6X).).F.N.~.m.c.L x K x.n.n.X.I t.' &XkXkXkX3X>XkXkXkXkXkXkXkXkXkXkXkXkXkXkXkXkXkXkX",
"kXkXkXkXkXkXkXkXkXkXkXkXkXkXkXkXkXkXkXkXkX&Xf.D.Q.9.A.r.} n.z.0.z.U L U I.c...` .XkX|.,X9X0.k.|.kXkXkXkXkXkXkXkXkXkXkXkXkXkXkXkX",
"kXkXkXkXkXkXkXkXkXkXkXkXkXkXkXkXjXkXdX$Xr..Xd.G.~.} | z 7.z.J.h.8.K Y Z.B.Q.V.D r.r.5.8.b.n.Z z.*XkXkXkXkXkXkXkXkXkXkXkXkXkXkXkX",
"kXkXkXkXkXkXkXkXkXkXkXkXkXkXkXkXjX3XJ.| B 0.F.F.v.D  .N./.!.-.a.e.{ B.aX'.9.Y G A ' g l 0.~.H.9XkXkXkXkXkXkXkXkXkXkXkXkXkXkXkXkX",
"kXkXkXkXkXkXkXkXkXkXkXkX<XkXkXkX$X9X{. .I z.I.Y.F.$Xy.~.iXg.d  X-X%X^.rX!.c c c s.oXq.g.tXsXiXyXkXkX<X#X+XkXkXkXkXkXkXkXkXkXkXkX",
"kXkXkXkXkXkXkXkXkXkXkX[.4.@X1X*XJ.5X{. .k I ~._.uXgX~.tXzXR.A 5.1.fXrXaXa.z k o.#X!.).^.zXbXbXj.3.=.C C M.3XkXkXkXkXkXkXkXkXkXkX",
"kXkXkXkXkXkXkXkXkXkX1X$Xf.5XwX~.F.9.] n.{ K.aXaXsX`.sXxXxXq.M f ` I.H.s.! 3.n z.g./.'.Q.M.!.+X5.x F o...w.%XjXkXkXkXkXkXkXkXkXkX",
"kXkXkXkXkXkXkXkXkXkXdX0X6XeXwXG.Q.....Q._.^.aXaX`.N.tXxX'.) ].^ t F (.8.XX<X{.H.).`.(.P K Y I Z Y W.W.q.$.$.-.|.kXkXkXkXkXkXkXkX",
"kXkXkXkXkXkXkXkXkXkX1XhXeXgXeX0XG.C C M.b.o.I.(.Z.K.cXbXtXg.,.&.p ` 4.|.3XkX.Xk.wX(.M.z o.o.o.d.B W.O.F ) ( e..XkXkXkXkXkXkXkXkX",
"kXkXkXkXkXkXkXkXkXkXkXkXfXlXlX3XrXG.q.t.V Y P P b.3XvXbXzXtXXX&.0 s &.2XkX<X*.f.Z.I b 3._.(.T Z ..W.W...e.i.e.$X,XkXkXkXkXkXkXkX",
"kXkXkXkXkXkXkXkXkXkXkXkX<X@X<X>XcXsX!.!.7.f.b.Y z.,X3XhX$X$X3X*.t u =.3X>X( %.6.Y H x H.`.`.O.O./.tXQ.k.$X5.[ | !.kXkXkXkXkXkXkX",
"kXkXkXkXkXkXkXkXkXkXkXkXa.' oX8.%XsXaXH.K.3X=X8.A {.%X5.f r.<XOXM u f d.v.z $.&X$Xl.7.I.aX(.Z.Q.pXcXyX1XyXJ.m | ,XkXkXkXkXkXkXkX",
"kXkXkXkXkXkXkXkXkXkXkXkX[.A S S 0.rXsXuX$XkX<Xd.] <.8.c c 3.>XP.n ^ ' c J Z %XkXkXkX!.Z.`.C.U m.pXlX*Xk.}.y.' 5.>XkXkXkXkXkXkXkX",
"kXkXkXkXkXkXkXkXkXkXkXkX$Xz.C.N.K.&X$X[.+X$XhX9XD.) ` b 8..X3X9XE @.@X' Z k.kXkXkXfX!.!.I.X.c a.!.!.!.M.J.} | A.,XkXkXkXkXkXkXkX",
"kXkXkXkXkXkXkXkX>XkX&X#XoX!.~.).yX>Xj.7.r.&.:.y. .` 0.!.0XkXfXdXQ ,.kX,..X3X,X1X3X;X-.4.I T I {.K.k.f.A.U.Y.U L 9XkXkXkXkXkXkXkX",
"kXkXkXkXkXkXa.p.3.p.3.B M ~.!.OX9Xx.c.b.$X X:.] V 6./.sXaXsXeXqX_ ].2X2.,X9XS.}.5X&.t u x G } *.E 3.t.F.U.C.P U K.kXkXkXkXkXkXkX",
"kXkXkXkXkXkX>Xp.4.m k l c.~././.g.O.c.o.w..X&X*X&X+XeX~.).`.).U.S.J.=X1.5XS.S.Y.I f ~ u x G A ^ ^ a.8X_.I.n.b.G.3XkXkXkXkXkXkXkX",
"kXkXkXkXkXkX<X>XoXn b 9.L.rXtXpXV.V.Z.'.pXvXlXlXvXeXaXH.x.Y.).5X| 9.;.;X9XF.P.P. .d.=X5.[.0.k.f h y.Y.`.`.N.9XkXkXkXkXkXkXkXkXkX",
"kXkXkXkXkXkXkX#Xu.B D F.L.6X/.w.C G O.*XlXlXvX^.yXuXF.x. .Y ].=Xw $.:.kX1XD.y.P.z.,XjX<XjX&X' g 6.I.U.).I.x.5XkXkXkXkXkXkXkXkXkX",
"kXkXkXkXkXkX].` ' ' 7.F.P.K.M.V.F K M #.2.4X0XK.OXK.S.x. .r.@.,.r / [.kX>X_ | 9.] 4.<XkXjX].( V n.(._.8Xc.M.K.3XkXkXkXkXkXkXkXkX",
"kXkXkXkXkXkXa.r.n B C ).qXL.x.b.!.D.h.:.! y d 4.[ p.,X9X9X&X! R * E >X2X! u { | ] {.$XyX2X].) ` S C.).L.I f.3XkXkXkXkXkXkXkXkXkX",
"kXkXkXkXkXkXkX1X} S F.).uXf.} J.jX,XOXd.5.d s z c ' #XkXlX#X_ 6 9 ( XXp 1 ^ [ r.f.x.x.J.p._ i k D )._.C.G k.kXkXkXkXkXkXkXkXkXkX",
"kXkXkXkXkXkXjX&XM Z | ] &X,Xr.K.3X5X7.N h.XX@X] S ] 5XdXuXR.e.8 u k u e w $.#X+XS.x.}  ._ i t l P.wX).F.P x.7X5XkXkXkXkXkXkXkXkX",
"kXkXkXkXkXkXjX>X` K A ] ;X<XJ.P.5X9X| M g @XkXoXb.9.~.wX6XK.u.B Z P c.M.M.b r.K.U } ^ i s E t k n.wXI.8.8.L U x.K.3XkXkXkXkXkXkX",
"kXkXkXkXkXkXkXkX[.{.9.p.1X0XqXT.x.D.3.=.n ( ;.,.K.).wXU.~.0X8.w.D P W.(.~.' y Z  .A.].e.s.-.) ].oX6X6X{.y.J J U *XkXkXkXkXkXkXkX",
"kXkXkXkXkXkXkXkX3X}.J.` }.eXqXU P I 0.J.J.K.u.B I.).L.v.| p.R./.g H Z.I.6.y y S  .J.kXkX-Xi.( .X[.J.0XgXyX5Xn.K.kXkXkXkXkXkXkXkX",
"kXkXkXkXkXkXkXkXjXOX} } A.qXqXP P z.Y z.K.uX6X~.~.n.z. .m 1 g.g.b H G Z s ^ ) { S.$XkXkX2X&X].<X<Xt.l.<XkXkX3XkXkXkXkXkXkXkXkXkX",
"kXkXkXkXkXkXkXkXjX>X| y.$XdXdX}.K.%XA V [.fXdX8XyX7.N b 0 6 s r.#.0 z q *.' n A y.3XkXkXkXkX2XkXkX].<XkXkXkXkXkXkXkXkXkXkXkXkXkX",
"kXkXkXkXkXkXkXkXkXkX>X<XdX9X3XlX1X3.3.r.<XkXkX3X3Xt.N t % 6 y K.3 . & ^ iXyXr.p.@X1XkXkXkXkXkXkXkXkXkXkXkXkXkXkXkXkXkXkXkXkXkXkX",
"kXkXkXkXkXkXkXkXkXkXkX3X9X9X3XjXkX@X#X2XkXkXkXkXkX%Xy.h.a 7 0 ^ w @ # 2.gX3X-X,X1XkXkXkXkXkXkXkXkXkXkXkXkXkXkXkXkXkXkXkXkXkXkXkX",
"kXkXkXkXkXkXkXkXkXkXkXkX,X9XdX3XkXkXkXkXkXkXkXkXkXkXkXkX Xr 7 > # . - :XkXkXkXL.6XkXkXkXkXkXkXkXkXkXkXkXkXkXkXkXkXkXkXkXkXkXkXkX",
"kXkXkXkXkXkXkXkXkXkXkXkX<X3XkXkXkXkXkXkXkXkXkXkXkXkXkXkXkXp $ + = . , :XkXkXkXkXkXkXkXkXkXkXkXkXkXkXkXkXkXkXkXkXkXkXkXkXkXkXkXkX",
"kXkXkXkXkXkXkXkXkXkXkXkXlXkXkXkXkXkXkXkXkXkXkXkXkXkXkXkXkX5 . X O . , -XkXyXdXkXkXkXkXkXkXkXkXkXkXkXkXkXkXkXkXkXkXkXkXkXkXkXkXkX",
"kXkXkXkXkXkXkXkXkXkXkXkXjXjXkXkXkXkXkXkXkXkXkXkXkXkXkXkXkXQ . X O   < ].kX3XkXkXkXkXkXkXkXkXkXkXkXkXkXkXkXkXkXkXkXkXkXkXkXkXkXkX",
"kXkXkXkXkXkXkXkXkXkXkXkXkXkXkXkXkXkXkXkXkXkXkXkXkXkXkXkXkX5 . O X . > j.kXkXkXkXkXkXkXkXkXkXkXkXkXkXkXkXkXkXkXkXkXkXkXkXkXkXkXkX",
"kXkXkXkXkXkXkXkXkXkXkXkXkXkXkXkXkXkXkXkXkXkXkXkXkXkXkXkXjX4 . O X . - :XkXkXkXkXkXkXkXkXkXkXkXkXkXkXkXkXkXkXkXkXkXkXkXkXkXkXkXkX",
"kXkXkXkXkXkXkXkXkXkXkXkXkXkXkXkXkXkXkXkXkXkXkXkXkX,XkXkX;X, . O + & 1 E.kXkXkXkXkXkXkXkXkXkXkXkXkXkXkXkXkXkXkXkXkXkXkXkXkXkXkXkX",
"kXkXkXkXkXkXkXkXkXkXkXkXkXkXkXkXkXkXkXkXkXkXkXkXkXkX1X9X1.# X = & 8 & :.kXkXkXkXkXkXkXkXkXkXkXkXkXkXkXkXkXkXkXkXkXkXkXkXkXkXkXkX",
"kXkXkXkXkXkXkXkXkXkXkXkXkXkXkXkXkXkXkXkXkXkXkXkXkXkXkXkX@.. X O > +   ;.kXkXkXkXkXkXkXkXkXkXkXkXkXkXkXkXkXkXkXkXkXkXkXkXkXkXkXkX",
"kXkXkXkXkXkXkXkXkXkXkXkXkXkXkXkXkXkXkXkXkXkXkXkXkXkXjX2X3   X # $ @ @ &.kXkXkXkXkXkXkXkXkXkXkXkXkXkXkXkXkXkXkXkXkXkXkXkXkXkXkXkX",
"kXkXkXkXkXkXkXkXkXkXkXkXkXkXkXkXkXkXkXkXkXkXkXkXkXkXkX2.X . # $ . > > Q &XkXkXkXkXkXkXkXkXkXkXkXkXkXkXkXkXkXkXkXkXkXkXkXkXkXkXkX",
"kXkXkXkXkXkXkXkXkXkXkXkXkXkXkXkXkXkXkXkXkXkXkXkXkXkXkX5   . X X X > @ 3 .X,XkXkXkXkXkXkXkXkXkXkXkXkXkXkXkXkXkXkXkXkXkXkXkXkXkXkX",
"kXkXkXkXkXkXkXkXkXkXkXkXkXkXkXkXkXkXkXkXkXkXkXkXkXkX1.#   X . . X . o , :XkXkXkXkXkXkXkXkXkXkXkXkXkXkXkXkXkXkXkXkXkXkXkXkXkXkXkX",
"kXkXkXkXkXkXkXkXkXkXkXkXkXkXkXkXkXkXkXkXkXkXkXjXkX;X4   . # . . . X . o ,.,X$XkXkXkXkXkXkXkXkXkXkXkXkXkXkXkXkXkXkXkXkXkXkXkXkXkX",
"kXkXkXkXkXkXkXkXkXkXkXkXkXkXkXkXkXkXkXkXkXkX$X&X-X@.o o . . . .     * & 5 .X$X2X2XkXkXkXkXkX3X1XkXkXkXkXkXkXkXkXkXkXkXkXkXkXkXkX",
"kXkXkXkXkXkXkXkXkXkXkXkXkXkXkXkXkXjX<X+X%X<Xw.%.5   o o & $ . . o < k $ X @.1.*.*..X<X<XkXkXyX,XkXkXkXkX3XkXkXkXkXkXkXkXkXkXkXkX",
"kXkXkXkXkXkXkXkXkXkX3XkXkX$X2X2X;X XXXU d.2.#.< - , < 1 * &   @ < ;.1 . ; , a b / =.[.{..X>X<X&X*X2XoX$XOX>X,X1XkXkXkXkXkXkXkXkX",
"kXkXkXkXkXkXkXkXkXkX$X5X3X>X>Xk.[.*.^ B +.! #.^ ^ d W w 1 $ . s E.4X2 @ w ! ! h _ W ) =.<.{.k.OX$X&X[.[.$XkXkXkXkXkXkXkXkXkXkXkX",
"kXkXkXkXkXkXkXkXkXkXkX<XkXkX<X+X@X X1.2.,.,.*.*.B b &.&.^ s $ E *.:.+.4 q 3 ! &.;.>.,.<. X9XN.#X>X#X+X>X<XkXkXkXkXkXkXkXkXkXkXkX",
"kXkXkXkXkXkXkXkXkXkXkXkXkXkXkXkXkX2X<X<X-Xd.|.:X.Xp. X1.E.0.~ ;.,.,.2.1.,.>.;.:.1.=X-X;X;X,XfX<XjX2X1XkXkXkXkXkXkXkXkXkXkXkXkXkX",
"kXkXkXkXkXkXkXkXkXkXkXkXkXkXkXkXkXkXkXkXkX&XkXkXkXkXkX2XjX;X;X-X;X;X;X;XjXjXjXjXjXkXkXkXkXkXkXkXkXkXkXkXkXkXkXkXkXkXkXkXkXkXkXkX",
"kXkXkXkXkXkXkXkXkXkXkXkXkXkXkXkXkXkXkXkXkXkXkXkXkXkXkXkXkXkXkXkXkXkXkXkXjXjXkXjXkXkXkXkXkXkXkXkXkXkXkXkXkXkXkXkXkXkXkXkXkXkXkXkX",
"kXkXkXkXkXkXkXkXkXkXkXkXkXkXkXkXkXkXkXkXkXkXkXkXkXkXkXkXkXkXkXkXkXkXkXkXkXkXkXkXkXkXkXkXkXkXkXkXkXkXkXkXkXkXkXkXkXkXkXkXkXkXkXkX",
"kXkXkXkXkXkXkXkXkXkXkXkXkXkXkXkXkXkXkXkXkXkXkXkXkXkXkXkXkXkXkXkXkXkXkXkXkXkXkXkXkXkXkXkXkXkXkXkXkXkXkXkXkXkXkXkXkXkXkXkXkXkXkXkX"
};
