/* XPM */
static char *e3569ab2997746edc35ed63905dc74acyvRnRE4MI8hapHEG[] = {
/* columns rows colors chars-per-pixel */
"50 50 244 2 ",
"   c #2F2916",
".  c #393017",
"X  c #45371D",
"o  c #4C3C1D",
"O  c #543C1D",
"+  c #443A22",
"@  c #4B3D23",
"#  c #473B28",
"$  c #533D25",
"%  c #463D33",
"&  c #4F421F",
"*  c #5B431D",
"=  c #634A1E",
"-  c #635618",
";  c #4C4223",
":  c #46412A",
">  c #4B422B",
",  c #4C4529",
"<  c #534324",
"1  c #594A27",
"2  c #53462C",
"3  c #55492D",
"4  c #5B4C2C",
"5  c #5D512A",
"6  c #4C4734",
"7  c #564731",
"8  c #544C34",
"9  c #5B4D32",
"0  c #554D3B",
"q  c #594F3C",
"w  c #5D5234",
"e  c #5D533B",
"r  c #5A553A",
"t  c #644928",
"y  c #63532C",
"u  c #6A542D",
"i  c #6C592B",
"p  c #78592C",
"a  c #614B32",
"s  c #754C36",
"d  c #625434",
"f  c #6A5533",
"g  c #655A35",
"h  c #6B5A34",
"j  c #63553B",
"k  c #695739",
"l  c #645A3C",
"z  c #6C5C3B",
"x  c #725D33",
"c  c #7C5E34",
"v  c #775939",
"b  c #725D3C",
"n  c #6D612F",
"m  c #7D652B",
"M  c #6A6236",
"N  c #6C623C",
"B  c #766936",
"V  c #74633C",
"C  c #7B653D",
"Z  c #756A3D",
"A  c #7B6A3D",
"S  c #7D723D",
"D  c #565243",
"F  c #5B5443",
"G  c #5C5A48",
"H  c #645C43",
"J  c #6C5D42",
"K  c #645B48",
"L  c #715D43",
"P  c #6C6244",
"I  c #6D6747",
"U  c #66614B",
"Y  c #6B634B",
"T  c #736443",
"R  c #7B6643",
"E  c #756A44",
"W  c #7C6B44",
"Q  c #72654B",
"!  c #7B674A",
"~  c #746B4C",
"^  c #7B6C4C",
"/  c #7C7244",
"(  c #77714B",
")  c #7C714C",
"_  c #6B6754",
"`  c #746B52",
"'  c #7A6D53",
"]  c #796C56",
"[  c #746C5A",
"{  c #7C7353",
"}  c #797458",
"|  c #7C745A",
" . c #756E63",
".. c #7B7463",
"X. c #7C7869",
"o. c #8D5C21",
"O. c #88632B",
"+. c #976527",
"@. c #846435",
"#. c #896836",
"$. c #84643B",
"%. c #836B3C",
"&. c #896B3B",
"*. c #926C39",
"=. c #88713D",
"-. c #91723D",
";. c #A56F2A",
":. c #A4763D",
">. c #826C44",
",. c #886A47",
"<. c #8A6C44",
"1. c #826D49",
"2. c #976E49",
"3. c #837245",
"4. c #8C7344",
"5. c #857A45",
"6. c #8A7A46",
"7. c #83734C",
"8. c #8B744C",
"9. c #867A4D",
"0. c #8B7A4C",
"q. c #947544",
"w. c #957B46",
"e. c #9B7A45",
"r. c #92744B",
"t. c #947B4B",
"y. c #9B7C4E",
"u. c #826C54",
"i. c #837554",
"p. c #8A7553",
"a. c #847A54",
"s. c #8B7B53",
"d. c #83755A",
"f. c #8B7659",
"g. c #847B5C",
"h. c #8A7C5B",
"j. c #947C53",
"k. c #977B54",
"l. c #937E5B",
"z. c #A47B46",
"x. c #897766",
"c. c #847C63",
"v. c #8A7D62",
"b. c #837D6B",
"n. c #917C63",
"m. c #827B70",
"M. c #BA853D",
"N. c #88824F",
"B. c #9A874D",
"V. c #8D8155",
"C. c #86815C",
"Z. c #8B825C",
"A. c #938255",
"S. c #9C8455",
"D. c #9A8C55",
"F. c #93845C",
"G. c #9B845B",
"H. c #918A5D",
"J. c #9C8C5C",
"K. c #9A9258",
"L. c #A68749",
"P. c #A3844C",
"I. c #B28B4E",
"U. c #B9904E",
"Y. c #A58755",
"T. c #AB8C54",
"R. c #AC8C5A",
"E. c #A89459",
"W. c #B5965A",
"Q. c #AAA05B",
"!. c #8C8363",
"~. c #88836A",
"^. c #8B846C",
"/. c #928562",
"(. c #9A8562",
"). c #948A64",
"_. c #9B8B64",
"`. c #928669",
"'. c #948B6B",
"]. c #9B8D6B",
"[. c #9D9265",
"{. c #9C926C",
"}. c #9F986F",
"|. c #858376",
" X c #8A8474",
".X c #8D8A75",
"XX c #8D8B7B",
"oX c #948C73",
"OX c #988C75",
"+X c #9C9473",
"@X c #999576",
"#X c #97917A",
"$X c #9C947A",
"%X c #A38C63",
"&X c #A58D67",
"*X c #A49264",
"=X c #AB9767",
"-X c #A2936B",
";X c #AB9A6C",
":X c #B49767",
">X c #B39B6D",
",X c #AE8F77",
"<X c #A49574",
"1X c #A49974",
"2X c #AB9D74",
"3X c #A89378",
"4X c #A49C7C",
"5X c #AB9E7C",
"6X c #B69E74",
"7X c #B5A56B",
"8X c #ABA376",
"9X c #ACA27B",
"0X c #B2A372",
"qX c #BAA577",
"wX c #B5AB72",
"eX c #B3A57C",
"rX c #B3A97D",
"tX c #BBAA7C",
"yX c #C3924F",
"uX c #C8985B",
"iX c #CAA265",
"pX c #C5A878",
"aX c #C2B17C",
"sX c #988D81",
"dX c #9C9884",
"fX c #A49B87",
"gX c #B29985",
"hX c #ACA384",
"jX c #A6A389",
"kX c #ACA68A",
"lX c #B3A583",
"zX c #B9AC87",
"xX c #BBB586",
"cX c #A6A898",
"vX c #B2AD96",
"bX c #BBB493",
"nX c #BFBB9B",
"mX c #B8B6A5",
"MX c #C5B689",
"NX c #C9BB8D",
"BX c #CABEA1",
"VX c #D0C798",
"CX c #E0C997",
"ZX c #CFCBAA",
/* pixels */
";X8XeXlX6X_.Z.Y | |.b...U _ H e ` X.#X$X| h.(.J.5X*X*X2X*Xy.,.! ! d.` <X| K 0 `.n._ Y | ;X) '.oX{.9X",
"Y.J.>X:Xl.D.W.y.F.^ J } ` } #Xx.} ..[ ] w A.0X;X2XJ.J.J.S.s.s.P 4XzX2Xk.@.< < R k e H 2 1.l 8XNXrXrX",
"'.d._ H ~.oX!.P T ! T q q 7 > 8.(.l.y.l.7.' ^ 6 g.`.^ g 7 T 1   Y <X].g.L P ` v. X[ ! f.' H ^ v.0 v.",
"4X1XBXf.hX#Xg.d.f.L d.] J 8.1.R.:Xr.y.#.#.$.@.d.eX<X].zXl.OXXXjX.Xv.b.).{ ^ P / !.h.r.$.%.j.t.q.v.lX",
"T a.G.A 1.9.t.h.d.d.d.Y h Q ' l.H j z k d l.<.7.1.T a.-X`.$XOXdX Xf.A.h.a.h.h.h.oX=X7Xp.1.T F.8.i.W ",
"-.U.L.T.T.L.L.*.j (.d.g.oX{.2X].].OX<Xi.{ 8.t.B.y.-.L.w.l.).{ [ c._.{ T g Z u x ) ) H.hXE [.V.D.T.S.",
"9 z h g M s.A P ^ P h k l z T 0.(.u.1.4 A 8.8.<.$.4 V &.h Z a.{ U P k R V L h.p.E ..~ ~.g B ) 3.%.@.",
"8.p.i.s.%XG.G.d.<XOX<XA.y.k.;X0XpXMX>X1.C #.V @.2.>.3.A 7.0.A.n w F.G._.).8 K L } P g N N V C R $.r.",
"4XvXbXvXvXmXZX<XW.l.] L g ,.2XR.qX-X%X8.J.J.H.5X..$XhX2X_.V.5.r.Z.J.a.w 1.8.2.,.<.v N Z M P C.oXfXX.",
"kXkXvXdXdX.X#XoXG.Y.4.:.z.4.^ 8 Q ^ ! ' h.;X0XqX).kX9XoX~.@X}.bX8X8XbXi.C %.$.$.2.,.8XrXrXxXMXlXtX).",
"!.K ] | ~.C.a._.` T z :XY.F.K  .fXgX3XfX].n._.2Xd.g.Y | dX8X).).}.H.[.M p u t t s $ $X1X@X@X'.oX2X' ",
"F.'.{.`.'.oXC.C.@X-XI 1X-XgX,.u.sX,Xf.`.jXkXkXqXaXA.).H.}.!.} C.} '.( / w.w h x b b ^ ` } jXfXvXzXaX",
"| b.F ] | | ' } !.| ~ ).;X2Xa L n.gXn.m...OXh.F.-X^ g.k ) z C.VXZXVXtXnXZX#Xb.] ] Q T 9 [ X.sX/._.-X",
"y.k.<XOXi.| j 5 P ' ).].^.` m.t x.gX,X,Xh.s.e.z.e.y.y.A.a.T wX7XQ.K.Q.Q.7XMXfX` ).hX3X:X%X] r.z.:.z.",
"+.;.;.:.:.z.R s.V.4.9.7.{ d. .9 u.x.L u.J v *.O.+.+.+.O.&.=.7XMXrXD.K.Q.Q.7XzXY k.f.1.$.<.j v +.o.+.",
"1.b k L h %.l.&X<XF.a.^ s.:X:XNXpXU.z.t 4.q.<.>.7 ! w 9 5 d i.f.} ` N P C.[._.fX .OXlX].<XeX_.7.u.7 ",
"$X|.[ OXY.P.Y.t.<.>.>.8 u I.yXiXuXuXuXz.M.U.I.:Xi.$X X' a.r.t.6.5.*X;Xp.q ! T l.J 1XzXMX:XR.R.W.>X| ",
"/.i.^ R ! G./.^ !.9XfXXXh.t.r.c 2.R.R.,.q.P.E.S.~ F.E N z M B Z N 8 j q v x C x L 4XfX5X2XE.R.=X%X| ",
"1.8.V z ~ s.C.8XnXnXjXkXkXbX_.b.jXcXfXm.X.^ f b q 7.j.A V V.6._.`.Q _.A <.e | Y d.| Y J H U l ! V e ",
"S d ).1XlXzX} H.).^.v.$Xh.F.V.9.!.v.n.n.^ 9 y a.{.S g h.i.'.).!.h.l.z @ + @ w F 0 q e K H H 9 z f.].",
"s.P ) h.! W 7.'.).{ | L < = #.p %.A 1.<.i o W -XZ.9.V W / E ~ E E z 4 , x m u 5 { g.h.C.!.( > { -XZ.",
"D.N A.J.J.Z =.| g.a.{.3.%.3.j.k y T d./.a.N 7.F.V.H.V s.F./ 1 y 4 z N M f V x 2 zXxXMXrX1X}.P s._.N.",
"H h.j.7.; & < w / ).Z.Y ` d. X# z ! f.d.).s.p.s.h.H s.s.T ; d l 2 8 @ , 8 8 f g ;X-Xh.( ) N.6.6.A./.",
"g.pXqXpXW H.*X~.'.fX}.dXjXvXjX] ^.OX] v././.2X>X;Xa.>X>XR.>.0.F.F.j.J z Z z z / / Z W e ;X0XqXMXaX7X",
"/.e.w.p.z ( }.oXfX~.C.cXcX|.X.D m...e j P N ) ).9XF.4.y.4.C 4.t.=XT.^ ` r ~ W Q T d w { 9X).a.).].kX",
"*X0XeX<X&X/.V.P |  XX...U P H e _ [  XoX} a.!.A.-X_.E.;X(.r.<.T ! d.' 4X] K 0 n.d._ K ~ [.I !.{.H.1X",
"F.V.[.%X6.9.T.t.s.^ H ` U Y c.' Y ` Y K 3 / -X*X1XD.s.s.0.7.W l ].<X_.>.p ; < C k j d 3 R r J.zX2X1X",
"^ j w 0 ` g.^ l z T z q 4 < 8 0.k.j.j.r.7.W 4.3 i.Q w 4 4 C , . N ).d.^ b d Y | { K V a.^ l T 7.2 i.",
"^ h.9Xs.].+Xa.s.F.1.{ ^ V W <.P.t.%.w.#.%.&.#.t.=XW ) J.1.a.~ c.` P P T l 3 { s.).p.4.&.%.4.q.*.A.>X",
"@ 5 x f g w d V N z J w 5 2 j T J 9 y u t W 4.Z a @ d h T ! ^ v.T d l ^ 0.0.^ j ~ 7.4 3 M M a.a.^ a ",
"V 1.1.W s.E 9.0.V { P T 7.g.F.a.h.i.s.h 4 h E 7.E R ^ k N N d w 3 q T 4.-.q.4.g T P ~ ~ w , r { 7.E ",
"N | g.Z.7./ 0.%.i 4 ; A <.V 3.7.p.8.W h y M g l e N } ^ 7.g N E J F ` >.C >./ : , 5 H Y 1   r F r l ",
"^ 8 > r @ 2 J.P.@.#.C I l d G.>.P P f g 9 > + V l ^ 9 9 T 4 N { !.!.g.!.Y U U _ _ G 6 I N 2 # : T l ",
"F.z z g.>.V ~ 3.j K ( ` g.{ f.i.P 4 g M w e ) ^ ^ A.k T F.8 g P _ D 8 0 # q D _ [ _ G l V h g B W ) ",
"e j T M g g e 3 lXK.N.N.C.Z.'.+XfX~ `.` Q b 9 q H e j h w g W | a.d.6 ).f.u.J : : r 8 P } ` x 4 D Y ",
"j H N d x m f < V./ M / { ) S W Z.P H.(.{ { <.' P j P z M W 3.y.e.8.6 %Xn.`.n.g.U ~ !.~ { ) ) q.' T ",
"1.z c.mX9Xy.%.B L.P.-.*.E 8 l .. .Y | ' ! j z s.7.1.k | $X{ 2 k a z g V P T ~ U 6 6 F 8 J ` z v s.7.",
"l.j.A =XK.B.D.[.B.B.E.CXoX_.6XmXzXtX*X{.].p.7.Y.t.l.G.s.;XA.-X5X_.+X4X8Xg.I ) N { i.E r (.].(._.%Xy.",
"R p.4 y - - - n =.A.w.U.Z E t.|..X[ _ ` ! P 7.W R R f.u m - A.H.@X!.'.)./ S N.S B M g 8 1.8.F.l.7.7.",
",.1.8.R %.=.m a.Z.( !.).^.| ..!.X.5 V %.i / ^ w u &.C C V C h N N 8 r I r r ; 5 A P z ^ 4.g Z ) j v ",
"Y.y.-.O.4.m i s.V.h.l.s.Y.*X[.A.g.b x V { ) d.~ k.Y.k.C x >.x V V H Y u.' ..K %.I.L.P.q.Y.i V i.' k.",
"$.q.O.O.@.p + D.Y.j.y.t.W.E.E.Y.D.W.P.F c.| ' s.t &.r.@.p 8.z e v.v.oX`.oX#X0 2 R L L j f.u.a.A.k.t ",
"@ X $ $ . X + h C y 9.J.) g Z W 7.W z P ^ j 8 L # $ @ * * * f U } ..| | ' } j L G.W P l.h.p.b ! ` # ",
"<.! ^ v.W 8.D.Z.{._.0.Z.{ ).*XE.J.H.J.{ 0 J ' <.<.2.p.1.g g.@XXXb.XXF X $ 4 7 T R z k H G K J u.,.2.",
"a 9 f z ) T , P ` ] !.'.V.E.7XE.H.Z.N.K.Z 1 o 4 u.a d h l 9X{.$XjXjXF O + @ X < 9 8 + % l 5 M o d n.",
"j.J.y.D.E.Q.D.).l.a.s._.h m #.4.A.Z.s.w.i 1 ~ 9X4Xs.A.4./ { | ` [ _ D H 0 r %   g.C.} ` a.M 1 ( 9X}.",
"3.7.3.6.=.n B P N N ( N I ) !.0 6 | XXXXg.N { Z.%.6.9.s.F.} 1 t 4 k l w y h Z G bXrXxX4X[.C.r C.A.%.",
"D ].].g.X O 1 9 ) /.!.!.).oXXX% P ' |.X.~.C./.Z.g.F `._.N : H F + > + : , X & d ;X[.!.| { S V.).H.a.",
"v.MXpXpXL /.;X^.#XjXdXjXcXmXmX .|.sXX..X{.<XzXtXtXv.qXpX&X>.A._._.j.J P ) ` ) 7./ E ) F tXMXMXVXNXaX",
"].L.z.8.k | 1X$XdXC.a.cXmXXX|.D sXX.0 r P N { /.kX_.e.P.r.@.%.t.:XT.i.Q 8 P P N g X < E 9X}.N.[.1XkX"
};
