/* XPM */
static char *result[] = {
/* columns rows colors chars-per-pixel */
"50 50 211 2 ",
"   c #351F13",
".  c #372215",
"X  c #392316",
"o  c #3C261A",
"O  c #3F291E",
"+  c #412516",
"@  c #492715",
"#  c #4B2915",
"$  c #442719",
"%  c #432A1D",
"&  c #4C2C1A",
"*  c #512F1B",
"=  c #4A301D",
"-  c #53311B",
";  c #5F371D",
":  c #693416",
">  c #633419",
",  c #6C3B1C",
"<  c #673317",
"1  c #723616",
"2  c #733B19",
"3  c #7B3D19",
"4  c #442C20",
"5  c #5A3B27",
"6  c #6D3D22",
"7  c #623A20",
"8  c #773C20",
"9  c #7D4317",
"0  c #68442C",
"q  c #734425",
"w  c #7B4527",
"e  c #70472E",
"r  c #6C4530",
"t  c #7B4C32",
"y  c #833915",
"u  c #943E14",
"i  c #993F15",
"p  c #A23D11",
"a  c #89411A",
"s  c #94431A",
"d  c #9B4519",
"f  c #9B4719",
"g  c #A34315",
"h  c #AC4413",
"j  c #AC4C19",
"k  c #A54718",
"l  c #B34C17",
"z  c #BC4F15",
"x  c #B14F1C",
"c  c #B94F1A",
"v  c #AE511D",
"b  c #BE5115",
"n  c #B5511F",
"m  c #BC531C",
"M  c #BC591D",
"N  c #864521",
"B  c #874A27",
"V  c #974E24",
"C  c #8C522E",
"Z  c #995427",
"A  c #8A5831",
"S  c #9B5C32",
"D  c #905D3A",
"F  c #A04D20",
"G  c #AD5625",
"H  c #A75A2A",
"J  c #B35423",
"K  c #BD5D2B",
"L  c #B65B26",
"P  c #B15D30",
"I  c #8B633C",
"U  c #966739",
"Y  c #A7612F",
"T  c #B5642E",
"R  c #B8622F",
"E  c #AA6332",
"W  c #A46736",
"Q  c #BB6333",
"!  c #B96737",
"~  c #BD7539",
"^  c #C05216",
"/  c #C3561A",
"(  c #C65A1C",
")  c #C95A1E",
"_  c #D75F1C",
"`  c #E1641D",
"'  c #C35C24",
"]  c #CB5E23",
"[  c #C75F28",
"{  c #C85F28",
"}  c #D05F21",
"|  c #CD6325",
" . c #C3622E",
".. c #CC662D",
"X. c #C8692D",
"o. c #D36324",
"O. c #DA6422",
"+. c #D3652A",
"@. c #D46A2D",
"#. c #DB6B2C",
"$. c #D86628",
"%. c #DC742E",
"&. c #C46532",
"*. c #C46933",
"=. c #CC6B33",
"-. c #CF6F3B",
";. c #D46C31",
":. c #DB6D32",
">. c #CC7939",
",. c #CD7738",
"<. c #D37436",
"1. c #DB7234",
"2. c #D57339",
"3. c #DB743A",
"4. c #D17C3C",
"5. c #DF7D3B",
"6. c #E26A26",
"7. c #E26D2B",
"8. c #E96F2A",
"9. c #E3722D",
"0. c #EB732D",
"q. c #EC7127",
"w. c #E37335",
"e. c #EB7632",
"r. c #E57C35",
"t. c #EB7A35",
"y. c #E17439",
"u. c #E57A3A",
"i. c #EB7B3C",
"p. c #967241",
"a. c #A06541",
"s. c #A87742",
"d. c #BD7540",
"f. c #C26C42",
"g. c #C97E43",
"h. c #D17440",
"j. c #DC7D43",
"k. c #D67D46",
"l. c #E67D41",
"z. c #EC7F40",
"x. c #D9813B",
"c. c #D7883E",
"v. c #E4833C",
"b. c #EB833C",
"n. c #EB8837",
"m. c #F18539",
"M. c #B98549",
"N. c #A98F53",
"B. c #B3955A",
"V. c #CF8945",
"C. c #C88445",
"Z. c #DB8744",
"A. c #DD8B45",
"S. c #D68A49",
"D. c #D38641",
"F. c #DC9846",
"G. c #DE8A53",
"H. c #DF9C56",
"J. c #D89752",
"K. c #E48342",
"L. c #EC8543",
"P. c #E48945",
"I. c #ED8A45",
"U. c #E58C4C",
"Y. c #EC8C4A",
"T. c #E8854C",
"R. c #F08844",
"E. c #E4924B",
"W. c #EC934C",
"Q. c #E59A4C",
"!. c #EC9F4D",
"~. c #EA9345",
"^. c #F0934D",
"/. c #F39A49",
"(. c #E68C55",
"). c #EC8A50",
"_. c #E69352",
"`. c #EC9553",
"'. c #E29B53",
"]. c #ED9C53",
"[. c #EE965A",
"{. c #EC9D5A",
"}. c #E7975F",
"|. c #F29C53",
" X c #F39E5C",
".X c #F09551",
"XX c #F2A14D",
"oX c #EDA254",
"OX c #EDA459",
"+X c #E7AC59",
"@X c #ECAB5D",
"#X c #E1A656",
"$X c #F3A253",
"%X c #F4A35B",
"&X c #F3AB5C",
"*X c #F8AD59",
"=X c #F5B25D",
"-X c #E99C60",
";X c #ECA061",
":X c #F4A762",
">X c #F4AD61",
",X c #FDA967",
"<X c #EDB662",
"1X c #EBBD69",
"2X c #EFBC66",
"3X c #F6B361",
"4X c #F3BC65",
"5X c #FAB165",
"6X c #EDC96B",
"7X c #F6C569",
"8X c None",
/* pixels */
"8X8X8X8X8X8X8X8X8X8X8X8X8X8X8X8X8X8X8X8X8X8X8X8X8X8X8X8X8X8X8X8X8X8X8X8X8X8X8X8X8X8X8X8X8X8X8X8X8X8X",
"8X8X8X8X8X8X8X8X8X8X8X8X8X8X8X8X8X8X8X8X8X8X8X8X8X8X8X8X8X8X8X8X8X8X8X8X8X8X8X8X8X8X8X8X8X8X8X8X8X8X",
"8X8X8X8X8X8X8X8X8X8X8X8X8X8X8X8X8X8X8X8X8X8X8X8X8X8X8X8X8X8X8X8X8X8X8X8X8X8X8X8X8X8X8X8X8X8X8X8X8X8X",
"8X8X8X8X8X8X8X8X8X8X8X8X8X8X8X8X8X8X8Xi.8X<.X.8X8X8X8X8X8X8X8X8X8X8X8X8X8X8X8X8X8X8X8X8X8X8X8X8X8X8X",
"8X8X8X8X8X8X8X8X8X8X8X8X8X8X8X8X8X8X8Xi.L.OXE.y.8X8X8X8X8X8X8X8X8X8X8X8X8X8X8X8X8X8X8X8X8X8X8X8X8X8X",
"8X8X8X8X8X8X8X8X8X8X8X8X8X8X8X8X8X8X8Xi.L.%X$Xb.t.t.8Xz.:X8X8X8X8X8X8X8X8X8X8X8X8X8X8X8X8X8X8X8X8X8X",
"8X8X8X8X8X8X8X8X8X8X8X8X8X8X8X8X8X8X/ K.`.&X=XR.e.i.|.W.&X3X8X8X8X8X8X8X8X8X8X8X8X8X8X8X8X8X8X8X8X8X",
"8X8X8X8X8X8X8X8X8X8X8X8X8X8X8X8X;X{.P.I.$XoX/.t.6.t.].L.i.1./ 8X8X8X8X8X8X8X8X8X8X8X8X8X8X8X8X8X8X8X",
"8X8X8X8X8X8X8X8X8X8X8X8X8X8X8X8X_.`.|.L.U.r.e.#.8.e.t.I.i.o.b 8X8X8X8X8X8X8X8X8X8X8X8X8X8X8X8X8X8X8X",
"8X8X8X8X8X8X8X8X8X8X8X8X8X8X8X8X8XP.Y.:.' 1.u.w.;.8.t.~.!.x./ 8Xm j.T.#.O.8X8X8X8X8X8X8X8X8X8X8X8X8X",
"8X8X8X8X8X8X8X8X8X8X8X8X8X8X:.{ U.W.y.:.i.oXS.n J @.$X&Xv.w.$.z m <.'.W.8X8X8X8X8X8X8X8X8X8X8X8X8X8X",
"8X8X8X8X8X8X8X8X8X8X8X8Xz.8X:.y.W.|.Y.8XoX1XV.G 8X8X&X!.| O.) D.Z.@X7X4X8X8X8X8X8X8X8X8X8X8X8X8X8X8X",
"8X8X8X8X8X8X8X8X| ..].`.K.:.u.&.`.3X5X=X4X6Xc...R $X].Y l ] r.'.&X@X<X<X| ( | x.Q.8X8X8X8X8X8X8X8X8X",
"8X8X8X8X8X8X8X8X[.%X&XoXE.<.`.$X&X3X*X$X7X+XT J k P.E.S 8X#.].&X!.n.6.6.} n.!.c.~ l 8X8X8X8X8X8X8X8X",
"8X8X8X8X8X8X8X8X8X5X5X].Z.>.A.u.I.$Xb.8X7X4XC.8Xy &.d.8X8X8X|.$Xc.o.n.q.( c./.#.p h 8X8X8X8X8X8X8X8X",
"8X8X8X8X8X8X8X8X8X8X8X8X&XA.<.$.0.e.9.8X8X4X>X8Xs g 8X8X8Xv r.9.| v.$Xm.%.!.|.9.x l | 8X8X8X8X8X8X8X",
"8X8X8X8X8X8X8X8X8Xb 8X8X8X=X^.w.8X@.%.8X8XL 8X8X .c l 8Xm l 8X` 9.XX*X/.XX2X$X8X(.=.$.8X8X8X8X8X8X8X",
"8X8X8X8X8X8X8X8X8X] #.:.W.=X|.8X8X=. .8X+.| 8X8X=.k ( 7.$.8X8X8X9.$X$X0.~.1X8XZ.(.=./ 8X8X8X8X8X8X8X",
"8X8X8X8X8X8X8X8X8Xw.^.Y.8X8X2.=.8X8Xy.R =.;.8X8XC 8X8X..8X8X8X8XG.].n.O.8XL.Y.(.(.y.7.8X8X8X8X8X8X8X",
"8X8X8X8X8X8X8X8X/ K.|.W.8X1.1.P w =.+.4.&X>X8X,Xa.8X8X8X8X8X8X8XE ..8.7.R *.k.U.|.R.0.8X8X8X8X8X8X8X",
"8X8X8X8X8X^ b ^ @.`.OXF.r.n.i.D.8XZ.8XoX>X&X&X%XT.h.8X8Xt.R.T.K f ( 7.+.s S H.%X.Xb.0.8X8X8X8X8X8X8X",
"8X8X8X8X8X8X^ ] L.>X<X#Xn.~.oX<X8X8X8X>X XL..X Xh.-.8X8X).[.Y.;.8X/ #.$.h ,.].%X|.e.8X8X8X8X8X8X8X8X",
"8X8X8X8X8X^ ^ 1.`.{.+XF.1.r.V.8X8XOX`..Xi.z.Q 8Xw R 8X8X2.G.5.8X8X8X8Xc [ U.|.&X^.t.8X8X8X8X8X8X8X8X",
"8X8X8X8Xz ^ c 3.{.`.K.r.8.+.6 < K 2.| 1.z.i.8X# 8 H 8X8XG k.@.] 8X8X8Xh ..Y.%X|.u.8X8X8X8X8X8X8X8X8X",
"8X8X8X8X8X:.;.Y.%X).:.8X8X8X{ c i K ' 8X8X8X8Xy s d 8X> f ] | i.i.u.h p ' T.%X^.6.8X8X8X8X8X8X8X8X8X",
"8X8X8X8X8X] :.;...8X;.l.8X9.$.' 8X] @.<.>X%X;.k J } G Y n 8Xi.i.-.&.i p ;.%X>Xv.8.0.8X8X8X8X8X8X8X8X",
"8X8X8X8X8X8X:.@.8X8X).R.t.+.L c 8X8XI.{.:X XK.C.l.v.].].' ' u.3.F j u p [ `.%X=.7.0.0.8X8X8X8X8X8X8X",
"8X8X8X8X8X8X8X:.=.,X Xt.e.@.@.3.*.E `.&X`.j.S.H.>.e.|.E.G x w.i.8X8X8Xh 8Xj. X8X0.0.0.8X8X8X8X8X8X8X",
"8X8X8X8X8X8X8X:.3. X Xt.8.7.w.L.&X`.{.P.i.R U H.>.#.w.T s c y.8X8X8X8X8X8X8X3.8X8X8X8X8X8X8X8X8X8X8X",
"8X8X8X8X8X8X8X+.8X8X8X8X8X/ ) 8X8X8X8X:.&.N a C.s.N G W 4.| +.8X8X8X8X8X8X8X8X8X8X8X8X8X8X8X8X8X8X8X",
"8X8X8X8X8X8X8X8X8X-X8X8X8X^ 8X8X8X8X8X:. .: a ~ I o - #X8X8X8X8X8X8X8X8X8X8X8X8X8X8X8X8X8X8X8X8X8X8X",
"8X8X8X8X8X8X8X8X8X}.8X8X8X8X8X8X8X8X8X8X8X8Xy N 5 O   8X8X8X8X8X8X8X8X8X8X8X8X8X8X8X8X8X8X8X8X8X8X8X",
"8X8X8X8X8X8X8X8X8X8X8X8X8X8X8X8X8X8X8X8X8X8X1 & % o . 8X8X8X8X8X8X8X8X8X8X8X8X8X8X8X8X8X8X8X8X8X8X8X",
"8X8X8X8X8X8X8X8X8X8X8X8X8X8X8X8X8X8X8X8X8X8X. O % o @ 8X8X8X8X8X8X8X8X8X8X8X8X8X8X8X8X8X8X8X8X8X8X8X",
"8X8X8X8X8X8X8X8X8X8X8X8X8X8X8X8X8X8X8X8X8X8XX O % $ d 8X8X8X8X8X8X8X8X8X8X8X8X8X8X8X8X8X8X8X8X8X8X8X",
"8X8X8X8X8X8X8X8X8X8X8X8X8X8X8X8X8X8X8X8X8X8XX o O o @ 8X8X8X8X8X8X8X8X8X8X8X8X8X8X8X8X8X8X8X8X8X8X8X",
"8X8X8X8X8X8X8X8X8X8X8X8X8X8X8X8X8X8X8X8X8X8XX o - 2 3 8X8X8X8X8X8X8X8X8X8X8X8X8X8X8X8X8X8X8X8X8X8X8X",
"8X8X8X8X8X8X8X8X8X8X8X8X8X8X8X8X8X8X8X8X8X8Xo % ; : # 8X8X8X8X8X8X8X8X8X8X8X8X8X8X8X8X8X8X8X8X8X8X8X",
"8X8X8X8X8X8X8X8X8X8X8X8X8X8X8X8X8X8X8X8X8XX o % ; & # 8X8X8X8X8X8X8X8X8X8X8X8X8X8X8X8X8X8X8X8X8X8X8X",
"8X8X8X8X8X8X8X8X8X8X8X8X8X8X8X8X8X8X8X8X8XX o = $ 9 > 8X8X8X8X8X8X8X8X8X8X8X8X8X8X8X8X8X8X8X8X8X8X8X",
"8X8X8X8X8X8X8X8X8X8X8X8X8X8X8X8X8X8X8X8X. X o O $ - o 8X8X8X8X8X8X8X8X8X8X8X8X8X8X8X8X8X8X8X8X8X8X8X",
"8X8X8X8X8X8X8X8X8X8X8X8X8X8X8X8X8X8X8X8XX o O o o o X o 8X8X8X8X8X8X8X8X8X8X8X8X8X8X8X8X8X8X8X8X8X8X",
"8X8X8X8X8X8X8X8X8X8X8X8X8X8X8X8X8X8X8Xo X o % o X $ 1 $ 8X8X8X8X8X8X8X8X8X8X8X8X8X8X8X8X8X8X8X8X8X8X",
"8X8X8X8X8X8X8X8X8X8X8X8X8X8X8X8Xc.Z o . X : * . . I f o % N g 8X8X8X8X8X8X8X8X8X8X8X8X8X8X8X8X8X8X8X",
"8X8X8X8X8X8X8X8X8X8X8X8X8Xd _ U p.w , 6 2 1 @ - I N.= = 7 V L V *.f.8X8X8X8X8X8X8X8X8X8X8X8X8X8X8X8X",
"8X8X8X8X8X8X8X8X8X8X8X8X8X8XB r A H L H t B 2 q M.B.0 9 q e C e C D J.n.8X8X8X8X8X8X8X8X8X8X8X8X8X8X",
"8X8X8X8X8X8X8X8X8X8X8X8X8X8X8X8X8X8X8X8X8X8X( q 8X8X8X8X8X8X8X8X8X8X8X8X8X8X8X8X8X8X8X8X8X8X8X8X8X8X",
"8X8X8X8X8X8X8X8X8X8X8X8X8X8X8X8X8X8X8X8X8X8X8X8X8X8X8X8X8X8X8X8X8X8X8X8X8X8X8X8X8X8X8X8X8X8X8X8X8X8X",
"8X8X8X8X8X8X8X8X8X8X8X8X8X8X8X8X8X8X8X8X8X8X8X8X8X8X8X8X8X8X8X8X8X8X8X8X8X8X8X8X8X8X8X8X8X8X8X8X8X8X",
"8X8X8X8X8X8X8X8X8X8X8X8X8X8X8X8X8X8X8X8X8X8X8X8X8X8X8X8X8X8X8X8X8X8X8X8X8X8X8X8X8X8X8X8X8X8X8X8X8X8X"
};
