/* XPM */
static char *b1c1f05e7b0f4209ab5d7c64b8d29a9dm3Xb3mr9EXjzZwQM[] = {
/* columns rows colors chars-per-pixel */
"50 50 236 2 ",
"   c None",
".  c #352D1B",
"X  c #362D28",
"o  c #37392C",
"O  c #34312B",
"+  c #483A23",
"@  c #493A34",
"#  c #70421E",
"$  c #48422A",
"%  c #5D4F2D",
"&  c #53492C",
"*  c #49443A",
"=  c #544B3A",
"-  c #585737",
";  c #56592A",
":  c #664529",
">  c #6A572F",
",  c #76532A",
"<  c #624B36",
"1  c #644939",
"2  c #62533A",
"3  c #6C553E",
"4  c #6D5C3A",
"5  c #6A5234",
"6  c #725A3C",
"7  c #775737",
"8  c #6B623D",
"9  c #7C643C",
"0  c #756A3E",
"q  c #454145",
"w  c #4A4547",
"e  c #574E44",
"r  c #4E5447",
"t  c #5D5545",
"y  c #5E5A46",
"u  c #5B564A",
"i  c #555347",
"p  c #565256",
"a  c #5B5C53",
"s  c #5C5755",
"d  c #524E52",
"f  c #665D45",
"g  c #6C5C44",
"h  c #635B4C",
"j  c #6C5B4B",
"k  c #665445",
"l  c #755D47",
"z  c #635B55",
"x  c #6C5D53",
"c  c #615B57",
"v  c #5D6658",
"b  c #6C6544",
"n  c #6D624C",
"m  c #6A6B4C",
"M  c #65644A",
"N  c #7C6446",
"B  c #73644B",
"V  c #7C6A4D",
"C  c #776847",
"Z  c #79764B",
"A  c #6B6254",
"S  c #6D6A53",
"D  c #65645B",
"F  c #6D665A",
"G  c #6B665A",
"H  c #756653",
"J  c #736B54",
"K  c #7B6A54",
"L  c #71665B",
"P  c #736C5A",
"I  c #7A6E5C",
"U  c #737355",
"Y  c #7C7454",
"T  c #74715C",
"R  c #7C735D",
"E  c #787B5A",
"W  c #686766",
"Q  c #726C65",
"!  c #776B6B",
"~  c #6C7368",
"^  c #757264",
"/  c #7C7364",
"(  c #7C7A63",
")  c #76746A",
"_  c #7B746B",
"`  c #7D7B6A",
"'  c #767964",
"]  c #6E6D73",
"[  c #717175",
"{  c #7D7C73",
"}  c #797779",
"|  c #796E71",
" . c #875826",
".. c #885D38",
"X. c #945D26",
"o. c #896537",
"O. c #956A3A",
"+. c #8F713E",
"@. c #9D6128",
"#. c #A77438",
"$. c #836C4B",
"%. c #8B6D4B",
"&. c #856745",
"*. c #976D44",
"=. c #85714D",
"-. c #897548",
";. c #9C7343",
":. c #94754D",
">. c #9B774A",
",. c #846B55",
"<. c #827254",
"1. c #8B7353",
"2. c #8A7B56",
"3. c #84745C",
"4. c #8A755A",
"5. c #867A5B",
"6. c #927451",
"7. c #937D54",
"8. c #9C7C53",
"9. c #93755B",
"0. c #937C5D",
"q. c #9C7D58",
"w. c #997653",
"e. c #926F51",
"r. c #A87B48",
"t. c #A37F59",
"y. c #B17F45",
"u. c #837563",
"i. c #8A7663",
"p. c #847B64",
"a. c #8B7B64",
"s. c #857B6B",
"d. c #8A7E6D",
"f. c #85766C",
"g. c #937D62",
"h. c #957A67",
"j. c #847C74",
"k. c #877D78",
"l. c #866F62",
"z. c #78805F",
"x. c #7D826C",
"c. c #7A8466",
"v. c #7E8272",
"b. c #7C857A",
"n. c #898358",
"m. c #9D815B",
"M. c #978458",
"N. c #A88658",
"B. c #B58B59",
"V. c #B0834D",
"C. c #848364",
"Z. c #8D8364",
"A. c #84826C",
"S. c #8B836D",
"D. c #8D8C69",
"F. c #958365",
"G. c #93846C",
"H. c #9A836B",
"J. c #938B6C",
"K. c #9C8B6C",
"L. c #958A63",
"P. c #8D9568",
"I. c #8C8473",
"U. c #8B8A73",
"Y. c #84837B",
"T. c #8B837B",
"R. c #848B7B",
"E. c #8D8B7C",
"W. c #858373",
"Q. c #938573",
"!. c #938A74",
"~. c #9B8C73",
"^. c #94837B",
"/. c #948C7B",
"(. c #9A8C7B",
"). c #998779",
"_. c #9B9275",
"`. c #95917B",
"'. c #9D947B",
"]. c #979779",
"[. c #919170",
"{. c #A18465",
"}. c #A48B68",
"|. c #A4936B",
" X c #A68D7C",
".X c #A39474",
"XX c #A99779",
"oX c #B59266",
"OX c #A8A27A",
"+X c #7C7E85",
"@X c #867D84",
"#X c #828182",
"$X c #8D8C83",
"%X c #82848B",
"&X c #8B8A8B",
"*X c #8A8685",
"=X c #938B83",
"-X c #958A88",
";X c #8D938C",
":X c #949584",
">X c #9B9384",
",X c #95968C",
"<X c #9B958B",
"1X c #9C9B89",
"2X c #9C9A84",
"3X c #8B8C94",
"4X c #878991",
"5X c #918992",
"6X c #8E9098",
"7X c #92949C",
"8X c #95989F",
"9X c #999795",
"0X c #A29584",
"qX c #A39A85",
"wX c #A79B8A",
"eX c #A99B93",
"rX c #A38F84",
"tX c #9BA48C",
"yX c #9CA397",
"uX c #ACA38B",
"iX c #A6A38D",
"pX c #A9A694",
"aX c #B4AB98",
"sX c #BFA78B",
"dX c #979AA0",
"fX c #9A9CA3",
"gX c #9EA0A7",
"hX c #A4A5AC",
"jX c #A6A9AD",
"kX c #A9ABA3",
"lX c #ABADB2",
"zX c #B3B4BB",
"xX c #B4B0AF",
"cX c #BBBCC3",
"vX c #C0BFC3",
"bX c #C2C2CA",
/* pixels */
"                                                                                                    ",
"                                                                                                    ",
"                                                                                                    ",
"                                                                                                    ",
"                                                    4.O.*.                                          ",
"            /.{ !.) Y.>X                          _.1.&.r.XX                                        ",
"            a.J / f.L ~.6.6.*X                  (.J.U.` :X                                          ",
"            0.5.3.i.s L I V G.0XwX            <XQ.W.p.g.R.kX                                        ",
"          ^./.H.7.E.j.x / f.I.I.0X1X          T.R B 8.r.~.OX                                        ",
"          } ) 4.&.3./.Q..Xp./.).qX.X~..X  H.wX<XR 9 q.9.m.N.uX                                      ",
"            S.k.P P Q P F.R B N g./.`.T. Xw.{.uXJ.V Z.T.N.V.wX                                      ",
"            4.s.,.{.i.;.N.p.:.X.7 ` 0X~.>XH.q.|.5.0.Q.! XX6.h.eX                                    ",
"              i j i.-X}.|.XX-.O.J.A.p..XXXK.w.$.R q.i.s I l 1.w.qX                                  ",
"              s o @ k.F.=.R B 6 ` A.S K. XrX-Xu.Z.r.I A u.P S K ^.5X                                ",
"              Q ,.x ) N 7 =.p.m y S ( h.h.k.0X(._.$.P L p.( j.Y.$X!.(.K.                            ",
"                Q.,.Q K u.Q.C.x.a u u.9.9.k  X_.L P p.S n I.;X;X/.~.M.o.p.                          ",
"                  s.` ` A.'.R.Y.A.T I &.: 1 ~.G._ F S y A 1X1XE.( A..X&.U                           ",
"                  &X{ J b 1.:X) Q.M.}.}.l k d.5.F s.I.G x.I.`.A.( ( '.5.E [.                        ",
"                  } D r o K :X( B r.h.d.XXi.8.{.d.d.=Xk./ S.3.E m m -.$.-.K.                        ",
"                  <X) ) x.^ $XQ.R 1.7 i.h.N.:.h.,.K { ` A / Y J M & & M U o.0.                      ",
"                  6.$.@XR.P T.p.4.$.# , e.;.*.l , C G U x.W.V 8 = 2 J R.R.V %.    xX                ",
"                    %.) Q B t x 8.;.O. .*.1..., , N R U n.) 6 % - 0 N.tX:X'.6.1X  |.B.sX            ",
"                      j i k x e %.@.7 > o.V 7 : 4 E R.c.n.Y + % > , #.M.tXU.%.>X,X2.y.oXaX          ",
"                      a r s l.Q 3. .3 a u h u t D { b.( B % + & %  .#.Z tXiX=._.J.8.B.K.&X          ",
"                    s.W v u ! j.F.N F Q F K f D Q Y.W.T f . . O > o.X.+.P.OXM.n.m.y.r._ #XvX        ",
"              eX0X(.s.A Y.) F K 3 t h t k f.g y c P U E f + - M z.n.+.> Z n.-.5.].r.7 c } kX        ",
"            wXXXqX_.K.k.T.{ ^ 3.Y = * * V l 4 f * = - m S % +.o.9 U n.8 ; 0 +.|.1XH.K.L W.,X        ",
"            C.(.E.4.O.O.i.R.U.0.R T p.I.K k B ,.f = b J '.n.c.z.M.M.M.].; Z , -.U._ d.U.U.9X        ",
"            ` { E.M.8.w.H.g.w.7 k T S.I H N F.F.%.O.,.3.t.N.|.F.F.F.:XkXv.U 6 J p.d.T.Y.b.jX        ",
"            Y s.b.( 7.7.8.:.&.6 5 3.f < 7 1.:.;.r.>.H.S.1.R G.n.5.`.R.2XpXJ Y L.M./ s.} ;XlX        ",
"            l Q W.x.Y 9 6 U m U =.:.B H K.G.g 6 4.:.q.4.s.U.R C.L.P.!.D.2XQ.S.S.d.` .XOX1X          ",
"              ) u.1.R $.M M m Z w.].].G.g.>X).I.I g :.<.L I.( ( P.L.Z..X_.! T.x.g.|.OXOXaX          ",
"                  K.*Xp./ C.Y U i.Q a.m.i.-X>X2X_.n 3 1.W.!.R Y n.D.J.|.K.S.' p.F.K.'.pX            ",
"                    &XG.1.C m b J z 3.m.k.} '.!.~.3.f.XXaXwX3.8 B P /.A.=.P ` g.`.Y >X              ",
"                        E.c.z.U R Q *...B f.L u.Q.}.<X=X<XeXuXqXQ Q E.( 3.2 A f.f.3.kX              ",
"                          yXE.9X-X9.O.V 5 j H I <X<Xj.Q.Q.uXaXiXk.j.I.p.$.o.< x K ).                ",
"                        cXzXlXlXhX@Xl j N = j i.@X9X=XR k / !.3./ T n f Z +.7 l.9.>X                ",
"                      jXfX7X3X4X+X5X*Xh.i.x &.t.,.l.F e * T U.G.Z.Z m n.P.E k.rX=X8X                ",
"                        6X%X+X+X} @X5X@X-X(.~.3.x K P J ) _ :X=XA.Z S.E U u _ S.| %X                ",
"                        dX6X3X6X4X] @X@X-XwX>X^.).'.uXiX=XT.E.Q v c.T X X @ * z ] 6X                ",
"                        fXfXdXdX6X] d p @XeXeXuXuXeX0XG z 3.C.F ~ b.a w W +X@X+X5X                  ",
"                        fXfXdX7X6X] p q q | *X>X>XR x z h 5.[.( ~ W W %X4X6X7X8X                    ",
"                          fXdX7X7X4X] p q q p s g : < _ Q !._.T [ W +X3X6XdX                        ",
"                            hXhXhXhXfX3X] p w @ < 3 7 ` E.pX:XW ] %XdX                              ",
"                              bXcXzXhXfX7X3X+X] j 5 g $XtXtX#X3XdX                                  ",
"                                  cXlXfX8X8X7X7X@Xl 3 U.;X&X7X                                      ",
"                                      hXfXfXfXfXfX*XL _                                             ",
"                                                                                                    ",
"                                                                                                    ",
"                                                                                                    "
};
